<?xml version="1.0" standalone="no"?>
<!DOCTYPE svg PUBLIC "-//W3C//DTD SVG 1.1//EN" "http://www.w3.org/Graphics/SVG/1.1/DTD/svg11.dtd" >
<svg xmlns="http://www.w3.org/2000/svg" xmlns:xlink="http://www.w3.org/1999/xlink" version="1.1">
<metadata>
Created by FontForge 20190801 at Fri Sep  7 15:56:34 2018
 By Jimmy Wärting
Copyright 2018 The K2D Project Authors (https://github.com/cadsondemak/K2D)
</metadata>
<defs>
<font id="K2D-Regular" horiz-adv-x="0" >
  <font-face 
    font-family="K2D"
    font-weight="400"
    font-stretch="normal"
    units-per-em="1000"
    panose-1="0 0 5 0 0 0 0 0 0 0"
    ascent="800"
    descent="-200"
    x-height="500"
    cap-height="709"
    bbox="-693 -513 1198 1262"
    underline-thickness="50"
    underline-position="-100"
    unicode-range="U+000D-FB02"
  />
<missing-glyph horiz-adv-x="737" 
d="M93 750h550v-750h-550v750zM593 52v647h-450v-647h450z" />
    <glyph glyph-name="fi" unicode="fi" horiz-adv-x="613" 
d="M118 435h-83q0 70 52 70h31v50q0 70 43.5 112t116.5 42q40 0 68.5 -18.5t28.5 -44.5q0 -21 -13 -34q-35 20 -77 20q-38 0 -59 -21t-21 -60v-46h316v-450q0 -64 -87 -64v444h-229v-380q0 -33 -21 -48.5t-66 -15.5v444zM431 602q-19 18 -19 45q0 26 19 44t47 18t46.5 -18
t18.5 -44t-18.5 -44.5t-46.5 -18.5t-47 18z" />
    <glyph glyph-name="fl" unicode="fl" horiz-adv-x="689" 
d="M118 435h-83q0 70 52 70h31v42q0 44 26 81t70 59t96 22q61 0 111 -17.5t83 -50.5v-500q0 -40 16 -56.5t54 -16.5q37 0 67 18q13 -15 13 -35q0 -25 -26.5 -42.5t-65.5 -17.5q-68 0 -106.5 38.5t-38.5 108.5v297h-212v-380q0 -33 -21 -48.5t-66 -15.5v444zM417 505v102
q-24 14 -48 20t-58 6q-49 0 -77.5 -24.5t-28.5 -66.5v-37h212z" />
    <glyph glyph-name="uni0E240E45" unicode="&#xe24;&#xe45;" horiz-adv-x="887" 
d="M432 383q0 60 -38.5 96t-103.5 36q-57 0 -101 -32t-60 -84l53 -94q8 -13 8 -33v-82q-20 -8 -31 -21l3 -4q11 11 26 17t31 6q40 0 66.5 -27.5t26.5 -68.5q0 -43 -30 -72t-75 -29q-47 0 -76 30.5t-29 81.5v177l-56 100q-6 11 -6 20q0 4 2 12q29 84 95 132.5t153 48.5
q56 0 103 -22t79 -64q-6 -10 -15 -35l6 -2q25 58 73 90.5t107 32.5q89 0 136.5 -51t47.5 -146v-559q0 -35 -23.5 -54.5t-64.5 -19.5v631q0 63 -24.5 92t-78.5 29q-53 0 -84.5 -36.5t-31.5 -97.5v-544q0 -35 -23.5 -54.5t-64.5 -19.5v620zM241.5 57.5q13.5 13.5 13.5 34.5
q0 20 -13.5 33.5t-34.5 13.5q-20 0 -33.5 -13.5t-13.5 -33.5q0 -21 13.5 -34.5t33.5 -13.5q21 0 34.5 13.5z" />
    <glyph glyph-name="uni0E260E45" unicode="&#xe26;&#xe45;" horiz-adv-x="925" 
d="M429 570.5q49 -22.5 81 -63.5q-9 -16 -15 -35l6 -2q25 58 73 90.5t108 32.5q88 0 135.5 -51.5t47.5 -145.5v-559q0 -35 -23.5 -54.5t-64.5 -19.5v631q0 63 -24.5 92t-78.5 29q-52 0 -84 -37t-32 -97v-544q0 -35 -23.5 -54.5t-64.5 -19.5v620q0 58 -41.5 95t-106.5 37
q-59 0 -104.5 -31.5t-61.5 -83.5l76 -91q5 -5 6.5 -11.5t1.5 -19.5v-175q0 -51 -29 -81.5t-76 -30.5q-45 0 -75 29t-30 72q0 41 26.5 68.5t66.5 27.5q16 0 31 -6t26 -17l3 4q-11 13 -31 21v88l-81 99q-7 7 -7 17q0 6 3 15q29 83 98.5 133.5t156.5 50.5q58 0 107 -22.5z
M168.5 57.5q13.5 13.5 13.5 34.5q0 20 -13.5 33.5t-33.5 13.5q-21 0 -34.5 -13.5t-13.5 -33.5q0 -21 13.5 -34.5t34.5 -13.5q20 0 33.5 13.5z" />
    <glyph glyph-name=".notdef" horiz-adv-x="737" 
d="M93 750h550v-750h-550v750zM593 52v647h-450v-647h450z" />
    <glyph glyph-name="NULL" 
 />
    <glyph glyph-name="NULL" 
 />
    <glyph glyph-name="nonmarkingreturn" unicode="&#xd;" horiz-adv-x="258" 
 />
    <glyph glyph-name="space" unicode=" " horiz-adv-x="258" 
 />
    <glyph glyph-name="A" unicode="A" horiz-adv-x="677" 
d="M62 16.5q-17 19.5 -17 47.5q0 19 9 40l239 575q12 30 46 30q32 0 45 -30l239 -575q9 -21 9 -40q0 -27 -17 -47t-47 -26l-86 209h-287l-86 -209q-30 6 -47 25.5zM453 281l-129 327l-8 -3l18 -46l-110 -278h229z" />
    <glyph glyph-name="Aacute" unicode="&#xc1;" horiz-adv-x="677" 
d="M62 16.5q-17 19.5 -17 47.5q0 19 9 40l239 575q12 30 46 30q32 0 45 -30l239 -575q9 -21 9 -40q0 -27 -17 -47t-47 -26l-86 209h-287l-86 -209q-30 6 -47 25.5zM453 281l-129 327l-8 -3l18 -46l-110 -278h229zM348 896q14 34 77 34h59l-102 -148q-8 -13 -20 -17t-38 -4
l-32 1z" />
    <glyph glyph-name="Abreve" unicode="&#x102;" horiz-adv-x="677" 
d="M62 16.5q-17 19.5 -17 47.5q0 19 9 40l239 575q12 30 46 30q32 0 45 -30l239 -575q9 -21 9 -40q0 -27 -17 -47t-47 -26l-86 209h-287l-86 -209q-30 6 -47 25.5zM453 281l-129 327l-8 -3l18 -46l-110 -278h229zM259 777q-39 16 -63 45.5t-24 67.5q0 62 76 62
q0 -60 22 -89.5t69 -29.5t69 29.5t22 89.5q76 0 76 -62q0 -38 -24 -67.5t-63 -45.5t-80 -16t-80 16z" />
    <glyph glyph-name="uni1EAE" unicode="&#x1eae;" horiz-adv-x="677" 
d="M62 16.5q-17 19.5 -17 47.5q0 19 9 40l239 575q12 30 46 30q32 0 45 -30l239 -575q9 -21 9 -40q0 -27 -17 -47t-47 -26l-86 209h-287l-86 -209q-30 6 -47 25.5zM453 281l-129 327l-8 -3l18 -46l-110 -278h229zM348 1026q15 31 68 31h42l-81 -113q-8 -11 -19.5 -15.5
t-33.5 -4.5l-24 1zM262 774q-37 15 -61 42.5t-24 63.5q0 28 15.5 43.5t53.5 15.5q0 -111 93 -111t93 111q38 0 53.5 -15.5t15.5 -43.5q0 -36 -24 -63.5t-61 -42.5t-77 -15t-77 15z" />
    <glyph glyph-name="uni1EB6" unicode="&#x1eb6;" horiz-adv-x="677" 
d="M62 16.5q-17 19.5 -17 47.5q0 19 9 40l239 575q12 30 46 30q32 0 45 -30l239 -575q9 -21 9 -40q0 -27 -17 -47t-47 -26l-86 209h-287l-86 -209q-30 6 -47 25.5zM453 281l-129 327l-8 -3l18 -46l-110 -278h229zM298.5 -159.5q-15.5 15.5 -15.5 38.5q0 24 15.5 39.5
t40.5 15.5q24 0 39.5 -15.5t15.5 -39.5t-15.5 -39t-39.5 -15q-25 0 -40.5 15.5zM259 777q-39 16 -63 45.5t-24 67.5q0 62 76 62q0 -60 22 -89.5t69 -29.5t69 29.5t22 89.5q76 0 76 -62q0 -38 -24 -67.5t-63 -45.5t-80 -16t-80 16z" />
    <glyph glyph-name="uni1EB0" unicode="&#x1eb0;" horiz-adv-x="677" 
d="M62 16.5q-17 19.5 -17 47.5q0 19 9 40l239 575q12 30 46 30q32 0 45 -30l239 -575q9 -21 9 -40q0 -27 -17 -47t-47 -26l-86 209h-287l-86 -209q-30 6 -47 25.5zM453 281l-129 327l-8 -3l18 -46l-110 -278h229zM353 924q-22 0 -33 4.5t-19 15.5l-83 113h42q53 0 68 -31
l49 -101zM262 774q-37 15 -61 42.5t-24 63.5q0 28 15.5 43.5t53.5 15.5q0 -111 93 -111t93 111q38 0 53.5 -15.5t15.5 -43.5q0 -36 -24 -63.5t-61 -42.5t-77 -15t-77 15z" />
    <glyph glyph-name="uni1EB2" unicode="&#x1eb2;" horiz-adv-x="677" 
d="M62 16.5q-17 19.5 -17 47.5q0 19 9 40l239 575q12 30 46 30q32 0 45 -30l239 -575q9 -21 9 -40q0 -27 -17 -47t-47 -26l-86 209h-287l-86 -209q-30 6 -47 25.5zM453 281l-129 327l-8 -3l18 -46l-110 -278h229zM304 929q0 15 7 25.5t21 23.5q2 2 8.5 9t10 14t3.5 14
q0 11 -8.5 17t-22.5 6q-15 0 -23.5 -8t-8.5 -22q0 -10 3 -18q-60 0 -60 38q0 26 26 44t65 18q42 0 68 -18t26 -50q0 -17 -6.5 -27.5t-20.5 -24.5q-11 -11 -16.5 -19.5t-5.5 -19.5q0 -14 -12 -21.5t-31 -7.5q-11 0 -23 3v24zM261 774q-37 15 -61 42.5t-24 63.5
q0 28 15.5 43.5t53.5 15.5q0 -111 93 -111t93 111q69 0 69 -59q0 -36 -24 -63.5t-61 -42.5t-77 -15t-77 15z" />
    <glyph glyph-name="uni1EB4" unicode="&#x1eb4;" horiz-adv-x="677" 
d="M62 16.5q-17 19.5 -17 47.5q0 19 9 40l239 575q12 30 46 30q32 0 45 -30l239 -575q9 -21 9 -40q0 -27 -17 -47t-47 -26l-86 209h-287l-86 -209q-30 6 -47 25.5zM453 281l-129 327l-8 -3l18 -46l-110 -278h229zM202.5 982q-12.5 15 -12.5 38q0 32 22 51t56 19
q24 0 41.5 -8.5t40.5 -25.5q14 -11 24.5 -17t20.5 -6q13 0 20 6.5t7 17.5q0 12 -8 28q10 5 20 5q19 0 32 -16t13 -38q0 -32 -21 -50.5t-54 -18.5q-21 0 -38 9t-39 26q-18 13 -29 19t-22 6q-13 0 -20.5 -7.5t-7.5 -20.5q0 -14 6 -28q-12 -4 -19 -4q-20 0 -32.5 15zM262 774
q-37 15 -61 42.5t-24 63.5q0 28 15.5 43.5t53.5 15.5q0 -111 93 -111t93 111q38 0 53.5 -15.5t15.5 -43.5q0 -36 -24 -63.5t-61 -42.5t-77 -15t-77 15z" />
    <glyph glyph-name="uni01CD" unicode="&#x1cd;" horiz-adv-x="677" 
d="M62 16.5q-17 19.5 -17 47.5q0 19 9 40l239 575q12 30 46 30q32 0 45 -30l239 -575q9 -21 9 -40q0 -27 -17 -47t-47 -26l-86 209h-287l-86 -209q-30 6 -47 25.5zM453 281l-129 327l-8 -3l18 -46l-110 -278h229zM416 932q14 17 41 17q15 0 29 -6.5t23 -18.5l-141 -147
q-11 -13 -29 -13t-29 13l-141 147q9 12 23 18.5t29 6.5q27 0 41 -17l77 -92z" />
    <glyph glyph-name="Acircumflex" unicode="&#xc2;" horiz-adv-x="677" 
d="M62 16.5q-17 19.5 -17 47.5q0 19 9 40l239 575q12 30 46 30q32 0 45 -30l239 -575q9 -21 9 -40q0 -27 -17 -47t-47 -26l-86 209h-287l-86 -209q-30 6 -47 25.5zM453 281l-129 327l-8 -3l18 -46l-110 -278h229zM245 768.5q-11 -4.5 -23 -4.5q-16 0 -29.5 6.5t-22.5 18.5
l141 147q11 13 29 13t29 -13l141 -147q-9 -12 -22.5 -18.5t-29.5 -6.5q-12 0 -23 4.5t-18 12.5l-77 92l-77 -92q-7 -8 -18 -12.5z" />
    <glyph glyph-name="uni1EA4" unicode="&#x1ea4;" horiz-adv-x="677" 
d="M62 16.5q-17 19.5 -17 47.5q0 19 9 40l239 575q12 30 46 30q32 0 45 -30l239 -575q9 -21 9 -40q0 -27 -17 -47t-47 -26l-86 209h-287l-86 -209q-30 6 -47 25.5zM453 281l-129 327l-8 -3l18 -46l-110 -278h229zM474 1027q7 16 24 23t45 7h41l-85 -118q-8 -11 -18.5 -15.5
t-31.5 -4.5q-16 0 -26 1zM261 781q-14 -17 -41 -17q-16 0 -30 6.5t-22 18.5l141 147q11 13 29 13t29 -13l141 -147q-9 -12 -23 -18.5t-29 -6.5q-27 0 -41 17l-77 92z" />
    <glyph glyph-name="uni1EAC" unicode="&#x1eac;" horiz-adv-x="677" 
d="M62 16.5q-17 19.5 -17 47.5q0 19 9 40l239 575q12 30 46 30q32 0 45 -30l239 -575q9 -21 9 -40q0 -27 -17 -47t-47 -26l-86 209h-287l-86 -209q-30 6 -47 25.5zM453 281l-129 327l-8 -3l18 -46l-110 -278h229zM298.5 -159.5q-15.5 15.5 -15.5 38.5q0 24 15.5 39.5
t40.5 15.5q24 0 39.5 -15.5t15.5 -39.5t-15.5 -39t-39.5 -15q-25 0 -40.5 15.5zM245 768.5q-11 -4.5 -23 -4.5q-16 0 -29.5 6.5t-22.5 18.5l141 147q11 13 29 13t29 -13l141 -147q-9 -12 -22.5 -18.5t-29.5 -6.5q-12 0 -23 4.5t-18 12.5l-77 92l-77 -92q-7 -8 -18 -12.5z
" />
    <glyph glyph-name="uni1EA6" unicode="&#x1ea6;" horiz-adv-x="677" 
d="M62 16.5q-17 19.5 -17 47.5q0 19 9 40l239 575q12 30 46 30q32 0 45 -30l239 -575q9 -21 9 -40q0 -27 -17 -47t-47 -26l-86 209h-287l-86 -209q-30 6 -47 25.5zM453 281l-129 327l-8 -3l18 -46l-110 -278h229zM488 919q-19 0 -29.5 4.5t-18.5 15.5l-78 118h42
q28 0 44.5 -7t23.5 -23l44 -107q-11 -1 -28 -1zM261 781q-14 -17 -41 -17q-16 0 -30 6.5t-22 18.5l141 147q11 13 29 13t29 -13l141 -147q-9 -12 -23 -18.5t-29 -6.5q-27 0 -41 17l-77 92z" />
    <glyph glyph-name="uni1EA8" unicode="&#x1ea8;" horiz-adv-x="677" 
d="M62 16.5q-17 19.5 -17 47.5q0 19 9 40l239 575q12 30 46 30q32 0 45 -30l239 -575q9 -21 9 -40q0 -27 -17 -47t-47 -26l-86 209h-287l-86 -209q-30 6 -47 25.5zM453 281l-129 327l-8 -3l18 -46l-110 -278h229zM442 919q0 15 7 25.5t21 23.5q2 2 8.5 9t10 14t3.5 14
q0 10 -8.5 16t-23.5 6q-31 0 -31 -30q0 -12 2 -17q-28 0 -44 9t-16 28q0 26 26.5 44.5t65.5 18.5q42 0 68 -18.5t26 -50.5q0 -17 -7 -28t-20 -23q-11 -10 -17 -19t-6 -20q0 -14 -12 -21.5t-30 -7.5q-11 0 -23 3v24zM261 781q-14 -17 -41 -17q-16 0 -30 6.5t-22 18.5l141 147
q11 13 29 13t29 -13l141 -147q-9 -12 -23 -18.5t-29 -6.5q-27 0 -41 17l-77 92z" />
    <glyph glyph-name="uni1EAA" unicode="&#x1eaa;" horiz-adv-x="677" 
d="M62 16.5q-17 19.5 -17 47.5q0 19 9 40l239 575q12 30 46 30q32 0 45 -30l239 -575q9 -21 9 -40q0 -27 -17 -47t-47 -26l-86 209h-287l-86 -209q-30 6 -47 25.5zM453 281l-129 327l-8 -3l18 -46l-110 -278h229zM213.5 981q-12.5 15 -12.5 38q0 32 22 51.5t56 19.5
q24 0 41.5 -8.5t40.5 -25.5q27 -22 45 -22q27 0 27 23q0 12 -8 28q10 5 20 5q19 0 32 -16t13 -38q0 -32 -21 -50t-54 -18q-21 0 -37.5 8.5t-39.5 25.5q-18 13 -29 19t-22 6q-13 0 -20.5 -8t-7.5 -21q0 -14 6 -28q-12 -4 -19 -4q-20 0 -32.5 15zM220 764q-16 0 -30 6.5
t-22 18.5l141 147q11 13 29 13t29 -13l141 -147q-9 -12 -23 -18.5t-29 -6.5q-27 0 -41 17l-77 92l-77 -92q-14 -17 -41 -17z" />
    <glyph glyph-name="Adieresis" unicode="&#xc4;" horiz-adv-x="677" 
d="M62 16.5q-17 19.5 -17 47.5q0 19 9 40l239 575q12 30 46 30q32 0 45 -30l239 -575q9 -21 9 -40q0 -27 -17 -47t-47 -26l-86 209h-287l-86 -209q-30 6 -47 25.5zM453 281l-129 327l-8 -3l18 -46l-110 -278h229zM203.5 790q-15.5 15 -15.5 39t15.5 39.5t40.5 15.5
q24 0 39 -15.5t15 -39.5q0 -23 -15 -38.5t-39 -15.5q-25 0 -40.5 15zM396.5 790.5q-15.5 15.5 -15.5 38.5q0 24 15 39.5t40 15.5t40 -15.5t15 -39.5q0 -23 -15 -38.5t-40 -15.5q-24 0 -39.5 15.5z" />
    <glyph glyph-name="uni1EA0" unicode="&#x1ea0;" horiz-adv-x="677" 
d="M62 16.5q-17 19.5 -17 47.5q0 19 9 40l239 575q12 30 46 30q32 0 45 -30l239 -575q9 -21 9 -40q0 -27 -17 -47t-47 -26l-86 209h-287l-86 -209q-30 6 -47 25.5zM453 281l-129 327l-8 -3l18 -46l-110 -278h229zM298.5 -159.5q-15.5 15.5 -15.5 38.5q0 24 15.5 39.5
t40.5 15.5q24 0 39.5 -15.5t15.5 -39.5t-15.5 -39t-39.5 -15q-25 0 -40.5 15.5z" />
    <glyph glyph-name="Agrave" unicode="&#xc0;" horiz-adv-x="677" 
d="M62 16.5q-17 19.5 -17 47.5q0 19 9 40l239 575q12 30 46 30q32 0 45 -30l239 -575q9 -21 9 -40q0 -27 -17 -47t-47 -26l-86 209h-287l-86 -209q-30 6 -47 25.5zM453 281l-129 327l-8 -3l18 -46l-110 -278h229zM328 764q-17 4 -28 18l-123 148h59q58 0 77 -34l76 -134
q-44 -2 -61 2z" />
    <glyph glyph-name="uni1EA2" unicode="&#x1ea2;" horiz-adv-x="677" 
d="M62 16.5q-17 19.5 -17 47.5q0 19 9 40l239 575q12 30 46 30q32 0 45 -30l239 -575q9 -21 9 -40q0 -27 -17 -47t-47 -26l-86 209h-287l-86 -209q-30 6 -47 25.5zM453 281l-129 327l-8 -3l18 -46l-110 -278h229zM312 793q0 17 8 29.5t23 26.5q13 11 19.5 20t6.5 21
q0 27 -34 27t-34 -35q0 -12 3 -21q-31 0 -49 10.5t-18 32.5q0 30 28.5 50.5t72.5 20.5q48 0 76 -20t28 -57q0 -20 -8 -32.5t-24 -26.5q-13 -12 -19.5 -21.5t-6.5 -22.5q0 -15 -13.5 -23.5t-33.5 -8.5q-11 0 -25 3v27z" />
    <glyph glyph-name="Amacron" unicode="&#x100;" horiz-adv-x="677" 
d="M62 16.5q-17 19.5 -17 47.5q0 19 9 40l239 575q12 30 46 30q32 0 45 -30l239 -575q9 -21 9 -40q0 -27 -17 -47t-47 -26l-86 209h-287l-86 -209q-30 6 -47 25.5zM453 281l-129 327l-8 -3l18 -46l-110 -278h229zM245 856h256q0 -71 -68 -71h-256q0 71 68 71z" />
    <glyph glyph-name="Aogonek" unicode="&#x104;" horiz-adv-x="677" 
d="M616 -128q5 -13 5 -22q0 -22 -21.5 -37.5t-54.5 -15.5q-41 0 -65.5 23.5t-24.5 62.5t27.5 73t77.5 51h1l-79 193h-287l-86 -209q-30 6 -47 25.5t-17 47.5q0 19 9 40l239 575q12 30 46 30q32 0 45 -30l239 -575q9 -21 9 -40q0 -35 -28 -57h1q-34 -26 -52 -53t-18 -58
q0 -20 11 -31.5t30 -11.5q25 0 40 19zM453 281l-129 327l-8 -3l18 -46l-110 -278h229z" />
    <glyph glyph-name="Aring" unicode="&#xc5;" horiz-adv-x="677" 
d="M62 16.5q-17 19.5 -17 47.5q0 19 9 40l239 575q12 30 46 30q32 0 45 -30l239 -575q9 -21 9 -40q0 -27 -17 -47t-47 -26l-86 209h-287l-86 -209q-30 6 -47 25.5zM453 281l-129 327l-8 -3l18 -46l-110 -278h229zM257.5 775q-31.5 29 -31.5 75t31.5 74.5t81.5 28.5
q49 0 80 -28.5t31 -74.5t-31 -75t-80 -29q-50 0 -81.5 29zM375.5 813q14.5 14 14.5 37t-14.5 37t-36.5 14q-23 0 -37 -14t-14 -37t14 -37t37 -14q22 0 36.5 14z" />
    <glyph glyph-name="Aringacute" unicode="&#x1fa;" horiz-adv-x="677" 
d="M346 1082q11 27 62 27h47l-82 -118q-7 -10 -16 -13.5t-29 -3.5l-27 1zM257.5 775q-31.5 29 -31.5 75t31.5 74.5t81.5 28.5q49 0 80 -28.5t31 -74.5t-31 -75t-80 -29q-50 0 -81.5 29zM375.5 813q14.5 14 14.5 37t-14.5 37t-36.5 14q-23 0 -37 -14t-14 -37t14 -37t37 -14
q22 0 36.5 14zM62 16.5q-17 19.5 -17 47.5q0 19 9 40l239 575q12 30 46 30q32 0 45 -30l239 -575q9 -21 9 -40q0 -27 -17 -47t-47 -26l-86 209h-287l-86 -209q-30 6 -47 25.5zM453 281l-129 327l-8 -3l18 -46l-110 -278h229z" />
    <glyph glyph-name="Atilde" unicode="&#xc3;" horiz-adv-x="677" 
d="M62 16.5q-17 19.5 -17 47.5q0 19 9 40l239 575q12 30 46 30q32 0 45 -30l239 -575q9 -21 9 -40q0 -27 -17 -47t-47 -26l-86 209h-287l-86 -209q-30 6 -47 25.5zM453 281l-129 327l-8 -3l18 -46l-110 -278h229zM194.5 780.5q-13.5 16.5 -13.5 41.5q0 34 24 55t61 21
q26 0 45 -9.5t44 -28.5q17 -13 27.5 -19t21.5 -6q15 0 22.5 7t7.5 19q0 14 -8 32q10 5 22 5q20 0 34 -17t14 -41q0 -35 -23 -55.5t-59 -20.5q-23 0 -41 9.5t-43 28.5q-17 14 -30 21t-25 7q-15 0 -23.5 -8t-8.5 -22q0 -17 8 -31q-12 -5 -22 -5q-21 0 -34.5 16.5z" />
    <glyph glyph-name="AE" unicode="&#xc6;" horiz-adv-x="899" 
d="M322 669q15 31 52 31h460q0 -41 -16.5 -61.5t-53.5 -20.5h-284v-224h237q0 -41 -16 -61.5t-53 -20.5h-168v-230h305q36 0 52.5 -21t16.5 -61h-420q-20 0 -34 12.5t-14 31.5v156h-181l-96 -209q-30 6 -47 25.5t-17 45.5q0 22 10 42zM386 283v324l-152 -324h152z" />
    <glyph glyph-name="AEacute" unicode="&#x1fc;" horiz-adv-x="899" 
d="M322 669q15 31 52 31h460q0 -41 -16.5 -61.5t-53.5 -20.5h-284v-224h237q0 -41 -16 -61.5t-53 -20.5h-168v-230h305q36 0 52.5 -21t16.5 -61h-420q-20 0 -34 12.5t-14 31.5v156h-181l-96 -209q-30 6 -47 25.5t-17 45.5q0 22 10 42zM386 283v324l-152 -324h152zM505 896
q14 34 77 34h59l-102 -148q-8 -13 -20 -17t-38 -4l-32 1z" />
    <glyph glyph-name="B" unicode="B" horiz-adv-x="660" 
d="M84 13q-14 13 -14 31v612q0 19 14 31.5t34 12.5h278q87 0 138.5 -52t51.5 -140q0 -47 -25 -88t-65 -61v-2q57 -17 88 -58.5t31 -100.5q0 -58 -24.5 -103t-68.5 -70t-101 -25h-303q-20 0 -34 13zM394 391q41 0 70.5 33.5t29.5 81.5q0 53 -26.5 83t-73.5 30h-231v-228h231z
M414 81q51 0 80 30.5t29 85.5q0 53 -28.5 83t-80.5 30h-251v-229h251z" />
    <glyph glyph-name="C" unicode="C" horiz-adv-x="684" 
d="M199 22.5q-66 31.5 -102.5 88t-36.5 128.5v224q0 72 36.5 128t101.5 87t149 31t149 -26.5t101.5 -73.5t36.5 -108q0 -30 -20 -47t-53 -17q-7 0 -21 2q2 12 2 38q0 43 -24.5 77t-69 53t-101.5 19q-56 0 -100 -20.5t-68.5 -58t-24.5 -84.5v-224q0 -48 24.5 -85.5t69 -58.5
t101.5 -21q58 0 103 19t70 52.5t25 77.5q0 16 -2 38q14 2 20 2q33 0 53.5 -19t20.5 -51q0 -59 -37 -105t-102.5 -71.5t-150.5 -25.5q-84 0 -150 31.5z" />
    <glyph glyph-name="Cacute" unicode="&#x106;" horiz-adv-x="684" 
d="M199 22.5q-66 31.5 -102.5 88t-36.5 128.5v224q0 72 36.5 128t101.5 87t149 31t149 -26.5t101.5 -73.5t36.5 -108q0 -30 -20 -47t-53 -17q-7 0 -21 2q2 12 2 38q0 43 -24.5 77t-69 53t-101.5 19q-56 0 -100 -20.5t-68.5 -58t-24.5 -84.5v-224q0 -48 24.5 -85.5t69 -58.5
t101.5 -21q58 0 103 19t70 52.5t25 77.5q0 16 -2 38q14 2 20 2q33 0 53.5 -19t20.5 -51q0 -59 -37 -105t-102.5 -71.5t-150.5 -25.5q-84 0 -150 31.5zM353 896q14 34 77 34h59l-102 -148q-8 -13 -20 -17t-38 -4l-32 1z" />
    <glyph glyph-name="Ccaron" unicode="&#x10c;" horiz-adv-x="684" 
d="M199 22.5q-66 31.5 -102.5 88t-36.5 128.5v224q0 72 36.5 128t101.5 87t149 31t149 -26.5t101.5 -73.5t36.5 -108q0 -30 -20 -47t-53 -17q-7 0 -21 2q2 12 2 38q0 43 -24.5 77t-69 53t-101.5 19q-56 0 -100 -20.5t-68.5 -58t-24.5 -84.5v-224q0 -48 24.5 -85.5t69 -58.5
t101.5 -21q58 0 103 19t70 52.5t25 77.5q0 16 -2 38q14 2 20 2q33 0 53.5 -19t20.5 -51q0 -59 -37 -105t-102.5 -71.5t-150.5 -25.5q-84 0 -150 31.5zM421 932q14 17 41 17q15 0 29 -6.5t23 -18.5l-141 -147q-11 -13 -29 -13t-29 13l-141 147q9 12 23 18.5t29 6.5
q27 0 41 -17l77 -92z" />
    <glyph glyph-name="Ccedilla" unicode="&#xc7;" horiz-adv-x="684" 
d="M607.5 95.5q-31.5 -43.5 -89 -70.5t-131.5 -33l-26 -36q44 0 68.5 -23.5t24.5 -60.5q0 -43 -30.5 -68t-80.5 -25q-43 0 -72 18.5t-29 43.5q0 19 12 30q29 -36 78 -36q50 0 50 38q0 18 -12.5 28t-34.5 10q-20 2 -37 -6q-10 -3 -18.5 4t-8.5 18q0 7 4 14l35 52
q-74 7 -131 40t-88 86t-31 120v224q0 72 36.5 128t101.5 87t149 31t149 -26.5t101.5 -73.5t36.5 -108q0 -30 -20 -47t-53 -17q-7 0 -21 2q2 12 2 38q0 43 -24.5 77t-69 53t-101.5 19q-56 0 -100 -20.5t-68.5 -58t-24.5 -84.5v-224q0 -48 24.5 -85.5t69 -58.5t101.5 -21
q58 0 103 19t70 52.5t25 77.5q0 16 -2 38q14 2 20 2q33 0 53.5 -19t20.5 -51q0 -54 -31.5 -97.5z" />
    <glyph glyph-name="Ccircumflex" unicode="&#x108;" horiz-adv-x="684" 
d="M199 22.5q-66 31.5 -102.5 88t-36.5 128.5v224q0 72 36.5 128t101.5 87t149 31t149 -26.5t101.5 -73.5t36.5 -108q0 -30 -20 -47t-53 -17q-7 0 -21 2q2 12 2 38q0 43 -24.5 77t-69 53t-101.5 19q-56 0 -100 -20.5t-68.5 -58t-24.5 -84.5v-224q0 -48 24.5 -85.5t69 -58.5
t101.5 -21q58 0 103 19t70 52.5t25 77.5q0 16 -2 38q14 2 20 2q33 0 53.5 -19t20.5 -51q0 -59 -37 -105t-102.5 -71.5t-150.5 -25.5q-84 0 -150 31.5zM250 768.5q-11 -4.5 -23 -4.5q-16 0 -29.5 6.5t-22.5 18.5l141 147q11 13 29 13t29 -13l141 -147q-9 -12 -22.5 -18.5
t-29.5 -6.5q-12 0 -23 4.5t-18 12.5l-77 92l-77 -92q-7 -8 -18 -12.5z" />
    <glyph glyph-name="Cdotaccent" unicode="&#x10a;" horiz-adv-x="684" 
d="M199 22.5q-66 31.5 -102.5 88t-36.5 128.5v224q0 72 36.5 128t101.5 87t149 31t149 -26.5t101.5 -73.5t36.5 -108q0 -30 -20 -47t-53 -17q-7 0 -21 2q2 12 2 38q0 43 -24.5 77t-69 53t-101.5 19q-56 0 -100 -20.5t-68.5 -58t-24.5 -84.5v-224q0 -48 24.5 -85.5t69 -58.5
t101.5 -21q58 0 103 19t70 52.5t25 77.5q0 16 -2 38q14 2 20 2q33 0 53.5 -19t20.5 -51q0 -59 -37 -105t-102.5 -71.5t-150.5 -25.5q-84 0 -150 31.5zM304.5 790.5q-15.5 15.5 -15.5 38.5q0 24 15.5 39.5t40.5 15.5q24 0 39.5 -15.5t15.5 -39.5q0 -23 -15 -38.5t-40 -15.5
t-40.5 15.5z" />
    <glyph glyph-name="D" unicode="D" horiz-adv-x="700" 
d="M84 12.5q-14 12.5 -14 31.5v612q0 19 13.5 31.5t34.5 12.5h234q85 0 150 -32t101.5 -89.5t36.5 -131.5v-192q0 -74 -36.5 -132t-102 -90.5t-149.5 -32.5h-234q-20 0 -34 12.5zM342 82q96 0 150 45.5t54 126.5v194q0 80 -54 125t-150 45h-178v-536h178z" />
    <glyph glyph-name="Eth" unicode="&#xd0;" horiz-adv-x="760" 
d="M562 668q65 -32 101.5 -89.5t36.5 -131.5v-192q0 -74 -36.5 -132t-102 -90.5t-149.5 -32.5h-234q-20 0 -34 12.5t-14 31.5v258h-85q0 33 14 51t40 18h31v285q0 19 13.5 31.5t34.5 12.5h234q85 0 150 -32zM606 448q0 80 -54 125t-150 45h-178v-247h185q0 -33 -14 -51
t-40 -18h-131v-220h178q96 0 150 45.5t54 126.5v194z" />
    <glyph glyph-name="Dcaron" unicode="&#x10e;" horiz-adv-x="700" 
d="M84 12.5q-14 12.5 -14 31.5v612q0 19 13.5 31.5t34.5 12.5h234q85 0 150 -32t101.5 -89.5t36.5 -131.5v-192q0 -74 -36.5 -132t-102 -90.5t-149.5 -32.5h-234q-20 0 -34 12.5zM342 82q96 0 150 45.5t54 126.5v194q0 80 -54 125t-150 45h-178v-536h178zM406 932
q14 17 41 17q15 0 29 -6.5t23 -18.5l-141 -147q-11 -13 -29 -13t-29 13l-141 147q9 12 23 18.5t29 6.5q27 0 41 -17l77 -92z" />
    <glyph glyph-name="Dcroat" unicode="&#x110;" horiz-adv-x="763" 
d="M565 668q65 -32 101.5 -89.5t36.5 -131.5v-192q0 -74 -36.5 -132t-102 -90.5t-149.5 -32.5h-234q-20 0 -34 12.5t-14 31.5v258h-88q0 33 14 51t40 18h34v285q0 19 13.5 31.5t34.5 12.5h234q85 0 150 -32zM609 448q0 80 -54 125t-150 45h-178v-247h182q0 -33 -14 -51
t-40 -18h-128v-220h178q96 0 150 45.5t54 126.5v194z" />
    <glyph glyph-name="uni1E0C" unicode="&#x1e0c;" horiz-adv-x="700" 
d="M84 12.5q-14 12.5 -14 31.5v612q0 19 13.5 31.5t34.5 12.5h234q85 0 150 -32t101.5 -89.5t36.5 -131.5v-192q0 -74 -36.5 -132t-102 -90.5t-149.5 -32.5h-234q-20 0 -34 12.5zM342 82q96 0 150 45.5t54 126.5v194q0 80 -54 125t-150 45h-178v-536h178zM288.5 -159.5
q-15.5 15.5 -15.5 38.5q0 24 15.5 39.5t40.5 15.5q24 0 39.5 -15.5t15.5 -39.5t-15.5 -39t-39.5 -15q-25 0 -40.5 15.5z" />
    <glyph glyph-name="uni1E0E" unicode="&#x1e0e;" horiz-adv-x="700" 
d="M84 12.5q-14 12.5 -14 31.5v612q0 19 13.5 31.5t34.5 12.5h234q85 0 150 -32t101.5 -89.5t36.5 -131.5v-192q0 -74 -36.5 -132t-102 -90.5t-149.5 -32.5h-234q-20 0 -34 12.5zM342 82q96 0 150 45.5t54 126.5v194q0 80 -54 125t-150 45h-178v-536h178zM235 -57h256
q0 -71 -68 -71h-256q0 71 68 71z" />
    <glyph glyph-name="E" unicode="E" horiz-adv-x="626" 
d="M70 656q0 19 14 31.5t34 12.5h443q0 -42 -17 -62t-53 -20h-327v-224h280q0 -42 -17 -62t-52 -20h-211v-230h348q35 0 52 -20t17 -62h-463q-20 0 -34 12.5t-14 31.5v612z" />
    <glyph glyph-name="Eacute" unicode="&#xc9;" horiz-adv-x="626" 
d="M70 656q0 19 14 31.5t34 12.5h443q0 -42 -17 -62t-53 -20h-327v-224h280q0 -42 -17 -62t-52 -20h-211v-230h348q35 0 52 -20t17 -62h-463q-20 0 -34 12.5t-14 31.5v612zM320 896q14 34 77 34h59l-102 -148q-8 -13 -20 -17t-38 -4l-32 1z" />
    <glyph glyph-name="Ebreve" unicode="&#x114;" horiz-adv-x="626" 
d="M70 656q0 19 14 31.5t34 12.5h443q0 -42 -17 -62t-53 -20h-327v-224h280q0 -42 -17 -62t-52 -20h-211v-230h348q35 0 52 -20t17 -62h-463q-20 0 -34 12.5t-14 31.5v612zM231 777q-39 16 -63 45.5t-24 67.5q0 62 76 62q0 -60 22 -89.5t69 -29.5t69 29.5t22 89.5
q76 0 76 -62q0 -38 -24 -67.5t-63 -45.5t-80 -16t-80 16z" />
    <glyph glyph-name="Ecaron" unicode="&#x11a;" horiz-adv-x="626" 
d="M70 656q0 19 14 31.5t34 12.5h443q0 -42 -17 -62t-53 -20h-327v-224h280q0 -42 -17 -62t-52 -20h-211v-230h348q35 0 52 -20t17 -62h-463q-20 0 -34 12.5t-14 31.5v612zM388 932q14 17 41 17q15 0 29 -6.5t23 -18.5l-141 -147q-11 -13 -29 -13t-29 13l-141 147
q9 12 23 18.5t29 6.5q27 0 41 -17l77 -92z" />
    <glyph glyph-name="Ecircumflex" unicode="&#xca;" horiz-adv-x="626" 
d="M70 656q0 19 14 31.5t34 12.5h443q0 -42 -17 -62t-53 -20h-327v-224h280q0 -42 -17 -62t-52 -20h-211v-230h348q35 0 52 -20t17 -62h-463q-20 0 -34 12.5t-14 31.5v612zM217 768.5q-11 -4.5 -23 -4.5q-16 0 -29.5 6.5t-22.5 18.5l141 147q11 13 29 13t29 -13l141 -147
q-9 -12 -22.5 -18.5t-29.5 -6.5q-12 0 -23 4.5t-18 12.5l-77 92l-77 -92q-7 -8 -18 -12.5z" />
    <glyph glyph-name="uni1EBE" unicode="&#x1ebe;" horiz-adv-x="626" 
d="M70 656q0 19 14 31.5t34 12.5h443q0 -42 -17 -62t-53 -20h-327v-224h280q0 -42 -17 -62t-52 -20h-211v-230h348q35 0 52 -20t17 -62h-463q-20 0 -34 12.5t-14 31.5v612zM446 1027q7 16 24 23t45 7h41l-85 -118q-8 -11 -18.5 -15.5t-31.5 -4.5q-16 0 -26 1zM233 781
q-14 -17 -41 -17q-16 0 -30 6.5t-22 18.5l141 147q11 13 29 13t29 -13l141 -147q-9 -12 -23 -18.5t-29 -6.5q-27 0 -41 17l-77 92z" />
    <glyph glyph-name="uni1EC6" unicode="&#x1ec6;" horiz-adv-x="626" 
d="M70 656q0 19 14 31.5t34 12.5h443q0 -42 -17 -62t-53 -20h-327v-224h280q0 -42 -17 -62t-52 -20h-211v-230h348q35 0 52 -20t17 -62h-463q-20 0 -34 12.5t-14 31.5v612zM270.5 -159.5q-15.5 15.5 -15.5 38.5q0 24 15.5 39.5t40.5 15.5q24 0 39.5 -15.5t15.5 -39.5
t-15.5 -39t-39.5 -15q-25 0 -40.5 15.5zM217 768.5q-11 -4.5 -23 -4.5q-16 0 -29.5 6.5t-22.5 18.5l141 147q11 13 29 13t29 -13l141 -147q-9 -12 -22.5 -18.5t-29.5 -6.5q-12 0 -23 4.5t-18 12.5l-77 92l-77 -92q-7 -8 -18 -12.5z" />
    <glyph glyph-name="uni1EC0" unicode="&#x1ec0;" horiz-adv-x="626" 
d="M70 656q0 19 14 31.5t34 12.5h443q0 -42 -17 -62t-53 -20h-327v-224h280q0 -42 -17 -62t-52 -20h-211v-230h348q35 0 52 -20t17 -62h-463q-20 0 -34 12.5t-14 31.5v612zM460 919q-19 0 -29.5 4.5t-18.5 15.5l-78 118h42q28 0 44.5 -7t23.5 -23l44 -107q-11 -1 -28 -1z
M233 781q-14 -17 -41 -17q-16 0 -30 6.5t-22 18.5l141 147q11 13 29 13t29 -13l141 -147q-9 -12 -23 -18.5t-29 -6.5q-27 0 -41 17l-77 92z" />
    <glyph glyph-name="uni1EC2" unicode="&#x1ec2;" horiz-adv-x="626" 
d="M70 656q0 19 14 31.5t34 12.5h443q0 -42 -17 -62t-53 -20h-327v-224h280q0 -42 -17 -62t-52 -20h-211v-230h348q35 0 52 -20t17 -62h-463q-20 0 -34 12.5t-14 31.5v612zM414 919q0 15 7 25.5t21 23.5q2 2 8.5 9t10 14t3.5 14q0 10 -8.5 16t-23.5 6q-31 0 -31 -30
q0 -12 2 -17q-28 0 -44 9t-16 28q0 26 26.5 44.5t65.5 18.5q42 0 68 -18.5t26 -50.5q0 -17 -7 -28t-20 -23q-11 -10 -17 -19t-6 -20q0 -14 -12 -21.5t-30 -7.5q-11 0 -23 3v24zM233 781q-14 -17 -41 -17q-16 0 -30 6.5t-22 18.5l141 147q11 13 29 13t29 -13l141 -147
q-9 -12 -23 -18.5t-29 -6.5q-27 0 -41 17l-77 92z" />
    <glyph glyph-name="uni1EC4" unicode="&#x1ec4;" horiz-adv-x="626" 
d="M70 656q0 19 14 31.5t34 12.5h443q0 -42 -17 -62t-53 -20h-327v-224h280q0 -42 -17 -62t-52 -20h-211v-230h348q35 0 52 -20t17 -62h-463q-20 0 -34 12.5t-14 31.5v612zM185.5 981q-12.5 15 -12.5 38q0 32 22 51.5t56 19.5q24 0 41.5 -8.5t40.5 -25.5q27 -22 45 -22
q27 0 27 23q0 12 -8 28q10 5 20 5q19 0 32 -16t13 -38q0 -32 -21 -50t-54 -18q-21 0 -37.5 8.5t-39.5 25.5q-18 13 -29 19t-22 6q-13 0 -20.5 -8t-7.5 -21q0 -14 6 -28q-12 -4 -19 -4q-20 0 -32.5 15zM192 764q-16 0 -30 6.5t-22 18.5l141 147q11 13 29 13t29 -13l141 -147
q-9 -12 -23 -18.5t-29 -6.5q-27 0 -41 17l-77 92l-77 -92q-14 -17 -41 -17z" />
    <glyph glyph-name="Edieresis" unicode="&#xcb;" horiz-adv-x="626" 
d="M70 656q0 19 14 31.5t34 12.5h443q0 -42 -17 -62t-53 -20h-327v-224h280q0 -42 -17 -62t-52 -20h-211v-230h348q35 0 52 -20t17 -62h-463q-20 0 -34 12.5t-14 31.5v612zM175.5 790q-15.5 15 -15.5 39t15.5 39.5t40.5 15.5q24 0 39 -15.5t15 -39.5q0 -23 -15 -38.5
t-39 -15.5q-25 0 -40.5 15zM368.5 790.5q-15.5 15.5 -15.5 38.5q0 24 15 39.5t40 15.5t40 -15.5t15 -39.5q0 -23 -15 -38.5t-40 -15.5q-24 0 -39.5 15.5z" />
    <glyph glyph-name="Edotaccent" unicode="&#x116;" horiz-adv-x="626" 
d="M70 656q0 19 14 31.5t34 12.5h443q0 -42 -17 -62t-53 -20h-327v-224h280q0 -42 -17 -62t-52 -20h-211v-230h348q35 0 52 -20t17 -62h-463q-20 0 -34 12.5t-14 31.5v612zM271.5 790.5q-15.5 15.5 -15.5 38.5q0 24 15.5 39.5t40.5 15.5q24 0 39.5 -15.5t15.5 -39.5
q0 -23 -15 -38.5t-40 -15.5t-40.5 15.5z" />
    <glyph glyph-name="uni1EB8" unicode="&#x1eb8;" horiz-adv-x="626" 
d="M70 656q0 19 14 31.5t34 12.5h443q0 -42 -17 -62t-53 -20h-327v-224h280q0 -42 -17 -62t-52 -20h-211v-230h348q35 0 52 -20t17 -62h-463q-20 0 -34 12.5t-14 31.5v612zM270.5 -159.5q-15.5 15.5 -15.5 38.5q0 24 15.5 39.5t40.5 15.5q24 0 39.5 -15.5t15.5 -39.5
t-15.5 -39t-39.5 -15q-25 0 -40.5 15.5z" />
    <glyph glyph-name="Egrave" unicode="&#xc8;" horiz-adv-x="626" 
d="M70 656q0 19 14 31.5t34 12.5h443q0 -42 -17 -62t-53 -20h-327v-224h280q0 -42 -17 -62t-52 -20h-211v-230h348q35 0 52 -20t17 -62h-463q-20 0 -34 12.5t-14 31.5v612zM300 764q-17 4 -28 18l-123 148h59q58 0 77 -34l76 -134q-44 -2 -61 2z" />
    <glyph glyph-name="uni1EBA" unicode="&#x1eba;" horiz-adv-x="626" 
d="M70 656q0 19 14 31.5t34 12.5h443q0 -42 -17 -62t-53 -20h-327v-224h280q0 -42 -17 -62t-52 -20h-211v-230h348q35 0 52 -20t17 -62h-463q-20 0 -34 12.5t-14 31.5v612zM284 793q0 17 8 29.5t23 26.5q13 11 19.5 20t6.5 21q0 27 -34 27t-34 -35q0 -12 3 -21
q-31 0 -49 10.5t-18 32.5q0 30 28.5 50.5t72.5 20.5q48 0 76 -20t28 -57q0 -20 -8 -32.5t-24 -26.5q-13 -12 -19.5 -21.5t-6.5 -22.5q0 -15 -13.5 -23.5t-33.5 -8.5q-11 0 -25 3v27z" />
    <glyph glyph-name="Emacron" unicode="&#x112;" horiz-adv-x="626" 
d="M70 656q0 19 14 31.5t34 12.5h443q0 -42 -17 -62t-53 -20h-327v-224h280q0 -42 -17 -62t-52 -20h-211v-230h348q35 0 52 -20t17 -62h-463q-20 0 -34 12.5t-14 31.5v612zM217 856h256q0 -71 -68 -71h-256q0 71 68 71z" />
    <glyph glyph-name="Eogonek" unicode="&#x118;" horiz-adv-x="626" 
d="M583 -154q0 -22 -21.5 -37.5t-54.5 -15.5q-41 0 -65.5 23.5t-24.5 62.5q0 38 25.5 70.5t71.5 50.5h-396q-20 0 -34 12.5t-14 31.5v612q0 19 14 31.5t34 12.5h443q0 -42 -17 -62t-53 -20h-327v-224h280q0 -42 -17 -62t-52 -20h-211v-230h348q35 0 52 -20t17 -62h-18
q-32 -25 -49 -51.5t-17 -56.5q0 -20 11 -31.5t30 -11.5q25 0 40 19q5 -13 5 -22z" />
    <glyph glyph-name="uni1EBC" unicode="&#x1ebc;" horiz-adv-x="626" 
d="M70 656q0 19 14 31.5t34 12.5h443q0 -42 -17 -62t-53 -20h-327v-224h280q0 -42 -17 -62t-52 -20h-211v-230h348q35 0 52 -20t17 -62h-463q-20 0 -34 12.5t-14 31.5v612zM166.5 780.5q-13.5 16.5 -13.5 41.5q0 34 24 55t61 21q26 0 45 -9.5t44 -28.5q17 -13 27.5 -19
t21.5 -6q15 0 22.5 7t7.5 19q0 14 -8 32q10 5 22 5q20 0 34 -17t14 -41q0 -35 -23 -55.5t-59 -20.5q-23 0 -41 9.5t-43 28.5q-17 14 -30 21t-25 7q-15 0 -23.5 -8t-8.5 -22q0 -17 8 -31q-12 -5 -22 -5q-21 0 -34.5 16.5z" />
    <glyph glyph-name="F" unicode="F" horiz-adv-x="599" 
d="M70 656q0 19 14 31.5t34 12.5h446q0 -42 -17 -62t-52 -20h-331v-219h280q0 -42 -17 -62t-52 -20h-211v-250q0 -39 -23 -57.5t-71 -18.5v665z" />
    <glyph glyph-name="G" unicode="G" horiz-adv-x="694" 
d="M200 22.5q-66 31.5 -103 88t-37 128.5v224q0 72 36.5 128t101.5 87t149 31t149 -26.5t101.5 -73.5t36.5 -107q0 -30 -20 -47t-53 -17q-7 0 -21 2q2 12 2 38q0 43 -24.5 77t-69 53t-101.5 19q-56 0 -100 -20.5t-68.5 -58t-24.5 -85.5v-224q0 -48 25 -86t70 -59t102 -21
q56 0 100.5 19t69 54t24.5 79v56h-126q-31 0 -50 21.5t-19 56.5h244q20 0 32.5 -12t12.5 -32v-91q0 -68 -36.5 -121t-102 -82.5t-149.5 -29.5q-85 0 -151 31.5z" />
    <glyph glyph-name="Gbreve" unicode="&#x11e;" horiz-adv-x="694" 
d="M200 22.5q-66 31.5 -103 88t-37 128.5v224q0 72 36.5 128t101.5 87t149 31t149 -26.5t101.5 -73.5t36.5 -107q0 -30 -20 -47t-53 -17q-7 0 -21 2q2 12 2 38q0 43 -24.5 77t-69 53t-101.5 19q-56 0 -100 -20.5t-68.5 -58t-24.5 -85.5v-224q0 -48 25 -86t70 -59t102 -21
q56 0 100.5 19t69 54t24.5 79v56h-126q-31 0 -50 21.5t-19 56.5h244q20 0 32.5 -12t12.5 -32v-91q0 -68 -36.5 -121t-102 -82.5t-149.5 -29.5q-85 0 -151 31.5zM262 777q-39 16 -63 45.5t-24 67.5q0 62 76 62q0 -60 22 -89.5t69 -29.5t69 29.5t22 89.5q76 0 76 -62
q0 -38 -24 -67.5t-63 -45.5t-80 -16t-80 16z" />
    <glyph glyph-name="Gcaron" unicode="&#x1e6;" horiz-adv-x="694" 
d="M200 22.5q-66 31.5 -103 88t-37 128.5v224q0 72 36.5 128t101.5 87t149 31t149 -26.5t101.5 -73.5t36.5 -107q0 -30 -20 -47t-53 -17q-7 0 -21 2q2 12 2 38q0 43 -24.5 77t-69 53t-101.5 19q-56 0 -100 -20.5t-68.5 -58t-24.5 -85.5v-224q0 -48 25 -86t70 -59t102 -21
q56 0 100.5 19t69 54t24.5 79v56h-126q-31 0 -50 21.5t-19 56.5h244q20 0 32.5 -12t12.5 -32v-91q0 -68 -36.5 -121t-102 -82.5t-149.5 -29.5q-85 0 -151 31.5zM419 932q14 17 41 17q15 0 29 -6.5t23 -18.5l-141 -147q-11 -13 -29 -13t-29 13l-141 147q9 12 23 18.5t29 6.5
q27 0 41 -17l77 -92z" />
    <glyph glyph-name="Gcircumflex" unicode="&#x11c;" horiz-adv-x="694" 
d="M200 22.5q-66 31.5 -103 88t-37 128.5v224q0 72 36.5 128t101.5 87t149 31t149 -26.5t101.5 -73.5t36.5 -107q0 -30 -20 -47t-53 -17q-7 0 -21 2q2 12 2 38q0 43 -24.5 77t-69 53t-101.5 19q-56 0 -100 -20.5t-68.5 -58t-24.5 -85.5v-224q0 -48 25 -86t70 -59t102 -21
q56 0 100.5 19t69 54t24.5 79v56h-126q-31 0 -50 21.5t-19 56.5h244q20 0 32.5 -12t12.5 -32v-91q0 -68 -36.5 -121t-102 -82.5t-149.5 -29.5q-85 0 -151 31.5zM248 768.5q-11 -4.5 -23 -4.5q-16 0 -29.5 6.5t-22.5 18.5l141 147q11 13 29 13t29 -13l141 -147
q-9 -12 -22.5 -18.5t-29.5 -6.5q-12 0 -23 4.5t-18 12.5l-77 92l-77 -92q-7 -8 -18 -12.5z" />
    <glyph glyph-name="uni0122" unicode="&#x122;" horiz-adv-x="694" 
d="M200 22.5q-66 31.5 -103 88t-37 128.5v224q0 72 36.5 128t101.5 87t149 31t149 -26.5t101.5 -73.5t36.5 -107q0 -30 -20 -47t-53 -17q-7 0 -21 2q2 12 2 38q0 43 -24.5 77t-69 53t-101.5 19q-56 0 -100 -20.5t-68.5 -58t-24.5 -85.5v-224q0 -48 25 -86t70 -59t102 -21
q56 0 100.5 19t69 54t24.5 79v56h-126q-31 0 -50 21.5t-19 56.5h244q20 0 32.5 -12t12.5 -32v-91q0 -68 -36.5 -121t-102 -82.5t-149.5 -29.5q-85 0 -151 31.5zM355 -177q-3 -2 -9.5 -3.5t-12.5 -1.5q-29 0 -46.5 17.5t-17.5 47.5q0 31 20.5 50t51.5 19q33 0 53.5 -20.5
t20.5 -51.5q0 -63 -19 -103t-56 -74q-10 -8 -27 -8q-14 0 -23 7q65 64 65 121z" />
    <glyph glyph-name="Gdotaccent" unicode="&#x120;" horiz-adv-x="694" 
d="M200 22.5q-66 31.5 -103 88t-37 128.5v224q0 72 36.5 128t101.5 87t149 31t149 -26.5t101.5 -73.5t36.5 -107q0 -30 -20 -47t-53 -17q-7 0 -21 2q2 12 2 38q0 43 -24.5 77t-69 53t-101.5 19q-56 0 -100 -20.5t-68.5 -58t-24.5 -85.5v-224q0 -48 25 -86t70 -59t102 -21
q56 0 100.5 19t69 54t24.5 79v56h-126q-31 0 -50 21.5t-19 56.5h244q20 0 32.5 -12t12.5 -32v-91q0 -68 -36.5 -121t-102 -82.5t-149.5 -29.5q-85 0 -151 31.5zM302.5 790.5q-15.5 15.5 -15.5 38.5q0 24 15.5 39.5t40.5 15.5q24 0 39.5 -15.5t15.5 -39.5q0 -23 -15 -38.5
t-40 -15.5t-40.5 15.5z" />
    <glyph glyph-name="uni1E20" unicode="&#x1e20;" horiz-adv-x="694" 
d="M200 22.5q-66 31.5 -103 88t-37 128.5v224q0 72 36.5 128t101.5 87t149 31t149 -26.5t101.5 -73.5t36.5 -107q0 -30 -20 -47t-53 -17q-7 0 -21 2q2 12 2 38q0 43 -24.5 77t-69 53t-101.5 19q-56 0 -100 -20.5t-68.5 -58t-24.5 -85.5v-224q0 -48 25 -86t70 -59t102 -21
q56 0 100.5 19t69 54t24.5 79v56h-126q-31 0 -50 21.5t-19 56.5h244q20 0 32.5 -12t12.5 -32v-91q0 -68 -36.5 -121t-102 -82.5t-149.5 -29.5q-85 0 -151 31.5zM248 856h256q0 -71 -68 -71h-256q0 71 68 71z" />
    <glyph glyph-name="H" unicode="H" horiz-adv-x="683" 
d="M70 631q0 38 24 58t70 20v-315h355v237q0 38 24 58t70 20v-640q0 -38 -24 -58t-70 -20v320h-355v-242q0 -38 -24 -58t-70 -20v640z" />
    <glyph glyph-name="Hbar" unicode="&#x126;" horiz-adv-x="779" 
d="M744 559q0 -32 -14 -49.5t-40 -17.5h-30v-423q0 -38 -24 -58t-70 -20v320h-355v-242q0 -38 -24 -58t-70 -20v501h-82q0 33 14 50t40 17h28v72q0 38 24 58t70 20v-150h355v72q0 38 24 58t70 20v-150h84zM566 492h-355v-98h355v98z" />
    <glyph glyph-name="uni1E2A" unicode="&#x1e2a;" horiz-adv-x="683" 
d="M70 631q0 38 24 58t70 20v-315h355v237q0 38 24 58t70 20v-640q0 -38 -24 -58t-70 -20v320h-355v-242q0 -38 -24 -58t-70 -20v640zM227 -191.5q-50 31.5 -50 87.5q0 28 18 43t58 15q0 -56 21.5 -80.5t69.5 -24.5t69.5 24t21.5 81q40 0 58 -15t18 -43q0 -56 -50 -87.5
t-117 -31.5t-117 31.5z" />
    <glyph glyph-name="Hcircumflex" unicode="&#x124;" horiz-adv-x="683" 
d="M70 631q0 38 24 58t70 20v-315h355v237q0 38 24 58t70 20v-640q0 -38 -24 -58t-70 -20v320h-355v-242q0 -38 -24 -58t-70 -20v640zM249 768.5q-11 -4.5 -23 -4.5q-16 0 -29.5 6.5t-22.5 18.5l141 147q11 13 29 13t29 -13l141 -147q-9 -12 -22.5 -18.5t-29.5 -6.5
q-12 0 -23 4.5t-18 12.5l-77 92l-77 -92q-7 -8 -18 -12.5z" />
    <glyph glyph-name="uni1E24" unicode="&#x1e24;" horiz-adv-x="683" 
d="M70 631q0 38 24 58t70 20v-315h355v237q0 38 24 58t70 20v-640q0 -38 -24 -58t-70 -20v320h-355v-242q0 -38 -24 -58t-70 -20v640zM302.5 -163.5q-15.5 15.5 -15.5 38.5q0 24 15.5 39.5t40.5 15.5q24 0 39.5 -15.5t15.5 -39.5t-15.5 -39t-39.5 -15q-25 0 -40.5 15.5z" />
    <glyph glyph-name="I" unicode="I" horiz-adv-x="274" 
d="M90 631q0 37 24.5 57.5t69.5 20.5v-640q0 -37 -24.5 -57.5t-69.5 -20.5v640z" />
    <glyph glyph-name="IJ" unicode="&#x132;" horiz-adv-x="813" 
d="M90 631q0 38 25 58t69 20v-640q0 -38 -25 -58t-69 -20v640zM378 19q-56 28 -87 77.5t-31 110.5q0 30 21.5 47t53.5 17q6 0 20 -2q-3 -19 -3 -38q0 -74 39 -115t114 -41q76 0 115 42.5t39 118.5v381h-121q-72 0 -72 83h242q19 0 32 -12.5t13 -31.5v-420q0 -70 -31 -126
t-87.5 -87.5t-129.5 -31.5q-71 0 -127 28z" />
    <glyph glyph-name="Iacute" unicode="&#xcd;" horiz-adv-x="274" 
d="M90 631q0 37 24.5 57.5t69.5 20.5v-640q0 -37 -24.5 -57.5t-69.5 -20.5v640zM147 896q14 34 77 34h59l-102 -148q-8 -13 -20 -17t-38 -4l-32 1z" />
    <glyph glyph-name="Ibreve" unicode="&#x12c;" horiz-adv-x="274" 
d="M90 631q0 37 24.5 57.5t69.5 20.5v-640q0 -37 -24.5 -57.5t-69.5 -20.5v640zM58 777q-39 16 -63 45.5t-24 67.5q0 62 76 62q0 -60 22 -89.5t69 -29.5t69 29.5t22 89.5q76 0 76 -62q0 -38 -24 -67.5t-63 -45.5t-80 -16t-80 16z" />
    <glyph glyph-name="uni01CF" unicode="&#x1cf;" horiz-adv-x="274" 
d="M90 631q0 37 24.5 57.5t69.5 20.5v-640q0 -37 -24.5 -57.5t-69.5 -20.5v640zM215 932q14 17 41 17q15 0 29 -6.5t23 -18.5l-141 -147q-11 -13 -29 -13t-29 13l-141 147q9 12 23 18.5t29 6.5q27 0 41 -17l77 -92z" />
    <glyph glyph-name="Icircumflex" unicode="&#xce;" horiz-adv-x="274" 
d="M90 631q0 37 24.5 57.5t69.5 20.5v-640q0 -37 -24.5 -57.5t-69.5 -20.5v640zM44 768.5q-11 -4.5 -23 -4.5q-16 0 -29.5 6.5t-22.5 18.5l141 147q11 13 29 13t29 -13l141 -147q-9 -12 -22.5 -18.5t-29.5 -6.5q-12 0 -23 4.5t-18 12.5l-77 92l-77 -92q-7 -8 -18 -12.5z" />
    <glyph glyph-name="Idieresis" unicode="&#xcf;" horiz-adv-x="274" 
d="M90 631q0 37 24.5 57.5t69.5 20.5v-640q0 -37 -24.5 -57.5t-69.5 -20.5v640zM2.5 790q-15.5 15 -15.5 39t15.5 39.5t40.5 15.5q24 0 39 -15.5t15 -39.5q0 -23 -15 -38.5t-39 -15.5q-25 0 -40.5 15zM195.5 790.5q-15.5 15.5 -15.5 38.5q0 24 15 39.5t40 15.5t40 -15.5
t15 -39.5q0 -23 -15 -38.5t-40 -15.5q-24 0 -39.5 15.5z" />
    <glyph glyph-name="Idotaccent" unicode="&#x130;" horiz-adv-x="274" 
d="M90 631q0 37 24.5 57.5t69.5 20.5v-640q0 -37 -24.5 -57.5t-69.5 -20.5v640zM98.5 790.5q-15.5 15.5 -15.5 38.5q0 24 15.5 39.5t40.5 15.5q24 0 39.5 -15.5t15.5 -39.5q0 -23 -15 -38.5t-40 -15.5t-40.5 15.5z" />
    <glyph glyph-name="uni1ECA" unicode="&#x1eca;" horiz-adv-x="274" 
d="M90 631q0 37 24.5 57.5t69.5 20.5v-640q0 -37 -24.5 -57.5t-69.5 -20.5v640zM97.5 -159.5q-15.5 15.5 -15.5 38.5q0 24 15.5 39.5t40.5 15.5q24 0 39.5 -15.5t15.5 -39.5t-15.5 -39t-39.5 -15q-25 0 -40.5 15.5z" />
    <glyph glyph-name="Igrave" unicode="&#xcc;" horiz-adv-x="274" 
d="M90 631q0 37 24.5 57.5t69.5 20.5v-640q0 -37 -24.5 -57.5t-69.5 -20.5v640zM127 764q-17 4 -28 18l-123 148h59q58 0 77 -34l76 -134q-44 -2 -61 2z" />
    <glyph glyph-name="uni1EC8" unicode="&#x1ec8;" horiz-adv-x="274" 
d="M90 631q0 37 24.5 57.5t69.5 20.5v-640q0 -37 -24.5 -57.5t-69.5 -20.5v640zM111 793q0 17 8 29.5t23 26.5q13 11 19.5 20t6.5 21q0 27 -34 27t-34 -35q0 -12 3 -21q-31 0 -49 10.5t-18 32.5q0 30 28.5 50.5t72.5 20.5q48 0 76 -20t28 -57q0 -20 -8 -32.5t-24 -26.5
q-13 -12 -19.5 -21.5t-6.5 -22.5q0 -15 -13.5 -23.5t-33.5 -8.5q-11 0 -25 3v27z" />
    <glyph glyph-name="Imacron" unicode="&#x12a;" horiz-adv-x="274" 
d="M90 631q0 37 24.5 57.5t69.5 20.5v-640q0 -37 -24.5 -57.5t-69.5 -20.5v640zM44 856h256q0 -71 -68 -71h-256q0 71 68 71z" />
    <glyph glyph-name="Iogonek" unicode="&#x12e;" horiz-adv-x="274" 
d="M194 -127q0 -22 -21.5 -37.5t-54.5 -15.5q-41 0 -65.5 23.5t-24.5 62.5q0 30 16 57t46 46v622q0 37 24.5 57.5t69.5 20.5v-640q0 -22 -9 -39h3l-6 -4q-8 -14 -25 -23q-39 -41 -39 -84q0 -20 11 -31.5t30 -11.5q25 0 40 19q5 -13 5 -22z" />
    <glyph glyph-name="Itilde" unicode="&#x128;" horiz-adv-x="274" 
d="M90 631q0 37 24.5 57.5t69.5 20.5v-640q0 -37 -24.5 -57.5t-69.5 -20.5v640zM-6.5 780.5q-13.5 16.5 -13.5 41.5q0 34 24 55t61 21q26 0 45 -9.5t44 -28.5q17 -13 27.5 -19t21.5 -6q15 0 22.5 7t7.5 19q0 14 -8 32q10 5 22 5q20 0 34 -17t14 -41q0 -35 -23 -55.5
t-59 -20.5q-23 0 -41 9.5t-43 28.5q-17 14 -30 21t-25 7q-15 0 -23.5 -8t-8.5 -22q0 -17 8 -31q-12 -5 -22 -5q-21 0 -34.5 16.5z" />
    <glyph glyph-name="J" unicode="J" horiz-adv-x="610" 
d="M167.5 19q-57.5 28 -90 77.5t-32.5 110.5q0 32 25.5 47t69.5 15q-3 -18 -3 -38q0 -74 42 -115t117 -41q76 0 118 42.5t42 118.5v381h-121q-72 0 -72 83h242q19 0 32 -12.5t13 -31.5v-420q0 -70 -32.5 -126t-90.5 -87.5t-131 -31.5q-71 0 -128.5 28z" />
    <glyph glyph-name="Jcircumflex" unicode="&#x134;" horiz-adv-x="610" 
d="M167.5 19q-57.5 28 -90 77.5t-32.5 110.5q0 32 25.5 47t69.5 15q-3 -18 -3 -38q0 -74 42 -115t117 -41q76 0 118 42.5t42 118.5v381h-121q-72 0 -72 83h242q19 0 32 -12.5t13 -31.5v-420q0 -70 -32.5 -126t-90.5 -87.5t-131 -31.5q-71 0 -128.5 28zM295 768.5
q-11 -4.5 -23 -4.5q-16 0 -29.5 6.5t-22.5 18.5l141 147q11 13 29 13t29 -13l141 -147q-9 -12 -22.5 -18.5t-29.5 -6.5q-12 0 -23 4.5t-18 12.5l-77 92l-77 -92q-7 -8 -18 -12.5z" />
    <glyph glyph-name="K" unicode="K" horiz-adv-x="651" 
d="M70 631q0 37 25 57.5t69 20.5v-343l365 343q17 -14 28 -29.5t11 -27.5q0 -25 -30 -53l-234 -220l302 -362q-11 -12 -25.5 -19t-28.5 -7q-39 0 -63 28l-253 300l-72 -67v-186q0 -38 -23 -56.5t-71 -18.5v640z" />
    <glyph glyph-name="uni0136" unicode="&#x136;" horiz-adv-x="651" 
d="M70 631q0 37 25 57.5t69 20.5v-343l365 343q17 -14 28 -29.5t11 -27.5q0 -25 -30 -53l-234 -220l302 -362q-11 -12 -25.5 -19t-28.5 -7q-39 0 -63 28l-253 300l-72 -67v-186q0 -38 -23 -56.5t-71 -18.5v640zM335 -177q-3 -2 -9.5 -3.5t-12.5 -1.5q-29 0 -46.5 17.5
t-17.5 47.5q0 31 20.5 50t51.5 19q33 0 53.5 -20.5t20.5 -51.5q0 -63 -19 -103t-56 -74q-10 -8 -27 -8q-14 0 -23 7q65 64 65 121z" />
    <glyph glyph-name="L" unicode="L" horiz-adv-x="579" 
d="M84.5 14.5q-14.5 14.5 -14.5 34.5v582q0 78 94 78v-626h307q35 0 54 -21.5t19 -61.5h-425q-20 0 -34.5 14.5z" />
    <glyph glyph-name="Lacute" unicode="&#x139;" horiz-adv-x="579" 
d="M84.5 14.5q-14.5 14.5 -14.5 34.5v582q0 78 94 78v-626h307q35 0 54 -21.5t19 -61.5h-425q-20 0 -34.5 14.5zM142 896q14 34 77 34h59l-102 -148q-8 -13 -20 -17t-38 -4l-32 1z" />
    <glyph glyph-name="Lcaron" unicode="&#x13d;" horiz-adv-x="616" 
d="M84.5 14.5q-14.5 14.5 -14.5 34.5v582q0 78 94 78v-626h307q35 0 54 -21.5t19 -61.5h-425q-20 0 -34.5 14.5zM444.5 585.5q16.5 31.5 16.5 58.5q-4 -2 -10 -3.5t-12 -1.5q-29 0 -46.5 17.5t-17.5 46.5q0 31 20 50.5t52 19.5q33 0 53.5 -21t20.5 -52q0 -62 -19 -102
t-56 -74q-10 -8 -28 -8q-15 0 -22 6q32 32 48.5 63.5z" />
    <glyph glyph-name="uni013B" unicode="&#x13b;" horiz-adv-x="579" 
d="M84.5 14.5q-14.5 14.5 -14.5 34.5v582q0 78 94 78v-626h307q35 0 54 -21.5t19 -61.5h-425q-20 0 -34.5 14.5zM320 -177q-3 -2 -9.5 -3.5t-12.5 -1.5q-29 0 -46.5 17.5t-17.5 47.5q0 31 20.5 50t51.5 19q33 0 53.5 -20.5t20.5 -51.5q0 -63 -19 -103t-56 -74q-10 -8 -27 -8
q-14 0 -23 7q65 64 65 121z" />
    <glyph glyph-name="Ldot" unicode="&#x13f;" horiz-adv-x="579" 
d="M84.5 14.5q-14.5 14.5 -14.5 34.5v582q0 78 94 78v-626h307q35 0 54 -21.5t19 -61.5h-425q-20 0 -34.5 14.5zM304 245.5q-19 18.5 -19 46.5t19 47t47 19q27 0 47 -19.5t20 -46.5t-20 -46t-47 -19q-28 0 -47 18.5z" />
    <glyph glyph-name="uni1E36" unicode="&#x1e36;" horiz-adv-x="579" 
d="M84.5 14.5q-14.5 14.5 -14.5 34.5v582q0 78 94 78v-626h307q35 0 54 -21.5t19 -61.5h-425q-20 0 -34.5 14.5zM266.5 -159.5q-15.5 15.5 -15.5 38.5q0 24 15.5 39.5t40.5 15.5q24 0 39.5 -15.5t15.5 -39.5t-15.5 -39t-39.5 -15q-25 0 -40.5 15.5z" />
    <glyph glyph-name="uni1E38" unicode="&#x1e38;" horiz-adv-x="579" 
d="M84.5 14.5q-14.5 14.5 -14.5 34.5v582q0 78 94 78v-626h307q35 0 54 -21.5t19 -61.5h-425q-20 0 -34.5 14.5zM39 856h256q0 -71 -68 -71h-256q0 71 68 71zM266.5 -159.5q-15.5 15.5 -15.5 38.5q0 24 15.5 39.5t40.5 15.5q24 0 39.5 -15.5t15.5 -39.5t-15.5 -39t-39.5 -15
q-25 0 -40.5 15.5z" />
    <glyph glyph-name="uni1E3A" unicode="&#x1e3a;" horiz-adv-x="579" 
d="M84.5 14.5q-14.5 14.5 -14.5 34.5v582q0 78 94 78v-626h307q35 0 54 -21.5t19 -61.5h-425q-20 0 -34.5 14.5zM213 -57h256q0 -71 -68 -71h-256q0 71 68 71z" />
    <glyph glyph-name="Lslash" unicode="&#x141;" horiz-adv-x="625" 
d="M571 61.5q19 -21.5 19 -61.5h-425q-20 0 -34.5 14.5t-14.5 34.5v237l-68 -42q-13 19 -13 39q0 30 24 44l57 35v269q0 78 94 78v-288l107 66q13 -20 13 -41q0 -28 -23 -43l-97 -60v-260h307q35 0 54 -21.5z" />
    <glyph glyph-name="M" unicode="M" horiz-adv-x="815" 
d="M70 631q0 37 25 57.5t69 20.5l242 -581l-19 -47l7 -3l256 631q44 0 69.5 -21t25.5 -58v-639q-93 0 -93 77v421l26 69l-8 2l-223 -542q-5 -12 -16 -19.5t-23 -7.5q-13 0 -24 7t-16 20l-223 543l-8 -3l26 -68v-422q0 -38 -23.5 -57.5t-69.5 -19.5v640z" />
    <glyph glyph-name="uni1E42" unicode="&#x1e42;" horiz-adv-x="815" 
d="M70 631q0 37 25 57.5t69 20.5l242 -581l-19 -47l7 -3l256 631q44 0 69.5 -21t25.5 -58v-639q-93 0 -93 77v421l26 69l-8 2l-223 -542q-5 -12 -16 -19.5t-23 -7.5q-13 0 -24 7t-16 20l-223 543l-8 -3l26 -68v-422q0 -38 -23.5 -57.5t-69.5 -19.5v640zM365.5 -159.5
q-15.5 15.5 -15.5 38.5q0 24 15.5 39.5t40.5 15.5q24 0 39.5 -15.5t15.5 -39.5t-15.5 -39t-39.5 -15q-25 0 -40.5 15.5z" />
    <glyph glyph-name="N" unicode="N" horiz-adv-x="688" 
d="M70 628q0 38 23.5 59.5t65.5 21.5l388 -590l7 6l-29 48v536q46 0 69.5 -20t23.5 -58v-566q0 -32 -22.5 -53t-57.5 -21l-397 603l-7 -6l29 -48v-471q0 -38 -23.5 -58t-69.5 -20v637z" />
    <glyph glyph-name="Nacute" unicode="&#x143;" horiz-adv-x="688" 
d="M70 628q0 38 23.5 59.5t65.5 21.5l388 -590l7 6l-29 48v536q46 0 69.5 -20t23.5 -58v-566q0 -32 -22.5 -53t-57.5 -21l-397 603l-7 -6l29 -48v-471q0 -38 -23.5 -58t-69.5 -20v637zM355 896q14 34 77 34h59l-102 -148q-8 -13 -20 -17t-38 -4l-32 1z" />
    <glyph glyph-name="Ncaron" unicode="&#x147;" horiz-adv-x="688" 
d="M70 628q0 38 23.5 59.5t65.5 21.5l388 -590l7 6l-29 48v536q46 0 69.5 -20t23.5 -58v-566q0 -32 -22.5 -53t-57.5 -21l-397 603l-7 -6l29 -48v-471q0 -38 -23.5 -58t-69.5 -20v637zM423 932q14 17 41 17q15 0 29 -6.5t23 -18.5l-141 -147q-11 -13 -29 -13t-29 13
l-141 147q9 12 23 18.5t29 6.5q27 0 41 -17l77 -92z" />
    <glyph glyph-name="uni0145" unicode="&#x145;" horiz-adv-x="688" 
d="M70 628q0 38 23.5 59.5t65.5 21.5l388 -590l7 6l-29 48v536q46 0 69.5 -20t23.5 -58v-566q0 -32 -22.5 -53t-57.5 -21l-397 603l-7 -6l29 -48v-471q0 -38 -23.5 -58t-69.5 -20v637zM359 -177q-3 -2 -9.5 -3.5t-12.5 -1.5q-29 0 -46.5 17.5t-17.5 47.5q0 31 20.5 50
t51.5 19q33 0 53.5 -20.5t20.5 -51.5q0 -63 -19 -103t-56 -74q-10 -8 -27 -8q-14 0 -23 7q65 64 65 121z" />
    <glyph glyph-name="uni1E44" unicode="&#x1e44;" horiz-adv-x="688" 
d="M70 628q0 38 23.5 59.5t65.5 21.5l388 -590l7 6l-29 48v536q46 0 69.5 -20t23.5 -58v-566q0 -32 -22.5 -53t-57.5 -21l-397 603l-7 -6l29 -48v-471q0 -38 -23.5 -58t-69.5 -20v637zM306.5 790.5q-15.5 15.5 -15.5 38.5q0 24 15.5 39.5t40.5 15.5q24 0 39.5 -15.5
t15.5 -39.5q0 -23 -15 -38.5t-40 -15.5t-40.5 15.5z" />
    <glyph glyph-name="uni1E46" unicode="&#x1e46;" horiz-adv-x="688" 
d="M70 628q0 38 23.5 59.5t65.5 21.5l388 -590l7 6l-29 48v536q46 0 69.5 -20t23.5 -58v-566q0 -32 -22.5 -53t-57.5 -21l-397 603l-7 -6l29 -48v-471q0 -38 -23.5 -58t-69.5 -20v637zM305.5 -159.5q-15.5 15.5 -15.5 38.5q0 24 15.5 39.5t40.5 15.5q24 0 39.5 -15.5
t15.5 -39.5t-15.5 -39t-39.5 -15q-25 0 -40.5 15.5z" />
    <glyph glyph-name="Eng" unicode="&#x14a;" horiz-adv-x="688" 
d="M287 -247q-48 19 -75 53t-27 76q0 28 20.5 45.5t53.5 17.5q7 0 21 -2q-3 -20 -3 -37q0 -41 31.5 -64.5t87.5 -23.5q68 0 98 36t30 118v41l-383 581l-7 -6l29 -48v-471q0 -38 -23.5 -58t-69.5 -20v637q0 38 23.5 59.5t65.5 21.5l366 -555v555q46 0 69.5 -20t23.5 -58v-659
q0 -112 -59 -175t-163 -63q-61 0 -109 19z" />
    <glyph glyph-name="uni1E48" unicode="&#x1e48;" horiz-adv-x="688" 
d="M70 628q0 38 23.5 59.5t65.5 21.5l388 -590l7 6l-29 48v536q46 0 69.5 -20t23.5 -58v-566q0 -32 -22.5 -53t-57.5 -21l-397 603l-7 -6l29 -48v-471q0 -38 -23.5 -58t-69.5 -20v637zM252 -57h256q0 -71 -68 -71h-256q0 71 68 71z" />
    <glyph glyph-name="Ntilde" unicode="&#xd1;" horiz-adv-x="688" 
d="M70 628q0 38 23.5 59.5t65.5 21.5l388 -590l7 6l-29 48v536q46 0 69.5 -20t23.5 -58v-566q0 -32 -22.5 -53t-57.5 -21l-397 603l-7 -6l29 -48v-471q0 -38 -23.5 -58t-69.5 -20v637zM201.5 780.5q-13.5 16.5 -13.5 41.5q0 34 24 55t61 21q26 0 45 -9.5t44 -28.5
q17 -13 27.5 -19t21.5 -6q15 0 22.5 7t7.5 19q0 14 -8 32q10 5 22 5q20 0 34 -17t14 -41q0 -35 -23 -55.5t-59 -20.5q-23 0 -41 9.5t-43 28.5q-17 14 -30 21t-25 7q-15 0 -23.5 -8t-8.5 -22q0 -17 8 -31q-12 -5 -22 -5q-21 0 -34.5 16.5z" />
    <glyph glyph-name="O" unicode="O" horiz-adv-x="667" 
d="M184.5 23.5q-65.5 32.5 -102.5 90t-37 127.5v220q0 70 37 126.5t102.5 89t148.5 32.5q84 0 149.5 -32.5t102.5 -89t37 -126.5v-220q0 -70 -37 -127.5t-103 -90t-149 -32.5t-148.5 32.5zM478 119q52 46 52 123v217q0 77 -52 122.5t-145 45.5q-92 0 -144 -45.5t-52 -122.5
v-217q0 -77 52 -123t144 -46q93 0 145 46z" />
    <glyph glyph-name="Oacute" unicode="&#xd3;" horiz-adv-x="667" 
d="M184.5 23.5q-65.5 32.5 -102.5 90t-37 127.5v220q0 70 37 126.5t102.5 89t148.5 32.5q84 0 149.5 -32.5t102.5 -89t37 -126.5v-220q0 -70 -37 -127.5t-103 -90t-149 -32.5t-148.5 32.5zM478 119q52 46 52 123v217q0 77 -52 122.5t-145 45.5q-92 0 -144 -45.5t-52 -122.5
v-217q0 -77 52 -123t144 -46q93 0 145 46zM342 896q14 34 77 34h59l-102 -148q-8 -13 -20 -17t-38 -4l-32 1z" />
    <glyph glyph-name="Obreve" unicode="&#x14e;" horiz-adv-x="667" 
d="M184.5 23.5q-65.5 32.5 -102.5 90t-37 127.5v220q0 70 37 126.5t102.5 89t148.5 32.5q84 0 149.5 -32.5t102.5 -89t37 -126.5v-220q0 -70 -37 -127.5t-103 -90t-149 -32.5t-148.5 32.5zM478 119q52 46 52 123v217q0 77 -52 122.5t-145 45.5q-92 0 -144 -45.5t-52 -122.5
v-217q0 -77 52 -123t144 -46q93 0 145 46zM253 777q-39 16 -63 45.5t-24 67.5q0 62 76 62q0 -60 22 -89.5t69 -29.5t69 29.5t22 89.5q76 0 76 -62q0 -38 -24 -67.5t-63 -45.5t-80 -16t-80 16z" />
    <glyph glyph-name="uni01D1" unicode="&#x1d1;" horiz-adv-x="667" 
d="M184.5 23.5q-65.5 32.5 -102.5 90t-37 127.5v220q0 70 37 126.5t102.5 89t148.5 32.5q84 0 149.5 -32.5t102.5 -89t37 -126.5v-220q0 -70 -37 -127.5t-103 -90t-149 -32.5t-148.5 32.5zM478 119q52 46 52 123v217q0 77 -52 122.5t-145 45.5q-92 0 -144 -45.5t-52 -122.5
v-217q0 -77 52 -123t144 -46q93 0 145 46zM410 932q14 17 41 17q15 0 29 -6.5t23 -18.5l-141 -147q-11 -13 -29 -13t-29 13l-141 147q9 12 23 18.5t29 6.5q27 0 41 -17l77 -92z" />
    <glyph glyph-name="Ocircumflex" unicode="&#xd4;" horiz-adv-x="667" 
d="M184.5 23.5q-65.5 32.5 -102.5 90t-37 127.5v220q0 70 37 126.5t102.5 89t148.5 32.5q84 0 149.5 -32.5t102.5 -89t37 -126.5v-220q0 -70 -37 -127.5t-103 -90t-149 -32.5t-148.5 32.5zM478 119q52 46 52 123v217q0 77 -52 122.5t-145 45.5q-92 0 -144 -45.5t-52 -122.5
v-217q0 -77 52 -123t144 -46q93 0 145 46zM239 768.5q-11 -4.5 -23 -4.5q-16 0 -29.5 6.5t-22.5 18.5l141 147q11 13 29 13t29 -13l141 -147q-9 -12 -22.5 -18.5t-29.5 -6.5q-12 0 -23 4.5t-18 12.5l-77 92l-77 -92q-7 -8 -18 -12.5z" />
    <glyph glyph-name="uni1ED0" unicode="&#x1ed0;" horiz-adv-x="667" 
d="M184.5 23.5q-65.5 32.5 -102.5 90t-37 127.5v220q0 70 37 126.5t102.5 89t148.5 32.5q84 0 149.5 -32.5t102.5 -89t37 -126.5v-220q0 -70 -37 -127.5t-103 -90t-149 -32.5t-148.5 32.5zM478 119q52 46 52 123v217q0 77 -52 122.5t-145 45.5q-92 0 -144 -45.5t-52 -122.5
v-217q0 -77 52 -123t144 -46q93 0 145 46zM468 1027q7 16 24 23t45 7h41l-85 -118q-8 -11 -18.5 -15.5t-31.5 -4.5q-16 0 -26 1zM255 781q-14 -17 -41 -17q-16 0 -30 6.5t-22 18.5l141 147q11 13 29 13t29 -13l141 -147q-9 -12 -23 -18.5t-29 -6.5q-27 0 -41 17l-77 92z" />
    <glyph glyph-name="uni1ED8" unicode="&#x1ed8;" horiz-adv-x="667" 
d="M184.5 23.5q-65.5 32.5 -102.5 90t-37 127.5v220q0 70 37 126.5t102.5 89t148.5 32.5q84 0 149.5 -32.5t102.5 -89t37 -126.5v-220q0 -70 -37 -127.5t-103 -90t-149 -32.5t-148.5 32.5zM478 119q52 46 52 123v217q0 77 -52 122.5t-145 45.5q-92 0 -144 -45.5t-52 -122.5
v-217q0 -77 52 -123t144 -46q93 0 145 46zM292.5 -159.5q-15.5 15.5 -15.5 38.5q0 24 15.5 39.5t40.5 15.5q24 0 39.5 -15.5t15.5 -39.5t-15.5 -39t-39.5 -15q-25 0 -40.5 15.5zM239 768.5q-11 -4.5 -23 -4.5q-16 0 -29.5 6.5t-22.5 18.5l141 147q11 13 29 13t29 -13
l141 -147q-9 -12 -22.5 -18.5t-29.5 -6.5q-12 0 -23 4.5t-18 12.5l-77 92l-77 -92q-7 -8 -18 -12.5z" />
    <glyph glyph-name="uni1ED2" unicode="&#x1ed2;" horiz-adv-x="667" 
d="M184.5 23.5q-65.5 32.5 -102.5 90t-37 127.5v220q0 70 37 126.5t102.5 89t148.5 32.5q84 0 149.5 -32.5t102.5 -89t37 -126.5v-220q0 -70 -37 -127.5t-103 -90t-149 -32.5t-148.5 32.5zM478 119q52 46 52 123v217q0 77 -52 122.5t-145 45.5q-92 0 -144 -45.5t-52 -122.5
v-217q0 -77 52 -123t144 -46q93 0 145 46zM482 919q-19 0 -29.5 4.5t-18.5 15.5l-78 118h42q28 0 44.5 -7t23.5 -23l44 -107q-11 -1 -28 -1zM255 781q-14 -17 -41 -17q-16 0 -30 6.5t-22 18.5l141 147q11 13 29 13t29 -13l141 -147q-9 -12 -23 -18.5t-29 -6.5q-27 0 -41 17
l-77 92z" />
    <glyph glyph-name="uni1ED4" unicode="&#x1ed4;" horiz-adv-x="667" 
d="M184.5 23.5q-65.5 32.5 -102.5 90t-37 127.5v220q0 70 37 126.5t102.5 89t148.5 32.5q84 0 149.5 -32.5t102.5 -89t37 -126.5v-220q0 -70 -37 -127.5t-103 -90t-149 -32.5t-148.5 32.5zM478 119q52 46 52 123v217q0 77 -52 122.5t-145 45.5q-92 0 -144 -45.5t-52 -122.5
v-217q0 -77 52 -123t144 -46q93 0 145 46zM436 919q0 15 7 25.5t21 23.5q2 2 8.5 9t10 14t3.5 14q0 10 -8.5 16t-23.5 6q-31 0 -31 -30q0 -12 2 -17q-28 0 -44 9t-16 28q0 26 26.5 44.5t65.5 18.5q42 0 68 -18.5t26 -50.5q0 -17 -7 -28t-20 -23q-11 -10 -17 -19t-6 -20
q0 -14 -12 -21.5t-30 -7.5q-11 0 -23 3v24zM255 781q-14 -17 -41 -17q-16 0 -30 6.5t-22 18.5l141 147q11 13 29 13t29 -13l141 -147q-9 -12 -23 -18.5t-29 -6.5q-27 0 -41 17l-77 92z" />
    <glyph glyph-name="uni1ED6" unicode="&#x1ed6;" horiz-adv-x="667" 
d="M184.5 23.5q-65.5 32.5 -102.5 90t-37 127.5v220q0 70 37 126.5t102.5 89t148.5 32.5q84 0 149.5 -32.5t102.5 -89t37 -126.5v-220q0 -70 -37 -127.5t-103 -90t-149 -32.5t-148.5 32.5zM478 119q52 46 52 123v217q0 77 -52 122.5t-145 45.5q-92 0 -144 -45.5t-52 -122.5
v-217q0 -77 52 -123t144 -46q93 0 145 46zM207.5 981q-12.5 15 -12.5 38q0 32 22 51.5t56 19.5q24 0 41.5 -8.5t40.5 -25.5q27 -22 45 -22q27 0 27 23q0 12 -8 28q10 5 20 5q19 0 32 -16t13 -38q0 -32 -21 -50t-54 -18q-21 0 -37.5 8.5t-39.5 25.5q-18 13 -29 19t-22 6
q-13 0 -20.5 -8t-7.5 -21q0 -14 6 -28q-12 -4 -19 -4q-20 0 -32.5 15zM214 764q-16 0 -30 6.5t-22 18.5l141 147q11 13 29 13t29 -13l141 -147q-9 -12 -23 -18.5t-29 -6.5q-27 0 -41 17l-77 92l-77 -92q-14 -17 -41 -17z" />
    <glyph glyph-name="Odieresis" unicode="&#xd6;" horiz-adv-x="667" 
d="M184.5 23.5q-65.5 32.5 -102.5 90t-37 127.5v220q0 70 37 126.5t102.5 89t148.5 32.5q84 0 149.5 -32.5t102.5 -89t37 -126.5v-220q0 -70 -37 -127.5t-103 -90t-149 -32.5t-148.5 32.5zM478 119q52 46 52 123v217q0 77 -52 122.5t-145 45.5q-92 0 -144 -45.5t-52 -122.5
v-217q0 -77 52 -123t144 -46q93 0 145 46zM197.5 790q-15.5 15 -15.5 39t15.5 39.5t40.5 15.5q24 0 39 -15.5t15 -39.5q0 -23 -15 -38.5t-39 -15.5q-25 0 -40.5 15zM390.5 790.5q-15.5 15.5 -15.5 38.5q0 24 15 39.5t40 15.5t40 -15.5t15 -39.5q0 -23 -15 -38.5t-40 -15.5
q-24 0 -39.5 15.5z" />
    <glyph glyph-name="uni1ECC" unicode="&#x1ecc;" horiz-adv-x="667" 
d="M184.5 23.5q-65.5 32.5 -102.5 90t-37 127.5v220q0 70 37 126.5t102.5 89t148.5 32.5q84 0 149.5 -32.5t102.5 -89t37 -126.5v-220q0 -70 -37 -127.5t-103 -90t-149 -32.5t-148.5 32.5zM478 119q52 46 52 123v217q0 77 -52 122.5t-145 45.5q-92 0 -144 -45.5t-52 -122.5
v-217q0 -77 52 -123t144 -46q93 0 145 46zM292.5 -159.5q-15.5 15.5 -15.5 38.5q0 24 15.5 39.5t40.5 15.5q24 0 39.5 -15.5t15.5 -39.5t-15.5 -39t-39.5 -15q-25 0 -40.5 15.5z" />
    <glyph glyph-name="Ograve" unicode="&#xd2;" horiz-adv-x="667" 
d="M184.5 23.5q-65.5 32.5 -102.5 90t-37 127.5v220q0 70 37 126.5t102.5 89t148.5 32.5q84 0 149.5 -32.5t102.5 -89t37 -126.5v-220q0 -70 -37 -127.5t-103 -90t-149 -32.5t-148.5 32.5zM478 119q52 46 52 123v217q0 77 -52 122.5t-145 45.5q-92 0 -144 -45.5t-52 -122.5
v-217q0 -77 52 -123t144 -46q93 0 145 46zM322 764q-17 4 -28 18l-123 148h59q58 0 77 -34l76 -134q-44 -2 -61 2z" />
    <glyph glyph-name="uni1ECE" unicode="&#x1ece;" horiz-adv-x="667" 
d="M184.5 23.5q-65.5 32.5 -102.5 90t-37 127.5v220q0 70 37 126.5t102.5 89t148.5 32.5q84 0 149.5 -32.5t102.5 -89t37 -126.5v-220q0 -70 -37 -127.5t-103 -90t-149 -32.5t-148.5 32.5zM478 119q52 46 52 123v217q0 77 -52 122.5t-145 45.5q-92 0 -144 -45.5t-52 -122.5
v-217q0 -77 52 -123t144 -46q93 0 145 46zM306 793q0 17 8 29.5t23 26.5q13 11 19.5 20t6.5 21q0 27 -34 27t-34 -35q0 -12 3 -21q-31 0 -49 10.5t-18 32.5q0 30 28.5 50.5t72.5 20.5q48 0 76 -20t28 -57q0 -20 -8 -32.5t-24 -26.5q-13 -12 -19.5 -21.5t-6.5 -22.5
q0 -15 -13.5 -23.5t-33.5 -8.5q-11 0 -25 3v27z" />
    <glyph glyph-name="Ohorn" unicode="&#x1a0;" horiz-adv-x="697" 
d="M702 594.5q-29 -37.5 -93 -56.5q13 -35 13 -77v-220q0 -70 -37 -127.5t-103 -90t-149 -32.5t-148.5 32.5t-102.5 90t-37 127.5v220q0 70 37 126.5t102.5 89t148.5 32.5t148 -31.5t102 -87.5q30 12 44.5 30t19 46t4.5 80q80 2 80 -65q0 -49 -29 -86.5zM530 459
q0 77 -52 122.5t-145 45.5q-92 0 -144 -45.5t-52 -122.5v-217q0 -77 52 -123t144 -46q93 0 145 46t52 123v217z" />
    <glyph glyph-name="uni1EDA" unicode="&#x1eda;" horiz-adv-x="697" 
d="M702 594.5q-29 -37.5 -93 -56.5q13 -35 13 -77v-220q0 -70 -37 -127.5t-103 -90t-149 -32.5t-148.5 32.5t-102.5 90t-37 127.5v220q0 70 37 126.5t102.5 89t148.5 32.5t148 -31.5t102 -87.5q30 12 44.5 30t19 46t4.5 80q80 2 80 -65q0 -49 -29 -86.5zM530 459
q0 77 -52 122.5t-145 45.5q-92 0 -144 -45.5t-52 -122.5v-217q0 -77 52 -123t144 -46q93 0 145 46t52 123v217zM343 896q14 34 77 34h59l-102 -148q-8 -13 -20 -17t-38 -4l-32 1z" />
    <glyph glyph-name="uni1EE2" unicode="&#x1ee2;" horiz-adv-x="697" 
d="M702 594.5q-29 -37.5 -93 -56.5q13 -35 13 -77v-220q0 -70 -37 -127.5t-103 -90t-149 -32.5t-148.5 32.5t-102.5 90t-37 127.5v220q0 70 37 126.5t102.5 89t148.5 32.5t148 -31.5t102 -87.5q30 12 44.5 30t19 46t4.5 80q80 2 80 -65q0 -49 -29 -86.5zM530 459
q0 77 -52 122.5t-145 45.5q-92 0 -144 -45.5t-52 -122.5v-217q0 -77 52 -123t144 -46q93 0 145 46t52 123v217zM293.5 -159.5q-15.5 15.5 -15.5 38.5q0 24 15.5 39.5t40.5 15.5q24 0 39.5 -15.5t15.5 -39.5t-15.5 -39t-39.5 -15q-25 0 -40.5 15.5z" />
    <glyph glyph-name="uni1EDC" unicode="&#x1edc;" horiz-adv-x="697" 
d="M702 594.5q-29 -37.5 -93 -56.5q13 -35 13 -77v-220q0 -70 -37 -127.5t-103 -90t-149 -32.5t-148.5 32.5t-102.5 90t-37 127.5v220q0 70 37 126.5t102.5 89t148.5 32.5t148 -31.5t102 -87.5q30 12 44.5 30t19 46t4.5 80q80 2 80 -65q0 -49 -29 -86.5zM530 459
q0 77 -52 122.5t-145 45.5q-92 0 -144 -45.5t-52 -122.5v-217q0 -77 52 -123t144 -46q93 0 145 46t52 123v217zM323 764q-17 4 -28 18l-123 148h59q58 0 77 -34l76 -134q-44 -2 -61 2z" />
    <glyph glyph-name="uni1EDE" unicode="&#x1ede;" horiz-adv-x="697" 
d="M702 594.5q-29 -37.5 -93 -56.5q13 -35 13 -77v-220q0 -70 -37 -127.5t-103 -90t-149 -32.5t-148.5 32.5t-102.5 90t-37 127.5v220q0 70 37 126.5t102.5 89t148.5 32.5t148 -31.5t102 -87.5q30 12 44.5 30t19 46t4.5 80q80 2 80 -65q0 -49 -29 -86.5zM530 459
q0 77 -52 122.5t-145 45.5q-92 0 -144 -45.5t-52 -122.5v-217q0 -77 52 -123t144 -46q93 0 145 46t52 123v217zM307 793q0 17 8 29.5t23 26.5q13 11 19.5 20t6.5 21q0 27 -34 27t-34 -35q0 -12 3 -21q-31 0 -49 10.5t-18 32.5q0 30 28.5 50.5t72.5 20.5q48 0 76 -20t28 -57
q0 -20 -8 -32.5t-24 -26.5q-13 -12 -19.5 -21.5t-6.5 -22.5q0 -15 -13.5 -23.5t-33.5 -8.5q-11 0 -25 3v27z" />
    <glyph glyph-name="uni1EE0" unicode="&#x1ee0;" horiz-adv-x="697" 
d="M702 594.5q-29 -37.5 -93 -56.5q13 -35 13 -77v-220q0 -70 -37 -127.5t-103 -90t-149 -32.5t-148.5 32.5t-102.5 90t-37 127.5v220q0 70 37 126.5t102.5 89t148.5 32.5t148 -31.5t102 -87.5q30 12 44.5 30t19 46t4.5 80q80 2 80 -65q0 -49 -29 -86.5zM530 459
q0 77 -52 122.5t-145 45.5q-92 0 -144 -45.5t-52 -122.5v-217q0 -77 52 -123t144 -46q93 0 145 46t52 123v217zM189.5 780.5q-13.5 16.5 -13.5 41.5q0 34 24 55t61 21q26 0 45 -9.5t44 -28.5q17 -13 27.5 -19t21.5 -6q15 0 22.5 7t7.5 19q0 14 -8 32q10 5 22 5q20 0 34 -17
t14 -41q0 -35 -23 -55.5t-59 -20.5q-23 0 -41 9.5t-43 28.5q-17 14 -30 21t-25 7q-15 0 -23.5 -8t-8.5 -22q0 -17 8 -31q-12 -5 -22 -5q-21 0 -34.5 16.5z" />
    <glyph glyph-name="Ohungarumlaut" unicode="&#x150;" horiz-adv-x="667" 
d="M184.5 23.5q-65.5 32.5 -102.5 90t-37 127.5v220q0 70 37 126.5t102.5 89t148.5 32.5q84 0 149.5 -32.5t102.5 -89t37 -126.5v-220q0 -70 -37 -127.5t-103 -90t-149 -32.5t-148.5 32.5zM478 119q52 46 52 123v217q0 77 -52 122.5t-145 45.5q-92 0 -144 -45.5t-52 -122.5
v-217q0 -77 52 -123t144 -46q93 0 145 46zM274 896q19 34 77 34h55l-125 -148q-12 -14 -28 -18t-58 -2zM452 896q19 34 77 34h54l-120 -148q-10 -12 -22 -16.5t-37 -4.5l-27 1z" />
    <glyph glyph-name="Omacron" unicode="&#x14c;" horiz-adv-x="667" 
d="M184.5 23.5q-65.5 32.5 -102.5 90t-37 127.5v220q0 70 37 126.5t102.5 89t148.5 32.5q84 0 149.5 -32.5t102.5 -89t37 -126.5v-220q0 -70 -37 -127.5t-103 -90t-149 -32.5t-148.5 32.5zM478 119q52 46 52 123v217q0 77 -52 122.5t-145 45.5q-92 0 -144 -45.5t-52 -122.5
v-217q0 -77 52 -123t144 -46q93 0 145 46zM239 856h256q0 -71 -68 -71h-256q0 71 68 71z" />
    <glyph glyph-name="Oslash" unicode="&#xd8;" horiz-adv-x="667" 
d="M596.5 569q25.5 -49 25.5 -107v-222q0 -70 -37 -127.5t-103 -90t-149 -32.5q-71 0 -130 25l-22 -44q-8 -15 -22.5 -23.5t-31.5 -8.5q-19 0 -34 9l50 100q-46 34 -72 84t-26 108v222q0 70 37 126.5t102.5 89t148.5 32.5q70 0 132 -24l25 50q7 15 22.5 23.5t33.5 8.5
q17 0 33 -8l-54 -108q46 -34 71.5 -83zM182 124l246 488q-43 16 -95 16q-92 0 -144 -45.5t-52 -122.5v-219q0 -70 45 -117zM530 460q0 71 -44 115l-246 -487q38 -16 93 -16q93 0 145 46t52 123v219z" />
    <glyph glyph-name="Oslashacute" unicode="&#x1fe;" horiz-adv-x="667" 
d="M596.5 569q25.5 -49 25.5 -107v-222q0 -70 -37 -127.5t-103 -90t-149 -32.5q-71 0 -130 25l-22 -44q-8 -15 -22.5 -23.5t-31.5 -8.5q-19 0 -34 9l50 100q-46 34 -72 84t-26 108v222q0 70 37 126.5t102.5 89t148.5 32.5q70 0 132 -24l25 50q7 15 22.5 23.5t33.5 8.5
q17 0 33 -8l-54 -108q46 -34 71.5 -83zM182 124l246 488q-43 16 -95 16q-92 0 -144 -45.5t-52 -122.5v-219q0 -70 45 -117zM530 460q0 71 -44 115l-246 -487q38 -16 93 -16q93 0 145 46t52 123v219zM342 896q14 34 77 34h59l-102 -148q-8 -13 -20 -17t-38 -4l-32 1z" />
    <glyph glyph-name="Otilde" unicode="&#xd5;" horiz-adv-x="667" 
d="M184.5 23.5q-65.5 32.5 -102.5 90t-37 127.5v220q0 70 37 126.5t102.5 89t148.5 32.5q84 0 149.5 -32.5t102.5 -89t37 -126.5v-220q0 -70 -37 -127.5t-103 -90t-149 -32.5t-148.5 32.5zM478 119q52 46 52 123v217q0 77 -52 122.5t-145 45.5q-92 0 -144 -45.5t-52 -122.5
v-217q0 -77 52 -123t144 -46q93 0 145 46zM188.5 780.5q-13.5 16.5 -13.5 41.5q0 34 24 55t61 21q26 0 45 -9.5t44 -28.5q17 -13 27.5 -19t21.5 -6q15 0 22.5 7t7.5 19q0 14 -8 32q10 5 22 5q20 0 34 -17t14 -41q0 -35 -23 -55.5t-59 -20.5q-23 0 -41 9.5t-43 28.5
q-17 14 -30 21t-25 7q-15 0 -23.5 -8t-8.5 -22q0 -17 8 -31q-12 -5 -22 -5q-21 0 -34.5 16.5z" />
    <glyph glyph-name="OE" unicode="&#x152;" horiz-adv-x="1084" 
d="M184.5 21.5q-65.5 31.5 -102.5 88.5t-37 130v222q0 73 36.5 129.5t102 87.5t149.5 31q63 0 116.5 -23t85.5 -62v41q0 14 11.5 24t27.5 10h445q0 -41 -17 -60.5t-52 -19.5h-329v-227h281q0 -41 -17 -61t-52 -20h-212v-232h350q35 0 51.5 -19.5t16.5 -60.5h-465
q-16 0 -27.5 10.5t-11.5 24.5v42q-33 -40 -86 -63.5t-116 -23.5q-83 0 -148.5 31.5zM478 118q52 46 52 123v219q0 77 -52 122.5t-145 45.5q-92 0 -144 -45.5t-52 -122.5v-219q0 -77 52 -123t144 -46q93 0 145 46z" />
    <glyph glyph-name="P" unicode="P" horiz-adv-x="679" 
d="M70 656q0 19 13.5 31.5t34.5 12.5h292q66 0 117 -27.5t79 -77t28 -113.5q0 -66 -27.5 -116t-78.5 -77t-118 -27h-246v-193q0 -38 -24 -58t-70 -20v665zM410 345q60 0 95 36.5t35 100.5q0 62 -35.5 98.5t-94.5 36.5h-246v-272h246z" />
    <glyph glyph-name="Thorn" unicode="&#xde;" horiz-adv-x="633" 
d="M70 700q46 0 70 -20t24 -58v-61h200q67 0 117.5 -26t78.5 -74t28 -111q0 -97 -60.5 -154.5t-163.5 -57.5h-200v-69q0 -38 -24 -58t-70 -20v709zM364 221q62 0 96 34.5t34 95.5q0 59 -35 93t-95 34h-200v-257h200z" />
    <glyph glyph-name="Q" unicode="Q" horiz-adv-x="676" 
d="M518.5 -14.5q-24.5 14.5 -39.5 38.5q-66 -33 -146 -33q-83 0 -148.5 32.5t-102.5 90t-37 127.5v220q0 70 37 126.5t102.5 89t148.5 32.5q84 0 149.5 -32.5t102.5 -89t37 -126.5v-220q0 -52 -21 -97.5t-59 -77.5q33 -39 89 -35q0 -60 -58 -60q-30 0 -54.5 14.5zM530 242
v217q0 77 -52 122.5t-145 45.5q-92 0 -144 -45.5t-52 -122.5v-188q51 17 93 17q83 0 145 -34.5t113 -115.5q42 38 42 104zM432 90q-43 72 -89.5 99t-116.5 27q-38 0 -84 -17q14 -59 63.5 -92.5t127.5 -33.5q56 0 99 17z" />
    <glyph glyph-name="R" unicode="R" horiz-adv-x="666" 
d="M70 656q0 19 13.5 31.5t34.5 12.5h276q97 0 154.5 -56.5t57.5 -150.5q0 -118 -103 -167v-3q45 -19 69 -57.5t24 -93.5v-103q0 -38 -24 -58t-70 -20v175q0 59 -26.5 89.5t-78.5 30.5h-234v-217q0 -38 -23.5 -58t-69.5 -20v665zM391 367q55 0 87.5 34t32.5 93q0 60 -31 92
t-89 32h-228v-251h228z" />
    <glyph glyph-name="Racute" unicode="&#x154;" horiz-adv-x="666" 
d="M70 656q0 19 13.5 31.5t34.5 12.5h276q97 0 154.5 -56.5t57.5 -150.5q0 -118 -103 -167v-3q45 -19 69 -57.5t24 -93.5v-103q0 -38 -24 -58t-70 -20v175q0 59 -26.5 89.5t-78.5 30.5h-234v-217q0 -38 -23.5 -58t-69.5 -20v665zM391 367q55 0 87.5 34t32.5 93q0 60 -31 92
t-89 32h-228v-251h228zM337 896q14 34 77 34h59l-102 -148q-8 -13 -20 -17t-38 -4l-32 1z" />
    <glyph glyph-name="Rcaron" unicode="&#x158;" horiz-adv-x="666" 
d="M70 656q0 19 13.5 31.5t34.5 12.5h276q97 0 154.5 -56.5t57.5 -150.5q0 -118 -103 -167v-3q45 -19 69 -57.5t24 -93.5v-103q0 -38 -24 -58t-70 -20v175q0 59 -26.5 89.5t-78.5 30.5h-234v-217q0 -38 -23.5 -58t-69.5 -20v665zM391 367q55 0 87.5 34t32.5 93q0 60 -31 92
t-89 32h-228v-251h228zM405 932q14 17 41 17q15 0 29 -6.5t23 -18.5l-141 -147q-11 -13 -29 -13t-29 13l-141 147q9 12 23 18.5t29 6.5q27 0 41 -17l77 -92z" />
    <glyph glyph-name="uni0156" unicode="&#x156;" horiz-adv-x="666" 
d="M70 656q0 19 13.5 31.5t34.5 12.5h276q97 0 154.5 -56.5t57.5 -150.5q0 -118 -103 -167v-3q45 -19 69 -57.5t24 -93.5v-103q0 -38 -24 -58t-70 -20v175q0 59 -26.5 89.5t-78.5 30.5h-234v-217q0 -38 -23.5 -58t-69.5 -20v665zM391 367q55 0 87.5 34t32.5 93q0 60 -31 92
t-89 32h-228v-251h228zM341 -177q-3 -2 -9.5 -3.5t-12.5 -1.5q-29 0 -46.5 17.5t-17.5 47.5q0 31 20.5 50t51.5 19q33 0 53.5 -20.5t20.5 -51.5q0 -63 -19 -103t-56 -74q-10 -8 -27 -8q-14 0 -23 7q65 64 65 121z" />
    <glyph glyph-name="uni1E5A" unicode="&#x1e5a;" horiz-adv-x="666" 
d="M70 656q0 19 13.5 31.5t34.5 12.5h276q97 0 154.5 -56.5t57.5 -150.5q0 -118 -103 -167v-3q45 -19 69 -57.5t24 -93.5v-103q0 -38 -24 -58t-70 -20v175q0 59 -26.5 89.5t-78.5 30.5h-234v-217q0 -38 -23.5 -58t-69.5 -20v665zM391 367q55 0 87.5 34t32.5 93q0 60 -31 92
t-89 32h-228v-251h228zM287.5 -159.5q-15.5 15.5 -15.5 38.5q0 24 15.5 39.5t40.5 15.5q24 0 39.5 -15.5t15.5 -39.5t-15.5 -39t-39.5 -15q-25 0 -40.5 15.5z" />
    <glyph glyph-name="uni1E5C" unicode="&#x1e5c;" horiz-adv-x="666" 
d="M70 656q0 19 13.5 31.5t34.5 12.5h276q97 0 154.5 -56.5t57.5 -150.5q0 -118 -103 -167v-3q45 -19 69 -57.5t24 -93.5v-103q0 -38 -24 -58t-70 -20v175q0 59 -26.5 89.5t-78.5 30.5h-234v-217q0 -38 -23.5 -58t-69.5 -20v665zM391 367q55 0 87.5 34t32.5 93q0 60 -31 92
t-89 32h-228v-251h228zM287.5 -159.5q-15.5 15.5 -15.5 38.5q0 24 15.5 39.5t40.5 15.5q24 0 39.5 -15.5t15.5 -39.5t-15.5 -39t-39.5 -15q-25 0 -40.5 15.5zM234 856h256q0 -71 -68 -71h-256q0 71 68 71z" />
    <glyph glyph-name="uni1E5E" unicode="&#x1e5e;" horiz-adv-x="666" 
d="M70 656q0 19 13.5 31.5t34.5 12.5h276q97 0 154.5 -56.5t57.5 -150.5q0 -118 -103 -167v-3q45 -19 69 -57.5t24 -93.5v-103q0 -38 -24 -58t-70 -20v175q0 59 -26.5 89.5t-78.5 30.5h-234v-217q0 -38 -23.5 -58t-69.5 -20v665zM391 367q55 0 87.5 34t32.5 93q0 60 -31 92
t-89 32h-228v-251h228zM234 -57h256q0 -71 -68 -71h-256q0 71 68 71z" />
    <glyph glyph-name="S" unicode="S" horiz-adv-x="644" 
d="M174.5 15q-61.5 24 -93.5 64t-32 86q0 38 20 58.5t61 20.5q0 -85 51 -129.5t143 -44.5q88 0 135 29.5t47 87.5q0 35 -17.5 57.5t-59 39t-119.5 33.5q-92 20 -146 46.5t-79 64.5t-25 94t31.5 98.5t89.5 65.5t135 23q73 0 130.5 -20.5t90 -58t32.5 -84.5q0 -29 -18.5 -45.5
t-57.5 -16.5q-11 76 -53.5 111t-123.5 35q-78 0 -120 -27.5t-42 -77.5q0 -35 15.5 -57.5t53 -38.5t105.5 -31q102 -22 160.5 -49t84.5 -66t26 -96q0 -91 -76 -143.5t-203 -52.5q-84 0 -145.5 24z" />
    <glyph glyph-name="Sacute" unicode="&#x15a;" horiz-adv-x="644" 
d="M174.5 15q-61.5 24 -93.5 64t-32 86q0 38 20 58.5t61 20.5q0 -85 51 -129.5t143 -44.5q88 0 135 29.5t47 87.5q0 35 -17.5 57.5t-59 39t-119.5 33.5q-92 20 -146 46.5t-79 64.5t-25 94t31.5 98.5t89.5 65.5t135 23q73 0 130.5 -20.5t90 -58t32.5 -84.5q0 -29 -18.5 -45.5
t-57.5 -16.5q-11 76 -53.5 111t-123.5 35q-78 0 -120 -27.5t-42 -77.5q0 -35 15.5 -57.5t53 -38.5t105.5 -31q102 -22 160.5 -49t84.5 -66t26 -96q0 -91 -76 -143.5t-203 -52.5q-84 0 -145.5 24zM329 896q14 34 77 34h59l-102 -148q-8 -13 -20 -17t-38 -4l-32 1z" />
    <glyph glyph-name="Scaron" unicode="&#x160;" horiz-adv-x="644" 
d="M174.5 15q-61.5 24 -93.5 64t-32 86q0 38 20 58.5t61 20.5q0 -85 51 -129.5t143 -44.5q88 0 135 29.5t47 87.5q0 35 -17.5 57.5t-59 39t-119.5 33.5q-92 20 -146 46.5t-79 64.5t-25 94t31.5 98.5t89.5 65.5t135 23q73 0 130.5 -20.5t90 -58t32.5 -84.5q0 -29 -18.5 -45.5
t-57.5 -16.5q-11 76 -53.5 111t-123.5 35q-78 0 -120 -27.5t-42 -77.5q0 -35 15.5 -57.5t53 -38.5t105.5 -31q102 -22 160.5 -49t84.5 -66t26 -96q0 -91 -76 -143.5t-203 -52.5q-84 0 -145.5 24zM397 932q14 17 41 17q15 0 29 -6.5t23 -18.5l-141 -147q-11 -13 -29 -13
t-29 13l-141 147q9 12 23 18.5t29 6.5q27 0 41 -17l77 -92z" />
    <glyph glyph-name="Scedilla" unicode="&#x15e;" horiz-adv-x="644" 
d="M539 55.5q-60 -50.5 -164 -61.5l-27 -38q44 0 68.5 -23.5t24.5 -60.5q0 -43 -30.5 -68t-80.5 -25q-43 0 -72 18.5t-29 43.5q0 19 12 30q29 -36 78 -36q50 0 50 38q0 18 -12.5 28t-34.5 10q-20 2 -37 -6q-10 -3 -18.5 4t-8.5 18q0 7 4 14l34 51q-77 3 -133 27.5t-85 63
t-29 82.5q0 38 20 58.5t61 20.5q0 -85 51 -129.5t143 -44.5q88 0 135 29.5t47 87.5q0 35 -17.5 57.5t-59 39t-119.5 33.5q-92 20 -146 46.5t-79 64.5t-25 94t31.5 98.5t89.5 65.5t135 23q73 0 130.5 -20.5t90 -58t32.5 -84.5q0 -29 -18.5 -45.5t-57.5 -16.5
q-11 76 -53.5 111t-123.5 35q-78 0 -120 -27.5t-42 -77.5q0 -35 15.5 -57.5t53 -38.5t105.5 -31q102 -22 160.5 -49t84.5 -66t26 -96q0 -81 -60 -131.5z" />
    <glyph glyph-name="Scircumflex" unicode="&#x15c;" horiz-adv-x="644" 
d="M174.5 15q-61.5 24 -93.5 64t-32 86q0 38 20 58.5t61 20.5q0 -85 51 -129.5t143 -44.5q88 0 135 29.5t47 87.5q0 35 -17.5 57.5t-59 39t-119.5 33.5q-92 20 -146 46.5t-79 64.5t-25 94t31.5 98.5t89.5 65.5t135 23q73 0 130.5 -20.5t90 -58t32.5 -84.5q0 -29 -18.5 -45.5
t-57.5 -16.5q-11 76 -53.5 111t-123.5 35q-78 0 -120 -27.5t-42 -77.5q0 -35 15.5 -57.5t53 -38.5t105.5 -31q102 -22 160.5 -49t84.5 -66t26 -96q0 -91 -76 -143.5t-203 -52.5q-84 0 -145.5 24zM226 768.5q-11 -4.5 -23 -4.5q-16 0 -29.5 6.5t-22.5 18.5l141 147
q11 13 29 13t29 -13l141 -147q-9 -12 -22.5 -18.5t-29.5 -6.5q-12 0 -23 4.5t-18 12.5l-77 92l-77 -92q-7 -8 -18 -12.5z" />
    <glyph glyph-name="uni0218" unicode="&#x218;" horiz-adv-x="644" 
d="M174.5 15q-61.5 24 -93.5 64t-32 86q0 38 20 58.5t61 20.5q0 -85 51 -129.5t143 -44.5q88 0 135 29.5t47 87.5q0 35 -17.5 57.5t-59 39t-119.5 33.5q-92 20 -146 46.5t-79 64.5t-25 94t31.5 98.5t89.5 65.5t135 23q73 0 130.5 -20.5t90 -58t32.5 -84.5q0 -29 -18.5 -45.5
t-57.5 -16.5q-11 76 -53.5 111t-123.5 35q-78 0 -120 -27.5t-42 -77.5q0 -35 15.5 -57.5t53 -38.5t105.5 -31q102 -22 160.5 -49t84.5 -66t26 -96q0 -91 -76 -143.5t-203 -52.5q-84 0 -145.5 24zM344 -177q-3 -2 -9.5 -3.5t-12.5 -1.5q-29 0 -46.5 17.5t-17.5 47.5
q0 31 20.5 50t51.5 19q33 0 53.5 -20.5t20.5 -51.5q0 -63 -19 -103t-56 -74q-10 -8 -27 -8q-14 0 -23 7q65 64 65 121z" />
    <glyph glyph-name="uni1E60" unicode="&#x1e60;" horiz-adv-x="644" 
d="M174.5 15q-61.5 24 -93.5 64t-32 86q0 38 20 58.5t61 20.5q0 -85 51 -129.5t143 -44.5q88 0 135 29.5t47 87.5q0 35 -17.5 57.5t-59 39t-119.5 33.5q-92 20 -146 46.5t-79 64.5t-25 94t31.5 98.5t89.5 65.5t135 23q73 0 130.5 -20.5t90 -58t32.5 -84.5q0 -29 -18.5 -45.5
t-57.5 -16.5q-11 76 -53.5 111t-123.5 35q-78 0 -120 -27.5t-42 -77.5q0 -35 15.5 -57.5t53 -38.5t105.5 -31q102 -22 160.5 -49t84.5 -66t26 -96q0 -91 -76 -143.5t-203 -52.5q-84 0 -145.5 24zM280.5 790.5q-15.5 15.5 -15.5 38.5q0 24 15.5 39.5t40.5 15.5
q24 0 39.5 -15.5t15.5 -39.5q0 -23 -15 -38.5t-40 -15.5t-40.5 15.5z" />
    <glyph glyph-name="uni1E62" unicode="&#x1e62;" horiz-adv-x="644" 
d="M174.5 15q-61.5 24 -93.5 64t-32 86q0 38 20 58.5t61 20.5q0 -85 51 -129.5t143 -44.5q88 0 135 29.5t47 87.5q0 35 -17.5 57.5t-59 39t-119.5 33.5q-92 20 -146 46.5t-79 64.5t-25 94t31.5 98.5t89.5 65.5t135 23q73 0 130.5 -20.5t90 -58t32.5 -84.5q0 -29 -18.5 -45.5
t-57.5 -16.5q-11 76 -53.5 111t-123.5 35q-78 0 -120 -27.5t-42 -77.5q0 -35 15.5 -57.5t53 -38.5t105.5 -31q102 -22 160.5 -49t84.5 -66t26 -96q0 -91 -76 -143.5t-203 -52.5q-84 0 -145.5 24zM290.5 -159.5q-15.5 15.5 -15.5 38.5q0 24 15.5 39.5t40.5 15.5
q24 0 39.5 -15.5t15.5 -39.5t-15.5 -39t-39.5 -15q-25 0 -40.5 15.5z" />
    <glyph glyph-name="uni1E9E" unicode="&#x1e9e;" horiz-adv-x="610" 
d="M422 539q-1 44 -36 68t-97 24q-66 0 -100 -38.5t-34 -113.5v-422q0 -34 -22 -50t-68 -16v488q0 107 60.5 168.5t164.5 61.5q67 0 119 -23t80.5 -64t28.5 -95l-126 -127q173 -38 173 -200q0 -97 -56 -153t-155 -56q-58 0 -94.5 20.5t-36.5 52.5q0 18 10 32
q17 -13 46.5 -20t66.5 -7q123 0 123 131q0 67 -40 98.5t-137 38.5v68z" />
    <glyph glyph-name="uni018F" unicode="&#x18f;" horiz-adv-x="674" 
d="M184 24.5q-65 33.5 -102 92t-37 130.5v84q0 22 16.5 37.5t40.5 15.5h417v74q0 77 -51 121.5t-139 44.5q-85 0 -138 -40.5t-53 -105.5q-34 0 -55.5 19.5t-21.5 50.5q0 45 35.5 82t97 58t135.5 21q85 0 149.5 -31.5t100 -89t35.5 -132.5v-205q0 -74 -37 -133.5t-102 -93
t-146 -33.5q-80 0 -145 33.5zM466.5 120.5q52.5 45.5 52.5 118.5v66h-379v-66q0 -74 52 -119t137 -45t137.5 45.5z" />
    <glyph glyph-name="T" unicode="T" horiz-adv-x="651" 
d="M279 617h-244q0 83 78 83h503q0 -83 -78 -83h-165v-548q0 -38 -24 -58t-70 -20v626z" />
    <glyph glyph-name="Tbar" unicode="&#x166;" horiz-adv-x="651" 
d="M616 700q0 -83 -78 -83h-165v-210h124q0 -33 -14 -51t-40 -18h-70v-269q0 -38 -24 -58t-70 -20v347h-128q0 33 14 51t40 18h74v210h-244q0 83 78 83h503z" />
    <glyph glyph-name="Tcaron" unicode="&#x164;" horiz-adv-x="651" 
d="M279 617h-244q0 83 78 83h503q0 -83 -78 -83h-165v-548q0 -38 -24 -58t-70 -20v626zM403 932q14 17 41 17q15 0 29 -6.5t23 -18.5l-141 -147q-11 -13 -29 -13t-29 13l-141 147q9 12 23 18.5t29 6.5q27 0 41 -17l77 -92z" />
    <glyph glyph-name="uni0162" unicode="&#x162;" horiz-adv-x="651" 
d="M251 -202.5q-29 18.5 -29 43.5q0 19 12 30q29 -36 78 -36q50 0 50 38q0 18 -12.5 28t-34.5 10q-20 2 -37 -6q-10 -3 -18.5 4t-8.5 18q0 7 4 14l24 50v626h-244q0 83 78 83h503q0 -83 -78 -83h-165v-565q0 -57 -32 -96q44 0 68.5 -23.5t24.5 -60.5q0 -43 -30.5 -68
t-80.5 -25q-43 0 -72 18.5z" />
    <glyph glyph-name="uni021A" unicode="&#x21a;" horiz-adv-x="651" 
d="M279 617h-244q0 83 78 83h503q0 -83 -78 -83h-165v-548q0 -38 -24 -58t-70 -20v626zM337 -177q-3 -2 -9.5 -3.5t-12.5 -1.5q-29 0 -46.5 17.5t-17.5 47.5q0 31 20.5 50t51.5 19q33 0 53.5 -20.5t20.5 -51.5q0 -63 -19 -103t-56 -74q-10 -8 -27 -8q-14 0 -23 7
q65 64 65 121z" />
    <glyph glyph-name="uni1E6C" unicode="&#x1e6c;" horiz-adv-x="651" 
d="M279 617h-244q0 83 78 83h503q0 -83 -78 -83h-165v-548q0 -38 -24 -58t-70 -20v626zM283.5 -159.5q-15.5 15.5 -15.5 38.5q0 24 15.5 39.5t40.5 15.5q24 0 39.5 -15.5t15.5 -39.5t-15.5 -39t-39.5 -15q-25 0 -40.5 15.5z" />
    <glyph glyph-name="uni1E6E" unicode="&#x1e6e;" horiz-adv-x="651" 
d="M279 617h-244q0 83 78 83h503q0 -83 -78 -83h-165v-548q0 -38 -24 -58t-70 -20v626zM230 -57h256q0 -71 -68 -71h-256q0 71 68 71z" />
    <glyph glyph-name="U" unicode="U" horiz-adv-x="689" 
d="M202 23q-64 32 -100.5 88.5t-36.5 126.5v393q0 38 24 58t70 20v-471q0 -73 51.5 -118t134.5 -45t134 45t51 118v393q0 38 24 58t70 20v-471q0 -70 -36 -126.5t-100 -88.5t-143 -32t-143 32z" />
    <glyph glyph-name="Uacute" unicode="&#xda;" horiz-adv-x="689" 
d="M202 23q-64 32 -100.5 88.5t-36.5 126.5v393q0 38 24 58t70 20v-471q0 -73 51.5 -118t134.5 -45t134 45t51 118v393q0 38 24 58t70 20v-471q0 -70 -36 -126.5t-100 -88.5t-143 -32t-143 32zM358 896q14 34 77 34h59l-102 -148q-8 -13 -20 -17t-38 -4l-32 1z" />
    <glyph glyph-name="Ubreve" unicode="&#x16c;" horiz-adv-x="689" 
d="M202 23q-64 32 -100.5 88.5t-36.5 126.5v393q0 38 24 58t70 20v-471q0 -73 51.5 -118t134.5 -45t134 45t51 118v393q0 38 24 58t70 20v-471q0 -70 -36 -126.5t-100 -88.5t-143 -32t-143 32zM269 777q-39 16 -63 45.5t-24 67.5q0 62 76 62q0 -60 22 -89.5t69 -29.5
t69 29.5t22 89.5q76 0 76 -62q0 -38 -24 -67.5t-63 -45.5t-80 -16t-80 16z" />
    <glyph glyph-name="uni01D3" unicode="&#x1d3;" horiz-adv-x="689" 
d="M202 23q-64 32 -100.5 88.5t-36.5 126.5v393q0 38 24 58t70 20v-471q0 -73 51.5 -118t134.5 -45t134 45t51 118v393q0 38 24 58t70 20v-471q0 -70 -36 -126.5t-100 -88.5t-143 -32t-143 32zM426 932q14 17 41 17q15 0 29 -6.5t23 -18.5l-141 -147q-11 -13 -29 -13t-29 13
l-141 147q9 12 23 18.5t29 6.5q27 0 41 -17l77 -92z" />
    <glyph glyph-name="Ucircumflex" unicode="&#xdb;" horiz-adv-x="689" 
d="M202 23q-64 32 -100.5 88.5t-36.5 126.5v393q0 38 24 58t70 20v-471q0 -73 51.5 -118t134.5 -45t134 45t51 118v393q0 38 24 58t70 20v-471q0 -70 -36 -126.5t-100 -88.5t-143 -32t-143 32zM255 768.5q-11 -4.5 -23 -4.5q-16 0 -29.5 6.5t-22.5 18.5l141 147q11 13 29 13
t29 -13l141 -147q-9 -12 -22.5 -18.5t-29.5 -6.5q-12 0 -23 4.5t-18 12.5l-77 92l-77 -92q-7 -8 -18 -12.5z" />
    <glyph glyph-name="Udieresis" unicode="&#xdc;" horiz-adv-x="689" 
d="M202 23q-64 32 -100.5 88.5t-36.5 126.5v393q0 38 24 58t70 20v-471q0 -73 51.5 -118t134.5 -45t134 45t51 118v393q0 38 24 58t70 20v-471q0 -70 -36 -126.5t-100 -88.5t-143 -32t-143 32zM213.5 790q-15.5 15 -15.5 39t15.5 39.5t40.5 15.5q24 0 39 -15.5t15 -39.5
q0 -23 -15 -38.5t-39 -15.5q-25 0 -40.5 15zM406.5 790.5q-15.5 15.5 -15.5 38.5q0 24 15 39.5t40 15.5t40 -15.5t15 -39.5q0 -23 -15 -38.5t-40 -15.5q-24 0 -39.5 15.5z" />
    <glyph glyph-name="uni01D7" unicode="&#x1d7;" horiz-adv-x="689" 
d="M202 23q-64 32 -100.5 88.5t-36.5 126.5v393q0 38 24 58t70 20v-471q0 -73 51.5 -118t134.5 -45t134 45t51 118v393q0 38 24 58t70 20v-471q0 -70 -36 -126.5t-100 -88.5t-143 -32t-143 32zM368 1027q14 30 68 30h42l-86 -118q-8 -11 -19 -15.5t-31 -4.5q-16 0 -26 1z
M212.5 790q-15.5 15 -15.5 39t15.5 39.5t40.5 15.5q24 0 39 -15.5t15 -39.5q0 -23 -15 -38.5t-39 -15.5q-25 0 -40.5 15zM405.5 790.5q-15.5 15.5 -15.5 38.5q0 24 15 39.5t40 15.5t40 -15.5t15 -39.5q0 -23 -15 -38.5t-40 -15.5q-24 0 -39.5 15.5z" />
    <glyph glyph-name="uni01D9" unicode="&#x1d9;" horiz-adv-x="689" 
d="M202 23q-64 32 -100.5 88.5t-36.5 126.5v393q0 38 24 58t70 20v-471q0 -73 51.5 -118t134.5 -45t134 45t51 118v393q0 38 24 58t70 20v-471q0 -70 -36 -126.5t-100 -88.5t-143 -32t-143 32zM420 1043q14 16 40 16q14 0 27 -6t21 -18l-132 -134q-13 -13 -27 -13
q-15 0 -28 13l-132 134q8 12 21 18t27 6q26 0 40 -16l72 -82zM212.5 790q-15.5 15 -15.5 39t15.5 39.5t40.5 15.5q24 0 39 -15.5t15 -39.5q0 -23 -15 -38.5t-39 -15.5q-25 0 -40.5 15zM405.5 790.5q-15.5 15.5 -15.5 38.5q0 24 15 39.5t40 15.5t40 -15.5t15 -39.5
q0 -23 -15 -38.5t-40 -15.5q-24 0 -39.5 15.5z" />
    <glyph glyph-name="uni01DB" unicode="&#x1db;" horiz-adv-x="689" 
d="M202 23q-64 32 -100.5 88.5t-36.5 126.5v393q0 38 24 58t70 20v-471q0 -73 51.5 -118t134.5 -45t134 45t51 118v393q0 38 24 58t70 20v-471q0 -70 -36 -126.5t-100 -88.5t-143 -32t-143 32zM354 919q-20 0 -31 4.5t-19 15.5l-88 119h42q27 0 43.5 -7t24.5 -23l54 -108
q-10 -1 -26 -1zM211.5 790.5q-15.5 15.5 -15.5 38.5q0 24 15 39.5t40 15.5t40 -15.5t15 -39.5q0 -23 -15 -38.5t-40 -15.5q-24 0 -39.5 15.5zM404 790.5q-15 15.5 -15 38.5q0 24 15 39.5t39 15.5q25 0 40.5 -15.5t15.5 -39.5t-15.5 -39t-40.5 -15q-24 0 -39 15.5z" />
    <glyph glyph-name="uni01D5" unicode="&#x1d5;" horiz-adv-x="689" 
d="M202 23q-64 32 -100.5 88.5t-36.5 126.5v393q0 38 24 58t70 20v-471q0 -73 51.5 -118t134.5 -45t134 45t51 118v393q0 38 24 58t70 20v-471q0 -70 -36 -126.5t-100 -88.5t-143 -32t-143 32zM213.5 790q-15.5 15 -15.5 39t15.5 39.5t40.5 15.5q24 0 39 -15.5t15 -39.5
q0 -23 -15 -38.5t-39 -15.5q-25 0 -40.5 15zM406.5 790.5q-15.5 15.5 -15.5 38.5q0 24 15 39.5t40 15.5t40 -15.5t15 -39.5q0 -23 -15 -38.5t-40 -15.5q-24 0 -39.5 15.5zM255 1012h256q0 -71 -68 -71h-256q0 71 68 71z" />
    <glyph glyph-name="uni1EE4" unicode="&#x1ee4;" horiz-adv-x="689" 
d="M202 23q-64 32 -100.5 88.5t-36.5 126.5v393q0 38 24 58t70 20v-471q0 -73 51.5 -118t134.5 -45t134 45t51 118v393q0 38 24 58t70 20v-471q0 -70 -36 -126.5t-100 -88.5t-143 -32t-143 32zM308.5 -159.5q-15.5 15.5 -15.5 38.5q0 24 15.5 39.5t40.5 15.5
q24 0 39.5 -15.5t15.5 -39.5t-15.5 -39t-39.5 -15q-25 0 -40.5 15.5z" />
    <glyph glyph-name="Ugrave" unicode="&#xd9;" horiz-adv-x="689" 
d="M202 23q-64 32 -100.5 88.5t-36.5 126.5v393q0 38 24 58t70 20v-471q0 -73 51.5 -118t134.5 -45t134 45t51 118v393q0 38 24 58t70 20v-471q0 -70 -36 -126.5t-100 -88.5t-143 -32t-143 32zM338 764q-17 4 -28 18l-123 148h59q58 0 77 -34l76 -134q-44 -2 -61 2z" />
    <glyph glyph-name="uni1EE6" unicode="&#x1ee6;" horiz-adv-x="689" 
d="M202 23q-64 32 -100.5 88.5t-36.5 126.5v393q0 38 24 58t70 20v-471q0 -73 51.5 -118t134.5 -45t134 45t51 118v393q0 38 24 58t70 20v-471q0 -70 -36 -126.5t-100 -88.5t-143 -32t-143 32zM322 793q0 17 8 29.5t23 26.5q13 11 19.5 20t6.5 21q0 27 -34 27t-34 -35
q0 -12 3 -21q-31 0 -49 10.5t-18 32.5q0 30 28.5 50.5t72.5 20.5q48 0 76 -20t28 -57q0 -20 -8 -32.5t-24 -26.5q-13 -12 -19.5 -21.5t-6.5 -22.5q0 -15 -13.5 -23.5t-33.5 -8.5q-11 0 -25 3v27z" />
    <glyph glyph-name="Uhorn" unicode="&#x1af;" horiz-adv-x="764" 
d="M723.5 624.5q-30.5 -38.5 -99.5 -56.5v-330q0 -70 -36 -126.5t-100 -88.5t-143 -32t-143 32t-100.5 88.5t-36.5 126.5v393q0 38 24 58t70 20v-471q0 -73 51.5 -118t134.5 -45t134 45t51 118v393q0 38 24 58t70 20v-78q32 17 41 47t9 100q80 2 80 -65q0 -50 -30.5 -88.5z
" />
    <glyph glyph-name="uni1EE8" unicode="&#x1ee8;" horiz-adv-x="764" 
d="M723.5 624.5q-30.5 -38.5 -99.5 -56.5v-330q0 -70 -36 -126.5t-100 -88.5t-143 -32t-143 32t-100.5 88.5t-36.5 126.5v393q0 38 24 58t70 20v-471q0 -73 51.5 -118t134.5 -45t134 45t51 118v393q0 38 24 58t70 20v-78q32 17 41 47t9 100q80 2 80 -65q0 -50 -30.5 -88.5z
M357 896q14 34 77 34h59l-102 -148q-8 -13 -20 -17t-38 -4l-32 1z" />
    <glyph glyph-name="uni1EF0" unicode="&#x1ef0;" horiz-adv-x="764" 
d="M723.5 624.5q-30.5 -38.5 -99.5 -56.5v-330q0 -70 -36 -126.5t-100 -88.5t-143 -32t-143 32t-100.5 88.5t-36.5 126.5v393q0 38 24 58t70 20v-471q0 -73 51.5 -118t134.5 -45t134 45t51 118v393q0 38 24 58t70 20v-78q32 17 41 47t9 100q80 2 80 -65q0 -50 -30.5 -88.5z
M307.5 -159.5q-15.5 15.5 -15.5 38.5q0 24 15.5 39.5t40.5 15.5q24 0 39.5 -15.5t15.5 -39.5t-15.5 -39t-39.5 -15q-25 0 -40.5 15.5z" />
    <glyph glyph-name="uni1EEA" unicode="&#x1eea;" horiz-adv-x="764" 
d="M723.5 624.5q-30.5 -38.5 -99.5 -56.5v-330q0 -70 -36 -126.5t-100 -88.5t-143 -32t-143 32t-100.5 88.5t-36.5 126.5v393q0 38 24 58t70 20v-471q0 -73 51.5 -118t134.5 -45t134 45t51 118v393q0 38 24 58t70 20v-78q32 17 41 47t9 100q80 2 80 -65q0 -50 -30.5 -88.5z
M337 764q-17 4 -28 18l-123 148h59q58 0 77 -34l76 -134q-44 -2 -61 2z" />
    <glyph glyph-name="uni1EEC" unicode="&#x1eec;" horiz-adv-x="764" 
d="M723.5 624.5q-30.5 -38.5 -99.5 -56.5v-330q0 -70 -36 -126.5t-100 -88.5t-143 -32t-143 32t-100.5 88.5t-36.5 126.5v393q0 38 24 58t70 20v-471q0 -73 51.5 -118t134.5 -45t134 45t51 118v393q0 38 24 58t70 20v-78q32 17 41 47t9 100q80 2 80 -65q0 -50 -30.5 -88.5z
M321 793q0 17 8 29.5t23 26.5q13 11 19.5 20t6.5 21q0 27 -34 27t-34 -35q0 -12 3 -21q-31 0 -49 10.5t-18 32.5q0 30 28.5 50.5t72.5 20.5q48 0 76 -20t28 -57q0 -20 -8 -32.5t-24 -26.5q-13 -12 -19.5 -21.5t-6.5 -22.5q0 -15 -13.5 -23.5t-33.5 -8.5q-11 0 -25 3v27z" />
    <glyph glyph-name="uni1EEE" unicode="&#x1eee;" horiz-adv-x="764" 
d="M723.5 624.5q-30.5 -38.5 -99.5 -56.5v-330q0 -70 -36 -126.5t-100 -88.5t-143 -32t-143 32t-100.5 88.5t-36.5 126.5v393q0 38 24 58t70 20v-471q0 -73 51.5 -118t134.5 -45t134 45t51 118v393q0 38 24 58t70 20v-78q32 17 41 47t9 100q80 2 80 -65q0 -50 -30.5 -88.5z
M203.5 780.5q-13.5 16.5 -13.5 41.5q0 34 24 55t61 21q26 0 45 -9.5t44 -28.5q17 -13 27.5 -19t21.5 -6q15 0 22.5 7t7.5 19q0 14 -8 32q10 5 22 5q20 0 34 -17t14 -41q0 -35 -23 -55.5t-59 -20.5q-23 0 -41 9.5t-43 28.5q-17 14 -30 21t-25 7q-15 0 -23.5 -8t-8.5 -22
q0 -17 8 -31q-12 -5 -22 -5q-21 0 -34.5 16.5z" />
    <glyph glyph-name="Uhungarumlaut" unicode="&#x170;" horiz-adv-x="689" 
d="M202 23q-64 32 -100.5 88.5t-36.5 126.5v393q0 38 24 58t70 20v-471q0 -73 51.5 -118t134.5 -45t134 45t51 118v393q0 38 24 58t70 20v-471q0 -70 -36 -126.5t-100 -88.5t-143 -32t-143 32zM290 896q19 34 77 34h55l-125 -148q-12 -14 -28 -18t-58 -2zM468 896
q19 34 77 34h54l-120 -148q-10 -12 -22 -16.5t-37 -4.5l-27 1z" />
    <glyph glyph-name="Umacron" unicode="&#x16a;" horiz-adv-x="689" 
d="M202 23q-64 32 -100.5 88.5t-36.5 126.5v393q0 38 24 58t70 20v-471q0 -73 51.5 -118t134.5 -45t134 45t51 118v393q0 38 24 58t70 20v-471q0 -70 -36 -126.5t-100 -88.5t-143 -32t-143 32zM255 856h256q0 -71 -68 -71h-256q0 71 68 71z" />
    <glyph glyph-name="Uogonek" unicode="&#x172;" horiz-adv-x="689" 
d="M554 689q24 20 70 20v-471q0 -63 -29.5 -115.5t-82.5 -86t-120 -42.5q-59 -48 -59 -102q0 -20 11 -31.5t30 -11.5q25 0 40 19q5 -13 5 -22q0 -22 -21.5 -37.5t-54.5 -15.5q-41 0 -65.5 23.5t-24.5 62.5q0 34 20 63.5t57 48.5q-76 3 -136.5 36t-94.5 88t-34 123v393
q0 38 24 58t70 20v-471q0 -73 51.5 -118t134.5 -45t134 45t51 118v393q0 38 24 58z" />
    <glyph glyph-name="Uring" unicode="&#x16e;" horiz-adv-x="689" 
d="M202 23q-64 32 -100.5 88.5t-36.5 126.5v393q0 38 24 58t70 20v-471q0 -73 51.5 -118t134.5 -45t134 45t51 118v393q0 38 24 58t70 20v-471q0 -70 -36 -126.5t-100 -88.5t-143 -32t-143 32zM267.5 775q-31.5 29 -31.5 75t31.5 74.5t81.5 28.5q49 0 80 -28.5t31 -74.5
t-31 -75t-80 -29q-50 0 -81.5 29zM385.5 813q14.5 14 14.5 37t-14.5 37t-36.5 14q-23 0 -37 -14t-14 -37t14 -37t37 -14q22 0 36.5 14z" />
    <glyph glyph-name="Utilde" unicode="&#x168;" horiz-adv-x="689" 
d="M202 23q-64 32 -100.5 88.5t-36.5 126.5v393q0 38 24 58t70 20v-471q0 -73 51.5 -118t134.5 -45t134 45t51 118v393q0 38 24 58t70 20v-471q0 -70 -36 -126.5t-100 -88.5t-143 -32t-143 32zM204.5 780.5q-13.5 16.5 -13.5 41.5q0 34 24 55t61 21q26 0 45 -9.5t44 -28.5
q17 -13 27.5 -19t21.5 -6q15 0 22.5 7t7.5 19q0 14 -8 32q10 5 22 5q20 0 34 -17t14 -41q0 -35 -23 -55.5t-59 -20.5q-23 0 -41 9.5t-43 28.5q-17 14 -30 21t-25 7q-15 0 -23.5 -8t-8.5 -22q0 -17 8 -31q-12 -5 -22 -5q-21 0 -34.5 16.5z" />
    <glyph glyph-name="V" unicode="V" horiz-adv-x="697" 
d="M303 21l-258 679q8 4 19 6.5t20 2.5q28 0 47.5 -13.5t28.5 -37.5l183 -511l-18 -51l8 -3l203 565q9 24 29 37.5t48 13.5q17 0 39 -9l-258 -679q-5 -14 -17 -22t-29 -8q-33 0 -45 30z" />
    <glyph glyph-name="W" unicode="W" horiz-adv-x="922" 
d="M241 8.5q-23 17.5 -31 49.5l-165 642q15 9 38 9q29 0 49 -14.5t26 -39.5l109 -474l-16 -59l6 -2l161 558q4 15 15.5 23t27.5 8q15 0 27 -8t16 -23l139 -501l-14 -61l6 -2l129 541q6 25 25.5 39.5t47.5 14.5q23 0 40 -9l-165 -642q-8 -32 -31.5 -49.5t-59.5 -17.5
l-171 605l-6 -2l13 -47l-157 -556q-36 0 -59 17.5z" />
    <glyph glyph-name="Wacute" unicode="&#x1e82;" horiz-adv-x="922" 
d="M241 8.5q-23 17.5 -31 49.5l-165 642q15 9 38 9q29 0 49 -14.5t26 -39.5l109 -474l-16 -59l6 -2l161 558q4 15 15.5 23t27.5 8q15 0 27 -8t16 -23l139 -501l-14 -61l6 -2l129 541q6 25 25.5 39.5t47.5 14.5q23 0 40 -9l-165 -642q-8 -32 -31.5 -49.5t-59.5 -17.5
l-171 605l-6 -2l13 -47l-157 -556q-36 0 -59 17.5zM471 896q14 34 77 34h59l-102 -148q-8 -13 -20 -17t-38 -4l-32 1z" />
    <glyph glyph-name="Wcircumflex" unicode="&#x174;" horiz-adv-x="922" 
d="M241 8.5q-23 17.5 -31 49.5l-165 642q15 9 38 9q29 0 49 -14.5t26 -39.5l109 -474l-16 -59l6 -2l161 558q4 15 15.5 23t27.5 8q15 0 27 -8t16 -23l139 -501l-14 -61l6 -2l129 541q6 25 25.5 39.5t47.5 14.5q23 0 40 -9l-165 -642q-8 -32 -31.5 -49.5t-59.5 -17.5
l-171 605l-6 -2l13 -47l-157 -556q-36 0 -59 17.5zM368 768.5q-11 -4.5 -23 -4.5q-16 0 -29.5 6.5t-22.5 18.5l141 147q11 13 29 13t29 -13l141 -147q-9 -12 -22.5 -18.5t-29.5 -6.5q-12 0 -23 4.5t-18 12.5l-77 92l-77 -92q-7 -8 -18 -12.5z" />
    <glyph glyph-name="Wdieresis" unicode="&#x1e84;" horiz-adv-x="922" 
d="M241 8.5q-23 17.5 -31 49.5l-165 642q15 9 38 9q29 0 49 -14.5t26 -39.5l109 -474l-16 -59l6 -2l161 558q4 15 15.5 23t27.5 8q15 0 27 -8t16 -23l139 -501l-14 -61l6 -2l129 541q6 25 25.5 39.5t47.5 14.5q23 0 40 -9l-165 -642q-8 -32 -31.5 -49.5t-59.5 -17.5
l-171 605l-6 -2l13 -47l-157 -556q-36 0 -59 17.5zM326.5 790q-15.5 15 -15.5 39t15.5 39.5t40.5 15.5q24 0 39 -15.5t15 -39.5q0 -23 -15 -38.5t-39 -15.5q-25 0 -40.5 15zM519.5 790.5q-15.5 15.5 -15.5 38.5q0 24 15 39.5t40 15.5t40 -15.5t15 -39.5q0 -23 -15 -38.5
t-40 -15.5q-24 0 -39.5 15.5z" />
    <glyph glyph-name="Wgrave" unicode="&#x1e80;" horiz-adv-x="922" 
d="M241 8.5q-23 17.5 -31 49.5l-165 642q15 9 38 9q29 0 49 -14.5t26 -39.5l109 -474l-16 -59l6 -2l161 558q4 15 15.5 23t27.5 8q15 0 27 -8t16 -23l139 -501l-14 -61l6 -2l129 541q6 25 25.5 39.5t47.5 14.5q23 0 40 -9l-165 -642q-8 -32 -31.5 -49.5t-59.5 -17.5
l-171 605l-6 -2l13 -47l-157 -556q-36 0 -59 17.5zM451 764q-17 4 -28 18l-123 148h59q58 0 77 -34l76 -134q-44 -2 -61 2z" />
    <glyph glyph-name="X" unicode="X" horiz-adv-x="692" 
d="M45 12l249 349l-236 331q20 17 49 17q21 0 38.5 -8t27.5 -22l168 -241l-23 -31l7 -5l194 277q10 14 27.5 22t38.5 8q13 0 26.5 -4.5t22.5 -12.5l-236 -331l249 -349q-21 -21 -52 -21q-18 0 -33.5 8.5t-26.5 23.5l-189 268l-189 -268q-11 -15 -26.5 -23.5t-33.5 -8.5
q-31 0 -52 21z" />
    <glyph glyph-name="Y" unicode="Y" horiz-adv-x="682" 
d="M294 254l-249 443q7 5 21.5 8.5t27.5 3.5q51 0 73 -43l171 -321l-21 -42l7 -4l190 367q23 43 74 43q13 0 27.5 -3.5t21.5 -8.5l-249 -443v-185q0 -38 -24 -58t-70 -20v263z" />
    <glyph glyph-name="Yacute" unicode="&#xdd;" horiz-adv-x="682" 
d="M294 254l-249 443q7 5 21.5 8.5t27.5 3.5q51 0 73 -43l171 -321l-21 -42l7 -4l190 367q23 43 74 43q13 0 27.5 -3.5t21.5 -8.5l-249 -443v-185q0 -38 -24 -58t-70 -20v263zM351 896q14 34 77 34h59l-102 -148q-8 -13 -20 -17t-38 -4l-32 1z" />
    <glyph glyph-name="Ycircumflex" unicode="&#x176;" horiz-adv-x="682" 
d="M294 254l-249 443q7 5 21.5 8.5t27.5 3.5q51 0 73 -43l171 -321l-21 -42l7 -4l190 367q23 43 74 43q13 0 27.5 -3.5t21.5 -8.5l-249 -443v-185q0 -38 -24 -58t-70 -20v263zM248 768.5q-11 -4.5 -23 -4.5q-16 0 -29.5 6.5t-22.5 18.5l141 147q11 13 29 13t29 -13l141 -147
q-9 -12 -22.5 -18.5t-29.5 -6.5q-12 0 -23 4.5t-18 12.5l-77 92l-77 -92q-7 -8 -18 -12.5z" />
    <glyph glyph-name="Ydieresis" unicode="&#x178;" horiz-adv-x="682" 
d="M294 254l-249 443q7 5 21.5 8.5t27.5 3.5q51 0 73 -43l171 -321l-21 -42l7 -4l190 367q23 43 74 43q13 0 27.5 -3.5t21.5 -8.5l-249 -443v-185q0 -38 -24 -58t-70 -20v263zM206.5 790q-15.5 15 -15.5 39t15.5 39.5t40.5 15.5q24 0 39 -15.5t15 -39.5q0 -23 -15 -38.5
t-39 -15.5q-25 0 -40.5 15zM399.5 790.5q-15.5 15.5 -15.5 38.5q0 24 15 39.5t40 15.5t40 -15.5t15 -39.5q0 -23 -15 -38.5t-40 -15.5q-24 0 -39.5 15.5z" />
    <glyph glyph-name="uni1E8E" unicode="&#x1e8e;" horiz-adv-x="682" 
d="M294 254l-249 443q7 5 21.5 8.5t27.5 3.5q51 0 73 -43l171 -321l-21 -42l7 -4l190 367q23 43 74 43q13 0 27.5 -3.5t21.5 -8.5l-249 -443v-185q0 -38 -24 -58t-70 -20v263zM302.5 790.5q-15.5 15.5 -15.5 38.5q0 24 15.5 39.5t40.5 15.5q24 0 39.5 -15.5t15.5 -39.5
q0 -23 -15 -38.5t-40 -15.5t-40.5 15.5z" />
    <glyph glyph-name="uni1EF4" unicode="&#x1ef4;" horiz-adv-x="682" 
d="M294 254l-249 443q7 5 21.5 8.5t27.5 3.5q51 0 73 -43l171 -321l-21 -42l7 -4l190 367q23 43 74 43q13 0 27.5 -3.5t21.5 -8.5l-249 -443v-185q0 -38 -24 -58t-70 -20v263zM301.5 -159.5q-15.5 15.5 -15.5 38.5q0 24 15.5 39.5t40.5 15.5q24 0 39.5 -15.5t15.5 -39.5
t-15.5 -39t-39.5 -15q-25 0 -40.5 15.5z" />
    <glyph glyph-name="Ygrave" unicode="&#x1ef2;" horiz-adv-x="682" 
d="M294 254l-249 443q7 5 21.5 8.5t27.5 3.5q51 0 73 -43l171 -321l-21 -42l7 -4l190 367q23 43 74 43q13 0 27.5 -3.5t21.5 -8.5l-249 -443v-185q0 -38 -24 -58t-70 -20v263zM331 764q-17 4 -28 18l-123 148h59q58 0 77 -34l76 -134q-44 -2 -61 2z" />
    <glyph glyph-name="uni1EF6" unicode="&#x1ef6;" horiz-adv-x="682" 
d="M294 254l-249 443q7 5 21.5 8.5t27.5 3.5q51 0 73 -43l171 -321l-21 -42l7 -4l190 367q23 43 74 43q13 0 27.5 -3.5t21.5 -8.5l-249 -443v-185q0 -38 -24 -58t-70 -20v263zM315 793q0 17 8 29.5t23 26.5q13 11 19.5 20t6.5 21q0 27 -34 27t-34 -35q0 -12 3 -21
q-31 0 -49 10.5t-18 32.5q0 30 28.5 50.5t72.5 20.5q48 0 76 -20t28 -57q0 -20 -8 -32.5t-24 -26.5q-13 -12 -19.5 -21.5t-6.5 -22.5q0 -15 -13.5 -23.5t-33.5 -8.5q-11 0 -25 3v27z" />
    <glyph glyph-name="uni1EF8" unicode="&#x1ef8;" horiz-adv-x="682" 
d="M294 254l-249 443q7 5 21.5 8.5t27.5 3.5q51 0 73 -43l171 -321l-21 -42l7 -4l190 367q23 43 74 43q13 0 27.5 -3.5t21.5 -8.5l-249 -443v-185q0 -38 -24 -58t-70 -20v263zM197.5 780.5q-13.5 16.5 -13.5 41.5q0 34 24 55t61 21q26 0 45 -9.5t44 -28.5q17 -13 27.5 -19
t21.5 -6q15 0 22.5 7t7.5 19q0 14 -8 32q10 5 22 5q20 0 34 -17t14 -41q0 -35 -23 -55.5t-59 -20.5q-23 0 -41 9.5t-43 28.5q-17 14 -30 21t-25 7q-15 0 -23.5 -8t-8.5 -22q0 -17 8 -31q-12 -5 -22 -5q-21 0 -34.5 16.5z" />
    <glyph glyph-name="Z" unicode="Z" horiz-adv-x="682" 
d="M56.5 11q-11.5 11 -11.5 31q0 15 9 26l469 579l-6 5l-28 -33h-349q-36 0 -55 20.5t-19 60.5h523q43 0 43 -42q0 -15 -9 -26l-468 -579l7 -5l27 33h375q35 0 54 -20.5t19 -60.5h-549q-20 0 -31.5 11z" />
    <glyph glyph-name="Zacute" unicode="&#x179;" horiz-adv-x="682" 
d="M56.5 11q-11.5 11 -11.5 31q0 15 9 26l469 579l-6 5l-28 -33h-349q-36 0 -55 20.5t-19 60.5h523q43 0 43 -42q0 -15 -9 -26l-468 -579l7 -5l27 33h375q35 0 54 -20.5t19 -60.5h-549q-20 0 -31.5 11zM355 896q14 34 77 34h59l-102 -148q-8 -13 -20 -17t-38 -4l-32 1z" />
    <glyph glyph-name="Zcaron" unicode="&#x17d;" horiz-adv-x="682" 
d="M56.5 11q-11.5 11 -11.5 31q0 15 9 26l469 579l-6 5l-28 -33h-349q-36 0 -55 20.5t-19 60.5h523q43 0 43 -42q0 -15 -9 -26l-468 -579l7 -5l27 33h375q35 0 54 -20.5t19 -60.5h-549q-20 0 -31.5 11zM423 932q14 17 41 17q15 0 29 -6.5t23 -18.5l-141 -147
q-11 -13 -29 -13t-29 13l-141 147q9 12 23 18.5t29 6.5q27 0 41 -17l77 -92z" />
    <glyph glyph-name="Zdotaccent" unicode="&#x17b;" horiz-adv-x="682" 
d="M56.5 11q-11.5 11 -11.5 31q0 15 9 26l469 579l-6 5l-28 -33h-349q-36 0 -55 20.5t-19 60.5h523q43 0 43 -42q0 -15 -9 -26l-468 -579l7 -5l27 33h375q35 0 54 -20.5t19 -60.5h-549q-20 0 -31.5 11zM306.5 790.5q-15.5 15.5 -15.5 38.5q0 24 15.5 39.5t40.5 15.5
q24 0 39.5 -15.5t15.5 -39.5q0 -23 -15 -38.5t-40 -15.5t-40.5 15.5z" />
    <glyph glyph-name="uni1E92" unicode="&#x1e92;" horiz-adv-x="682" 
d="M56.5 11q-11.5 11 -11.5 31q0 15 9 26l469 579l-6 5l-28 -33h-349q-36 0 -55 20.5t-19 60.5h523q43 0 43 -42q0 -15 -9 -26l-468 -579l7 -5l27 33h375q35 0 54 -20.5t19 -60.5h-549q-20 0 -31.5 11zM305.5 -159.5q-15.5 15.5 -15.5 38.5q0 24 15.5 39.5t40.5 15.5
q24 0 39.5 -15.5t15.5 -39.5t-15.5 -39t-39.5 -15q-25 0 -40.5 15.5z" />
    <glyph glyph-name="a" unicode="a" horiz-adv-x="533" 
d="M97.5 37q-52.5 46 -52.5 121q0 76 55 122.5t145 46.5q96 0 158 -68l4 4q-11 12 -25 25v42q0 51 -32 79t-91 28q-105 0 -150 -83q-16 8 -26.5 21.5t-10.5 27.5q0 27 27 51.5t71.5 39.5t93.5 15q95 0 149.5 -47t54.5 -130v-274q0 -35 -20 -51t-63 -16v47q21 22 23 26l-4 4
q-65 -77 -168 -77q-86 0 -138.5 46zM348.5 86q35.5 26 35.5 72t-35 73t-96 27q-57 0 -89.5 -26.5t-32.5 -73.5t31.5 -72.5t88.5 -25.5q62 0 97.5 26z" />
    <glyph glyph-name="aacute" unicode="&#xe1;" horiz-adv-x="533" 
d="M97.5 37q-52.5 46 -52.5 121q0 76 55 122.5t145 46.5q96 0 158 -68l4 4q-11 12 -25 25v42q0 51 -32 79t-91 28q-105 0 -150 -83q-16 8 -26.5 21.5t-10.5 27.5q0 27 27 51.5t71.5 39.5t93.5 15q95 0 149.5 -47t54.5 -130v-274q0 -35 -20 -51t-63 -16v47q21 22 23 26l-4 4
q-65 -77 -168 -77q-86 0 -138.5 46zM348.5 86q35.5 26 35.5 72t-35 73t-96 27q-57 0 -89.5 -26.5t-32.5 -73.5t31.5 -72.5t88.5 -25.5q62 0 97.5 26zM275 696q14 34 77 34h59l-102 -148q-8 -13 -20 -17t-38 -4l-32 1z" />
    <glyph glyph-name="abreve" unicode="&#x103;" horiz-adv-x="533" 
d="M97.5 37q-52.5 46 -52.5 121q0 76 55 122.5t145 46.5q96 0 158 -68l4 4q-11 12 -25 25v42q0 51 -32 79t-91 28q-105 0 -150 -83q-16 8 -26.5 21.5t-10.5 27.5q0 27 27 51.5t71.5 39.5t93.5 15q95 0 149.5 -47t54.5 -130v-274q0 -35 -20 -51t-63 -16v47q21 22 23 26l-4 4
q-65 -77 -168 -77q-86 0 -138.5 46zM348.5 86q35.5 26 35.5 72t-35 73t-96 27q-57 0 -89.5 -26.5t-32.5 -73.5t31.5 -72.5t88.5 -25.5q62 0 97.5 26zM186 577q-39 16 -63 45.5t-24 67.5q0 62 76 62q0 -60 22 -89.5t69 -29.5t69 29.5t22 89.5q76 0 76 -62q0 -38 -24 -67.5
t-63 -45.5t-80 -16t-80 16z" />
    <glyph glyph-name="uni1EAF" unicode="&#x1eaf;" horiz-adv-x="533" 
d="M97.5 37q-52.5 46 -52.5 121q0 76 55 122.5t145 46.5q96 0 158 -68l4 4q-11 12 -25 25v42q0 51 -32 79t-91 28q-105 0 -150 -83q-16 8 -26.5 21.5t-10.5 27.5q0 27 27 51.5t71.5 39.5t93.5 15q95 0 149.5 -47t54.5 -130v-274q0 -35 -20 -51t-63 -16v47q21 22 23 26l-4 4
q-65 -77 -168 -77q-86 0 -138.5 46zM348.5 86q35.5 26 35.5 72t-35 73t-96 27q-57 0 -89.5 -26.5t-32.5 -73.5t31.5 -72.5t88.5 -25.5q62 0 97.5 26zM275 826q15 31 68 31h42l-81 -113q-8 -11 -19.5 -15.5t-33.5 -4.5l-24 1zM189 574q-37 15 -61 42.5t-24 63.5
q0 28 15.5 43.5t53.5 15.5q0 -111 93 -111t93 111q38 0 53.5 -15.5t15.5 -43.5q0 -36 -24 -63.5t-61 -42.5t-77 -15t-77 15z" />
    <glyph glyph-name="uni1EB7" unicode="&#x1eb7;" horiz-adv-x="533" 
d="M97.5 37q-52.5 46 -52.5 121q0 76 55 122.5t145 46.5q96 0 158 -68l4 4q-11 12 -25 25v42q0 51 -32 79t-91 28q-105 0 -150 -83q-16 8 -26.5 21.5t-10.5 27.5q0 27 27 51.5t71.5 39.5t93.5 15q95 0 149.5 -47t54.5 -130v-274q0 -35 -20 -51t-63 -16v47q21 22 23 26l-4 4
q-65 -77 -168 -77q-86 0 -138.5 46zM348.5 86q35.5 26 35.5 72t-35 73t-96 27q-57 0 -89.5 -26.5t-32.5 -73.5t31.5 -72.5t88.5 -25.5q62 0 97.5 26zM232.5 -159.5q-15.5 15.5 -15.5 38.5q0 24 15.5 39.5t40.5 15.5q24 0 39.5 -15.5t15.5 -39.5t-15.5 -39t-39.5 -15
q-25 0 -40.5 15.5zM186 577q-39 16 -63 45.5t-24 67.5q0 62 76 62q0 -60 22 -89.5t69 -29.5t69 29.5t22 89.5q76 0 76 -62q0 -38 -24 -67.5t-63 -45.5t-80 -16t-80 16z" />
    <glyph glyph-name="uni1EB1" unicode="&#x1eb1;" horiz-adv-x="533" 
d="M97.5 37q-52.5 46 -52.5 121q0 76 55 122.5t145 46.5q96 0 158 -68l4 4q-11 12 -25 25v42q0 51 -32 79t-91 28q-105 0 -150 -83q-16 8 -26.5 21.5t-10.5 27.5q0 27 27 51.5t71.5 39.5t93.5 15q95 0 149.5 -47t54.5 -130v-274q0 -35 -20 -51t-63 -16v47q21 22 23 26l-4 4
q-65 -77 -168 -77q-86 0 -138.5 46zM348.5 86q35.5 26 35.5 72t-35 73t-96 27q-57 0 -89.5 -26.5t-32.5 -73.5t31.5 -72.5t88.5 -25.5q62 0 97.5 26zM280 724q-22 0 -33 4.5t-19 15.5l-83 113h42q53 0 68 -31l49 -101zM189 574q-37 15 -61 42.5t-24 63.5q0 28 15.5 43.5
t53.5 15.5q0 -111 93 -111t93 111q38 0 53.5 -15.5t15.5 -43.5q0 -36 -24 -63.5t-61 -42.5t-77 -15t-77 15z" />
    <glyph glyph-name="uni1EB3" unicode="&#x1eb3;" horiz-adv-x="533" 
d="M97.5 37q-52.5 46 -52.5 121q0 76 55 122.5t145 46.5q96 0 158 -68l4 4q-11 12 -25 25v42q0 51 -32 79t-91 28q-105 0 -150 -83q-16 8 -26.5 21.5t-10.5 27.5q0 27 27 51.5t71.5 39.5t93.5 15q95 0 149.5 -47t54.5 -130v-274q0 -35 -20 -51t-63 -16v47q21 22 23 26l-4 4
q-65 -77 -168 -77q-86 0 -138.5 46zM348.5 86q35.5 26 35.5 72t-35 73t-96 27q-57 0 -89.5 -26.5t-32.5 -73.5t31.5 -72.5t88.5 -25.5q62 0 97.5 26zM231 729q0 15 7 25.5t21 23.5q2 2 8.5 9t10 14t3.5 14q0 11 -8.5 17t-22.5 6q-15 0 -23.5 -8t-8.5 -22q0 -10 3 -18
q-60 0 -60 38q0 26 26 44t65 18q42 0 68 -18t26 -50q0 -17 -6.5 -27.5t-20.5 -24.5q-11 -11 -16.5 -19.5t-5.5 -19.5q0 -14 -12 -21.5t-31 -7.5q-11 0 -23 3v24zM188 574q-37 15 -61 42.5t-24 63.5q0 28 15.5 43.5t53.5 15.5q0 -111 93 -111t93 111q69 0 69 -59
q0 -36 -24 -63.5t-61 -42.5t-77 -15t-77 15z" />
    <glyph glyph-name="uni1EB5" unicode="&#x1eb5;" horiz-adv-x="533" 
d="M97.5 37q-52.5 46 -52.5 121q0 76 55 122.5t145 46.5q96 0 158 -68l4 4q-11 12 -25 25v42q0 51 -32 79t-91 28q-105 0 -150 -83q-16 8 -26.5 21.5t-10.5 27.5q0 27 27 51.5t71.5 39.5t93.5 15q95 0 149.5 -47t54.5 -130v-274q0 -35 -20 -51t-63 -16v47q21 22 23 26l-4 4
q-65 -77 -168 -77q-86 0 -138.5 46zM348.5 86q35.5 26 35.5 72t-35 73t-96 27q-57 0 -89.5 -26.5t-32.5 -73.5t31.5 -72.5t88.5 -25.5q62 0 97.5 26zM129.5 782q-12.5 15 -12.5 38q0 32 22 51t56 19q24 0 41.5 -8.5t40.5 -25.5q14 -11 24.5 -17t20.5 -6q13 0 20 6.5t7 17.5
q0 12 -8 28q10 5 20 5q19 0 32 -16t13 -38q0 -32 -21 -50.5t-54 -18.5q-21 0 -38 9t-39 26q-18 13 -29 19t-22 6q-13 0 -20.5 -7.5t-7.5 -20.5q0 -14 6 -28q-12 -4 -19 -4q-20 0 -32.5 15zM189 574q-37 15 -61 42.5t-24 63.5q0 28 15.5 43.5t53.5 15.5q0 -111 93 -111
t93 111q38 0 53.5 -15.5t15.5 -43.5q0 -36 -24 -63.5t-61 -42.5t-77 -15t-77 15z" />
    <glyph glyph-name="uni01CE" unicode="&#x1ce;" horiz-adv-x="533" 
d="M97.5 37q-52.5 46 -52.5 121q0 76 55 122.5t145 46.5q96 0 158 -68l4 4q-11 12 -25 25v42q0 51 -32 79t-91 28q-105 0 -150 -83q-16 8 -26.5 21.5t-10.5 27.5q0 27 27 51.5t71.5 39.5t93.5 15q95 0 149.5 -47t54.5 -130v-274q0 -35 -20 -51t-63 -16v47q21 22 23 26l-4 4
q-65 -77 -168 -77q-86 0 -138.5 46zM348.5 86q35.5 26 35.5 72t-35 73t-96 27q-57 0 -89.5 -26.5t-32.5 -73.5t31.5 -72.5t88.5 -25.5q62 0 97.5 26zM343 732q14 17 41 17q15 0 29 -6.5t23 -18.5l-141 -147q-11 -13 -29 -13t-29 13l-141 147q9 12 23 18.5t29 6.5
q27 0 41 -17l77 -92z" />
    <glyph glyph-name="acircumflex" unicode="&#xe2;" horiz-adv-x="533" 
d="M97.5 37q-52.5 46 -52.5 121q0 76 55 122.5t145 46.5q96 0 158 -68l4 4q-11 12 -25 25v42q0 51 -32 79t-91 28q-105 0 -150 -83q-16 8 -26.5 21.5t-10.5 27.5q0 27 27 51.5t71.5 39.5t93.5 15q95 0 149.5 -47t54.5 -130v-274q0 -35 -20 -51t-63 -16v47q21 22 23 26l-4 4
q-65 -77 -168 -77q-86 0 -138.5 46zM348.5 86q35.5 26 35.5 72t-35 73t-96 27q-57 0 -89.5 -26.5t-32.5 -73.5t31.5 -72.5t88.5 -25.5q62 0 97.5 26zM172 568.5q-11 -4.5 -23 -4.5q-16 0 -29.5 6.5t-22.5 18.5l141 147q11 13 29 13t29 -13l141 -147q-9 -12 -22.5 -18.5
t-29.5 -6.5q-12 0 -23 4.5t-18 12.5l-77 92l-77 -92q-7 -8 -18 -12.5z" />
    <glyph glyph-name="uni1EA5" unicode="&#x1ea5;" horiz-adv-x="533" 
d="M97.5 37q-52.5 46 -52.5 121q0 76 55 122.5t145 46.5q96 0 158 -68l4 4q-11 12 -25 25v42q0 51 -32 79t-91 28q-105 0 -150 -83q-16 8 -26.5 21.5t-10.5 27.5q0 27 27 51.5t71.5 39.5t93.5 15q95 0 149.5 -47t54.5 -130v-274q0 -35 -20 -51t-63 -16v47q21 22 23 26l-4 4
q-65 -77 -168 -77q-86 0 -138.5 46zM348.5 86q35.5 26 35.5 72t-35 73t-96 27q-57 0 -89.5 -26.5t-32.5 -73.5t31.5 -72.5t88.5 -25.5q62 0 97.5 26zM401 827q7 16 24 23t45 7h41l-85 -118q-8 -11 -18.5 -15.5t-31.5 -4.5q-16 0 -26 1zM188 581q-14 -17 -41 -17
q-16 0 -30 6.5t-22 18.5l141 147q11 13 29 13t29 -13l141 -147q-9 -12 -23 -18.5t-29 -6.5q-27 0 -41 17l-77 92z" />
    <glyph glyph-name="uni1EAD" unicode="&#x1ead;" horiz-adv-x="533" 
d="M97.5 37q-52.5 46 -52.5 121q0 76 55 122.5t145 46.5q96 0 158 -68l4 4q-11 12 -25 25v42q0 51 -32 79t-91 28q-105 0 -150 -83q-16 8 -26.5 21.5t-10.5 27.5q0 27 27 51.5t71.5 39.5t93.5 15q95 0 149.5 -47t54.5 -130v-274q0 -35 -20 -51t-63 -16v47q21 22 23 26l-4 4
q-65 -77 -168 -77q-86 0 -138.5 46zM348.5 86q35.5 26 35.5 72t-35 73t-96 27q-57 0 -89.5 -26.5t-32.5 -73.5t31.5 -72.5t88.5 -25.5q62 0 97.5 26zM232.5 -159.5q-15.5 15.5 -15.5 38.5q0 24 15.5 39.5t40.5 15.5q24 0 39.5 -15.5t15.5 -39.5t-15.5 -39t-39.5 -15
q-25 0 -40.5 15.5zM172 568.5q-11 -4.5 -23 -4.5q-16 0 -29.5 6.5t-22.5 18.5l141 147q11 13 29 13t29 -13l141 -147q-9 -12 -22.5 -18.5t-29.5 -6.5q-12 0 -23 4.5t-18 12.5l-77 92l-77 -92q-7 -8 -18 -12.5z" />
    <glyph glyph-name="uni1EA7" unicode="&#x1ea7;" horiz-adv-x="533" 
d="M97.5 37q-52.5 46 -52.5 121q0 76 55 122.5t145 46.5q96 0 158 -68l4 4q-11 12 -25 25v42q0 51 -32 79t-91 28q-105 0 -150 -83q-16 8 -26.5 21.5t-10.5 27.5q0 27 27 51.5t71.5 39.5t93.5 15q95 0 149.5 -47t54.5 -130v-274q0 -35 -20 -51t-63 -16v47q21 22 23 26l-4 4
q-65 -77 -168 -77q-86 0 -138.5 46zM348.5 86q35.5 26 35.5 72t-35 73t-96 27q-57 0 -89.5 -26.5t-32.5 -73.5t31.5 -72.5t88.5 -25.5q62 0 97.5 26zM415 719q-19 0 -29.5 4.5t-18.5 15.5l-78 118h42q28 0 44.5 -7t23.5 -23l44 -107q-11 -1 -28 -1zM188 581q-14 -17 -41 -17
q-16 0 -30 6.5t-22 18.5l141 147q11 13 29 13t29 -13l141 -147q-9 -12 -23 -18.5t-29 -6.5q-27 0 -41 17l-77 92z" />
    <glyph glyph-name="uni1EA9" unicode="&#x1ea9;" horiz-adv-x="533" 
d="M97.5 37q-52.5 46 -52.5 121q0 76 55 122.5t145 46.5q96 0 158 -68l4 4q-11 12 -25 25v42q0 51 -32 79t-91 28q-105 0 -150 -83q-16 8 -26.5 21.5t-10.5 27.5q0 27 27 51.5t71.5 39.5t93.5 15q95 0 149.5 -47t54.5 -130v-274q0 -35 -20 -51t-63 -16v47q21 22 23 26l-4 4
q-65 -77 -168 -77q-86 0 -138.5 46zM348.5 86q35.5 26 35.5 72t-35 73t-96 27q-57 0 -89.5 -26.5t-32.5 -73.5t31.5 -72.5t88.5 -25.5q62 0 97.5 26zM369 719q0 15 7 25.5t21 23.5q2 2 8.5 9t10 14t3.5 14q0 10 -8.5 16t-23.5 6q-31 0 -31 -30q0 -12 2 -17q-28 0 -44 9
t-16 28q0 26 26.5 44.5t65.5 18.5q42 0 68 -18.5t26 -50.5q0 -17 -7 -28t-20 -23q-11 -10 -17 -19t-6 -20q0 -14 -12 -21.5t-30 -7.5q-11 0 -23 3v24zM188 581q-14 -17 -41 -17q-16 0 -30 6.5t-22 18.5l141 147q11 13 29 13t29 -13l141 -147q-9 -12 -23 -18.5t-29 -6.5
q-27 0 -41 17l-77 92z" />
    <glyph glyph-name="uni1EAB" unicode="&#x1eab;" horiz-adv-x="533" 
d="M97.5 37q-52.5 46 -52.5 121q0 76 55 122.5t145 46.5q96 0 158 -68l4 4q-11 12 -25 25v42q0 51 -32 79t-91 28q-105 0 -150 -83q-16 8 -26.5 21.5t-10.5 27.5q0 27 27 51.5t71.5 39.5t93.5 15q95 0 149.5 -47t54.5 -130v-274q0 -35 -20 -51t-63 -16v47q21 22 23 26l-4 4
q-65 -77 -168 -77q-86 0 -138.5 46zM348.5 86q35.5 26 35.5 72t-35 73t-96 27q-57 0 -89.5 -26.5t-32.5 -73.5t31.5 -72.5t88.5 -25.5q62 0 97.5 26zM140.5 781q-12.5 15 -12.5 38q0 32 22 51.5t56 19.5q24 0 41.5 -8.5t40.5 -25.5q27 -22 45 -22q27 0 27 23q0 12 -8 28
q10 5 20 5q19 0 32 -16t13 -38q0 -32 -21 -50t-54 -18q-21 0 -37.5 8.5t-39.5 25.5q-18 13 -29 19t-22 6q-13 0 -20.5 -8t-7.5 -21q0 -14 6 -28q-12 -4 -19 -4q-20 0 -32.5 15zM147 564q-16 0 -30 6.5t-22 18.5l141 147q11 13 29 13t29 -13l141 -147q-9 -12 -23 -18.5
t-29 -6.5q-27 0 -41 17l-77 92l-77 -92q-14 -17 -41 -17z" />
    <glyph glyph-name="adieresis" unicode="&#xe4;" horiz-adv-x="533" 
d="M97.5 37q-52.5 46 -52.5 121q0 76 55 122.5t145 46.5q96 0 158 -68l4 4q-11 12 -25 25v42q0 51 -32 79t-91 28q-105 0 -150 -83q-16 8 -26.5 21.5t-10.5 27.5q0 27 27 51.5t71.5 39.5t93.5 15q95 0 149.5 -47t54.5 -130v-274q0 -35 -20 -51t-63 -16v47q21 22 23 26l-4 4
q-65 -77 -168 -77q-86 0 -138.5 46zM348.5 86q35.5 26 35.5 72t-35 73t-96 27q-57 0 -89.5 -26.5t-32.5 -73.5t31.5 -72.5t88.5 -25.5q62 0 97.5 26zM130.5 590q-15.5 15 -15.5 39t15.5 39.5t40.5 15.5q24 0 39 -15.5t15 -39.5q0 -23 -15 -38.5t-39 -15.5q-25 0 -40.5 15z
M323.5 590.5q-15.5 15.5 -15.5 38.5q0 24 15 39.5t40 15.5t40 -15.5t15 -39.5q0 -23 -15 -38.5t-40 -15.5q-24 0 -39.5 15.5z" />
    <glyph glyph-name="uni1EA1" unicode="&#x1ea1;" horiz-adv-x="533" 
d="M97.5 37q-52.5 46 -52.5 121q0 76 55 122.5t145 46.5q96 0 158 -68l4 4q-11 12 -25 25v42q0 51 -32 79t-91 28q-105 0 -150 -83q-16 8 -26.5 21.5t-10.5 27.5q0 27 27 51.5t71.5 39.5t93.5 15q95 0 149.5 -47t54.5 -130v-274q0 -35 -20 -51t-63 -16v47q21 22 23 26l-4 4
q-65 -77 -168 -77q-86 0 -138.5 46zM348.5 86q35.5 26 35.5 72t-35 73t-96 27q-57 0 -89.5 -26.5t-32.5 -73.5t31.5 -72.5t88.5 -25.5q62 0 97.5 26zM232.5 -159.5q-15.5 15.5 -15.5 38.5q0 24 15.5 39.5t40.5 15.5q24 0 39.5 -15.5t15.5 -39.5t-15.5 -39t-39.5 -15
q-25 0 -40.5 15.5z" />
    <glyph glyph-name="agrave" unicode="&#xe0;" horiz-adv-x="533" 
d="M97.5 37q-52.5 46 -52.5 121q0 76 55 122.5t145 46.5q96 0 158 -68l4 4q-11 12 -25 25v42q0 51 -32 79t-91 28q-105 0 -150 -83q-16 8 -26.5 21.5t-10.5 27.5q0 27 27 51.5t71.5 39.5t93.5 15q95 0 149.5 -47t54.5 -130v-274q0 -35 -20 -51t-63 -16v47q21 22 23 26l-4 4
q-65 -77 -168 -77q-86 0 -138.5 46zM348.5 86q35.5 26 35.5 72t-35 73t-96 27q-57 0 -89.5 -26.5t-32.5 -73.5t31.5 -72.5t88.5 -25.5q62 0 97.5 26zM255 564q-17 4 -28 18l-123 148h59q58 0 77 -34l76 -134q-44 -2 -61 2z" />
    <glyph glyph-name="uni1EA3" unicode="&#x1ea3;" horiz-adv-x="533" 
d="M97.5 37q-52.5 46 -52.5 121q0 76 55 122.5t145 46.5q96 0 158 -68l4 4q-11 12 -25 25v42q0 51 -32 79t-91 28q-105 0 -150 -83q-16 8 -26.5 21.5t-10.5 27.5q0 27 27 51.5t71.5 39.5t93.5 15q95 0 149.5 -47t54.5 -130v-274q0 -35 -20 -51t-63 -16v47q21 22 23 26l-4 4
q-65 -77 -168 -77q-86 0 -138.5 46zM348.5 86q35.5 26 35.5 72t-35 73t-96 27q-57 0 -89.5 -26.5t-32.5 -73.5t31.5 -72.5t88.5 -25.5q62 0 97.5 26zM239 593q0 17 8 29.5t23 26.5q13 11 19.5 20t6.5 21q0 27 -34 27t-34 -35q0 -12 3 -21q-31 0 -49 10.5t-18 32.5
q0 30 28.5 50.5t72.5 20.5q48 0 76 -20t28 -57q0 -20 -8 -32.5t-24 -26.5q-13 -12 -19.5 -21.5t-6.5 -22.5q0 -15 -13.5 -23.5t-33.5 -8.5q-11 0 -25 3v27z" />
    <glyph glyph-name="uni0251" unicode="&#x251;" horiz-adv-x="554" 
d="M113.5 38.5q-53.5 47.5 -53.5 126.5v171q0 51 25 90.5t69.5 61t102.5 21.5q54 0 91 -22t68 -63l4 5q-2 4 -22 29v11q0 40 86 40v-447q0 -33 -19.5 -52t-62.5 -19v56q14 18 19 26l-3 4q-32 -40 -71 -63t-94 -23q-86 0 -139.5 47.5zM361 95.5q36 27.5 36 68.5v167
q0 44 -34 72.5t-92 28.5q-59 0 -91.5 -26.5t-32.5 -73.5v-163q0 -49 32.5 -75t92.5 -26q53 0 89 27.5z" />
    <glyph glyph-name="amacron" unicode="&#x101;" horiz-adv-x="533" 
d="M97.5 37q-52.5 46 -52.5 121q0 76 55 122.5t145 46.5q96 0 158 -68l4 4q-11 12 -25 25v42q0 51 -32 79t-91 28q-105 0 -150 -83q-16 8 -26.5 21.5t-10.5 27.5q0 27 27 51.5t71.5 39.5t93.5 15q95 0 149.5 -47t54.5 -130v-274q0 -35 -20 -51t-63 -16v47q21 22 23 26l-4 4
q-65 -77 -168 -77q-86 0 -138.5 46zM348.5 86q35.5 26 35.5 72t-35 73t-96 27q-57 0 -89.5 -26.5t-32.5 -73.5t31.5 -72.5t88.5 -25.5q62 0 97.5 26zM172 656h256q0 -71 -68 -71h-256q0 71 68 71z" />
    <glyph glyph-name="aogonek" unicode="&#x105;" horiz-adv-x="533" 
d="M473 -140q0 -22 -21.5 -37.5t-54.5 -15.5q-41 0 -65.5 23.5t-24.5 62.5q0 34 20 64t58 49v32q21 22 23 26l-4 4q-65 -77 -168 -77q-86 0 -138.5 46t-52.5 121q0 76 55 122.5t145 46.5q96 0 158 -68l4 4q-11 12 -25 25v42q0 51 -32 79t-91 28q-105 0 -150 -83
q-16 8 -26.5 21.5t-10.5 27.5q0 27 27 51.5t71.5 39.5t93.5 15q95 0 149.5 -47t54.5 -130v-274q0 -42 -31 -58q-50 -45 -50 -94q0 -20 11 -31.5t30 -11.5q25 0 40 19q5 -13 5 -22zM348.5 86q35.5 26 35.5 72t-35 73t-96 27q-57 0 -89.5 -26.5t-32.5 -73.5t31.5 -72.5
t88.5 -25.5q62 0 97.5 26z" />
    <glyph glyph-name="aring" unicode="&#xe5;" horiz-adv-x="533" 
d="M97.5 37q-52.5 46 -52.5 121q0 76 55 122.5t145 46.5q96 0 158 -68l4 4q-11 12 -25 25v42q0 51 -32 79t-91 28q-105 0 -150 -83q-16 8 -26.5 21.5t-10.5 27.5q0 27 27 51.5t71.5 39.5t93.5 15q95 0 149.5 -47t54.5 -130v-274q0 -35 -20 -51t-63 -16v47q21 22 23 26l-4 4
q-65 -77 -168 -77q-86 0 -138.5 46zM348.5 86q35.5 26 35.5 72t-35 73t-96 27q-57 0 -89.5 -26.5t-32.5 -73.5t31.5 -72.5t88.5 -25.5q62 0 97.5 26zM184.5 575q-31.5 29 -31.5 75t31.5 74.5t81.5 28.5q49 0 80 -28.5t31 -74.5t-31 -75t-80 -29q-50 0 -81.5 29zM302.5 613
q14.5 14 14.5 37t-14.5 37t-36.5 14q-23 0 -37 -14t-14 -37t14 -37t37 -14q22 0 36.5 14z" />
    <glyph glyph-name="aringacute" unicode="&#x1fb;" horiz-adv-x="533" 
d="M273 882q11 27 62 27h47l-82 -118q-7 -10 -16 -13.5t-29 -3.5l-27 1zM184.5 575q-31.5 29 -31.5 75t31.5 74.5t81.5 28.5q49 0 80 -28.5t31 -74.5t-31 -75t-80 -29q-50 0 -81.5 29zM302.5 613q14.5 14 14.5 37t-14.5 37t-36.5 14q-23 0 -37 -14t-14 -37t14 -37t37 -14
q22 0 36.5 14zM97.5 37q-52.5 46 -52.5 121q0 76 55 122.5t145 46.5q96 0 158 -68l4 4q-11 12 -25 25v42q0 51 -32 79t-91 28q-105 0 -150 -83q-16 8 -26.5 21.5t-10.5 27.5q0 27 27 51.5t71.5 39.5t93.5 15q95 0 149.5 -47t54.5 -130v-274q0 -35 -20 -51t-63 -16v47
q21 22 23 26l-4 4q-65 -77 -168 -77q-86 0 -138.5 46zM348.5 86q35.5 26 35.5 72t-35 73t-96 27q-57 0 -89.5 -26.5t-32.5 -73.5t31.5 -72.5t88.5 -25.5q62 0 97.5 26z" />
    <glyph glyph-name="atilde" unicode="&#xe3;" horiz-adv-x="533" 
d="M97.5 37q-52.5 46 -52.5 121q0 76 55 122.5t145 46.5q96 0 158 -68l4 4q-11 12 -25 25v42q0 51 -32 79t-91 28q-105 0 -150 -83q-16 8 -26.5 21.5t-10.5 27.5q0 27 27 51.5t71.5 39.5t93.5 15q95 0 149.5 -47t54.5 -130v-274q0 -35 -20 -51t-63 -16v47q21 22 23 26l-4 4
q-65 -77 -168 -77q-86 0 -138.5 46zM348.5 86q35.5 26 35.5 72t-35 73t-96 27q-57 0 -89.5 -26.5t-32.5 -73.5t31.5 -72.5t88.5 -25.5q62 0 97.5 26zM121.5 580.5q-13.5 16.5 -13.5 41.5q0 34 24 55t61 21q26 0 45 -9.5t44 -28.5q17 -13 27.5 -19t21.5 -6q15 0 22.5 7
t7.5 19q0 14 -8 32q10 5 22 5q20 0 34 -17t14 -41q0 -35 -23 -55.5t-59 -20.5q-23 0 -41 9.5t-43 28.5q-17 14 -30 21t-25 7q-15 0 -23.5 -8t-8.5 -22q0 -17 8 -31q-12 -5 -22 -5q-21 0 -34.5 16.5z" />
    <glyph glyph-name="ae" unicode="&#xe6;" horiz-adv-x="846" 
d="M99 37q-54 46 -54 121q0 76 55 122.5t145 46.5q96 0 158 -68l4 4q-11 12 -25 25v42q0 51 -32 79t-91 28q-105 0 -150 -83q-16 8 -26.5 21.5t-10.5 27.5q0 27 27 51.5t71.5 39.5t93.5 15q56 0 99 -21t67 -59q27 37 71 58.5t93 21.5q58 0 105.5 -24.5t74.5 -66.5t27 -94
v-64q0 -16 -12 -27t-29 -11h-292v-45q0 -53 33.5 -83t92.5 -30t92 26.5t33 73.5q31 2 51 -12t20 -39q0 -31 -27 -59.5t-71.5 -45.5t-94.5 -17q-56 0 -101.5 21.5t-66.5 58.5q-28 -37 -78.5 -58.5t-109.5 -21.5q-88 0 -142 46zM720 290v34q0 50 -35 81.5t-91 31.5t-91 -31.5
t-35 -81.5v-34h252zM383 164q0 45 -34 69.5t-96 24.5q-56 0 -89 -27t-33 -73t32 -72t88 -26q132 0 132 104z" />
    <glyph glyph-name="aeacute" unicode="&#x1fd;" horiz-adv-x="846" 
d="M99 37q-54 46 -54 121q0 76 55 122.5t145 46.5q96 0 158 -68l4 4q-11 12 -25 25v42q0 51 -32 79t-91 28q-105 0 -150 -83q-16 8 -26.5 21.5t-10.5 27.5q0 27 27 51.5t71.5 39.5t93.5 15q56 0 99 -21t67 -59q27 37 71 58.5t93 21.5q58 0 105.5 -24.5t74.5 -66.5t27 -94
v-64q0 -16 -12 -27t-29 -11h-292v-45q0 -53 33.5 -83t92.5 -30t92 26.5t33 73.5q31 2 51 -12t20 -39q0 -31 -27 -59.5t-71.5 -45.5t-94.5 -17q-56 0 -101.5 21.5t-66.5 58.5q-28 -37 -78.5 -58.5t-109.5 -21.5q-88 0 -142 46zM720 290v34q0 50 -35 81.5t-91 31.5t-91 -31.5
t-35 -81.5v-34h252zM383 164q0 45 -34 69.5t-96 24.5q-56 0 -89 -27t-33 -73t32 -72t88 -26q132 0 132 104zM438 705q14 34 77 34h59l-102 -148q-8 -13 -20 -17t-38 -4l-32 1z" />
    <glyph glyph-name="b" unicode="b" horiz-adv-x="554" 
d="M70 641q0 68 88 68v-244q-15 -13 -21 -22l3 -5q30 32 73.5 51.5t85.5 19.5q89 0 142 -47t53 -126v-171q0 -50 -24.5 -90t-68.5 -62t-100 -22q-98 0 -165 86l-3 -4q6 -9 20 -25q0 -29 -20 -43t-63 -14v650zM375.5 94q32.5 26 32.5 75v163q0 47 -33 73.5t-92 26.5
q-52 0 -89 -28t-37 -67v-173q0 -41 36 -68.5t89 -27.5q61 0 93.5 26z" />
    <glyph glyph-name="c" unicode="c" horiz-adv-x="512" 
d="M161 13q-48 22 -74.5 62t-26.5 91v162q0 53 26.5 94t73.5 64t108 23q57 0 101.5 -16.5t69.5 -46.5t25 -68q0 -25 -19.5 -40.5t-50.5 -13.5q0 48 -34.5 78t-89.5 30t-89 -29.5t-34 -76.5v-156q0 -45 35 -73.5t90 -28.5t89.5 30t34.5 77q32 2 51.5 -12.5t19.5 -40.5
q0 -38 -25 -68t-70 -46.5t-102 -16.5q-61 0 -109 22z" />
    <glyph glyph-name="cacute" unicode="&#x107;" horiz-adv-x="512" 
d="M161 13q-48 22 -74.5 62t-26.5 91v162q0 53 26.5 94t73.5 64t108 23q57 0 101.5 -16.5t69.5 -46.5t25 -68q0 -25 -19.5 -40.5t-50.5 -13.5q0 48 -34.5 78t-89.5 30t-89 -29.5t-34 -76.5v-156q0 -45 35 -73.5t90 -28.5t89.5 30t34.5 77q32 2 51.5 -12.5t19.5 -40.5
q0 -38 -25 -68t-70 -46.5t-102 -16.5q-61 0 -109 22zM277 696q14 34 77 34h59l-102 -148q-8 -13 -20 -17t-38 -4l-32 1z" />
    <glyph glyph-name="ccaron" unicode="&#x10d;" horiz-adv-x="512" 
d="M161 13q-48 22 -74.5 62t-26.5 91v162q0 53 26.5 94t73.5 64t108 23q57 0 101.5 -16.5t69.5 -46.5t25 -68q0 -25 -19.5 -40.5t-50.5 -13.5q0 48 -34.5 78t-89.5 30t-89 -29.5t-34 -76.5v-156q0 -45 35 -73.5t90 -28.5t89.5 30t34.5 77q32 2 51.5 -12.5t19.5 -40.5
q0 -38 -25 -68t-70 -46.5t-102 -16.5q-61 0 -109 22zM345 732q14 17 41 17q15 0 29 -6.5t23 -18.5l-141 -147q-11 -13 -29 -13t-29 13l-141 147q9 12 23 18.5t29 6.5q27 0 41 -17l77 -92z" />
    <glyph glyph-name="ccedilla" unicode="&#xe7;" horiz-adv-x="512" 
d="M424.5 37q-42.5 -35 -113.5 -44l-26 -37q44 0 68.5 -23.5t24.5 -60.5q0 -43 -30.5 -68t-80.5 -25q-43 0 -72 18.5t-29 43.5q0 19 12 30q29 -36 78 -36q50 0 50 38q0 18 -12.5 28t-34.5 10q-20 2 -37 -6q-10 -3 -18.5 4t-8.5 18q0 7 4 14l35 52q-79 10 -126.5 57
t-47.5 116v162q0 53 26.5 94t73.5 64t108 23q57 0 101.5 -16.5t69.5 -46.5t25 -68q0 -25 -19.5 -40.5t-50.5 -13.5q0 48 -34.5 78t-89.5 30t-89 -29.5t-34 -76.5v-156q0 -45 35 -73.5t90 -28.5t89.5 30t34.5 77q32 2 51.5 -12.5t19.5 -40.5q0 -50 -42.5 -85z" />
    <glyph glyph-name="ccircumflex" unicode="&#x109;" horiz-adv-x="512" 
d="M161 13q-48 22 -74.5 62t-26.5 91v162q0 53 26.5 94t73.5 64t108 23q57 0 101.5 -16.5t69.5 -46.5t25 -68q0 -25 -19.5 -40.5t-50.5 -13.5q0 48 -34.5 78t-89.5 30t-89 -29.5t-34 -76.5v-156q0 -45 35 -73.5t90 -28.5t89.5 30t34.5 77q32 2 51.5 -12.5t19.5 -40.5
q0 -38 -25 -68t-70 -46.5t-102 -16.5q-61 0 -109 22zM174 568.5q-11 -4.5 -23 -4.5q-16 0 -29.5 6.5t-22.5 18.5l141 147q11 13 29 13t29 -13l141 -147q-9 -12 -22.5 -18.5t-29.5 -6.5q-12 0 -23 4.5t-18 12.5l-77 92l-77 -92q-7 -8 -18 -12.5z" />
    <glyph glyph-name="cdotaccent" unicode="&#x10b;" horiz-adv-x="512" 
d="M161 13q-48 22 -74.5 62t-26.5 91v162q0 53 26.5 94t73.5 64t108 23q57 0 101.5 -16.5t69.5 -46.5t25 -68q0 -25 -19.5 -40.5t-50.5 -13.5q0 48 -34.5 78t-89.5 30t-89 -29.5t-34 -76.5v-156q0 -45 35 -73.5t90 -28.5t89.5 30t34.5 77q32 2 51.5 -12.5t19.5 -40.5
q0 -38 -25 -68t-70 -46.5t-102 -16.5q-61 0 -109 22zM228.5 590.5q-15.5 15.5 -15.5 38.5q0 24 15.5 39.5t40.5 15.5q24 0 39.5 -15.5t15.5 -39.5q0 -23 -15 -38.5t-40 -15.5t-40.5 15.5z" />
    <glyph glyph-name="d" unicode="d" horiz-adv-x="554" 
d="M113.5 38.5q-53.5 47.5 -53.5 126.5v171q0 51 25 90.5t69.5 61t102.5 21.5q47 0 87 -19.5t70 -51.5l3 5q-7 10 -21 22v176q0 33 22 50.5t66 17.5v-647q0 -33 -19.5 -52t-62.5 -19v56q14 18 19 26l-3 4q-32 -40 -71 -63t-94 -23q-86 0 -139.5 47.5zM361 95.5
q36 27.5 36 68.5v173q0 40 -34 67.5t-92 27.5q-59 0 -91.5 -26.5t-32.5 -73.5v-163q0 -49 32.5 -75t92.5 -26q53 0 89 27.5z" />
    <glyph glyph-name="eth" unicode="&#xf0;" horiz-adv-x="623" 
d="M172 24.5q-60 33.5 -93.5 93t-33.5 132.5q0 79 34 138.5t91 91.5t126 32q53 0 102 -24t85 -68l5 5q-3 4 -13.5 19t-22.5 25q-26 44 -59 77t-79 58l-145 -67q-6 14 -6 25q0 27 29 41l63 30q-35 17 -74 30q-15 4 -24.5 18.5t-9.5 32.5q0 23 14 36q96 -21 185 -74l126 57
q7 -16 7 -26q0 -26 -30 -40l-54 -24q93 -68 138 -160.5t45 -212.5q0 -87 -37 -150.5t-98.5 -96t-134.5 -32.5q-76 0 -136 33.5zM398.5 91q40.5 23 64 67t23.5 103q0 84 -47 133t-127 49q-56 0 -96.5 -26t-61.5 -70.5t-21 -97.5t24.5 -94t64 -64t84.5 -23q52 0 92.5 23z" />
    <glyph glyph-name="dcaron" unicode="&#x10f;" horiz-adv-x="678" 
d="M621.5 585.5q16.5 31.5 16.5 58.5q-4 -2 -10 -3.5t-12 -1.5q-29 0 -46.5 17.5t-17.5 46.5q0 31 20 50.5t52 19.5q33 0 53.5 -21t20.5 -52q0 -62 -19 -102t-56 -74q-10 -8 -28 -8q-14 0 -22 6q32 32 48.5 63.5zM113.5 38.5q-53.5 47.5 -53.5 126.5v171q0 51 25 90.5
t69.5 61t102.5 21.5q47 0 87 -19.5t70 -51.5l3 5q-7 10 -21 22v176q0 33 22 50.5t66 17.5v-647q0 -33 -19.5 -52t-62.5 -19v56q14 18 19 26l-3 4q-32 -40 -71 -63t-94 -23q-86 0 -139.5 47.5zM361 95.5q36 27.5 36 68.5v173q0 40 -34 67.5t-92 27.5q-59 0 -91.5 -26.5
t-32.5 -73.5v-163q0 -49 32.5 -75t92.5 -26q53 0 89 27.5z" />
    <glyph glyph-name="dcroat" unicode="&#x111;" horiz-adv-x="578" 
d="M563 615q0 -62 -54 -62h-25v-491q0 -33 -19.5 -52t-62.5 -19v56q14 18 19 26l-3 4q-32 -40 -71 -63t-94 -23q-86 0 -139.5 47.5t-53.5 126.5v171q0 51 25 90.5t69.5 61t102.5 21.5q47 0 87 -19.5t70 -51.5l3 5q-7 10 -21 22v88h-139q0 62 54 62h85v26q0 33 22 50.5
t66 17.5v-94h79zM397 337q0 40 -34 67.5t-92 27.5q-59 0 -91.5 -26.5t-32.5 -73.5v-163q0 -49 32.5 -75t92.5 -26q53 0 89 27.5t36 68.5v173z" />
    <glyph glyph-name="uni1E0D" unicode="&#x1e0d;" horiz-adv-x="554" 
d="M113.5 38.5q-53.5 47.5 -53.5 126.5v171q0 51 25 90.5t69.5 61t102.5 21.5q47 0 87 -19.5t70 -51.5l3 5q-7 10 -21 22v176q0 33 22 50.5t66 17.5v-647q0 -33 -19.5 -52t-62.5 -19v56q14 18 19 26l-3 4q-32 -40 -71 -63t-94 -23q-86 0 -139.5 47.5zM361 95.5
q36 27.5 36 68.5v173q0 40 -34 67.5t-92 27.5q-59 0 -91.5 -26.5t-32.5 -73.5v-163q0 -49 32.5 -75t92.5 -26q53 0 89 27.5zM233.5 -159.5q-15.5 15.5 -15.5 38.5q0 24 15.5 39.5t40.5 15.5q24 0 39.5 -15.5t15.5 -39.5t-15.5 -39t-39.5 -15q-25 0 -40.5 15.5z" />
    <glyph glyph-name="uni1E0F" unicode="&#x1e0f;" horiz-adv-x="554" 
d="M113.5 38.5q-53.5 47.5 -53.5 126.5v171q0 51 25 90.5t69.5 61t102.5 21.5q47 0 87 -19.5t70 -51.5l3 5q-7 10 -21 22v176q0 33 22 50.5t66 17.5v-647q0 -33 -19.5 -52t-62.5 -19v56q14 18 19 26l-3 4q-32 -40 -71 -63t-94 -23q-86 0 -139.5 47.5zM361 95.5
q36 27.5 36 68.5v173q0 40 -34 67.5t-92 27.5q-59 0 -91.5 -26.5t-32.5 -73.5v-163q0 -49 32.5 -75t92.5 -26q53 0 89 27.5zM180 -57h256q0 -71 -68 -71h-256q0 71 68 71z" />
    <glyph glyph-name="e" unicode="e" horiz-adv-x="523" 
d="M162 14.5q-48 23.5 -75 65t-27 93.5v148q0 53 28.5 96t77 67.5t105.5 24.5t104.5 -24t75 -66t27.5 -95v-64q0 -16 -12 -27t-29 -11h-292v-45q0 -51 32.5 -82t93.5 -31t93 27t32 73q30 2 50.5 -11.5t20.5 -39.5q0 -32 -27.5 -60t-72.5 -45t-96 -17q-61 0 -109 23.5z
M397 290v34q0 50 -34.5 81.5t-91.5 31.5t-91.5 -31.5t-34.5 -81.5v-34h252z" />
    <glyph glyph-name="eacute" unicode="&#xe9;" horiz-adv-x="523" 
d="M162 14.5q-48 23.5 -75 65t-27 93.5v148q0 53 28.5 96t77 67.5t105.5 24.5t104.5 -24t75 -66t27.5 -95v-64q0 -16 -12 -27t-29 -11h-292v-45q0 -51 32.5 -82t93.5 -31t93 27t32 73q30 2 50.5 -11.5t20.5 -39.5q0 -32 -27.5 -60t-72.5 -45t-96 -17q-61 0 -109 23.5z
M397 290v34q0 50 -34.5 81.5t-91.5 31.5t-91.5 -31.5t-34.5 -81.5v-34h252zM281 696q14 34 77 34h59l-102 -148q-8 -13 -20 -17t-38 -4l-32 1z" />
    <glyph glyph-name="ebreve" unicode="&#x115;" horiz-adv-x="523" 
d="M162 14.5q-48 23.5 -75 65t-27 93.5v148q0 53 28.5 96t77 67.5t105.5 24.5t104.5 -24t75 -66t27.5 -95v-64q0 -16 -12 -27t-29 -11h-292v-45q0 -51 32.5 -82t93.5 -31t93 27t32 73q30 2 50.5 -11.5t20.5 -39.5q0 -32 -27.5 -60t-72.5 -45t-96 -17q-61 0 -109 23.5z
M397 290v34q0 50 -34.5 81.5t-91.5 31.5t-91.5 -31.5t-34.5 -81.5v-34h252zM192 577q-39 16 -63 45.5t-24 67.5q0 62 76 62q0 -60 22 -89.5t69 -29.5t69 29.5t22 89.5q76 0 76 -62q0 -38 -24 -67.5t-63 -45.5t-80 -16t-80 16z" />
    <glyph glyph-name="ecaron" unicode="&#x11b;" horiz-adv-x="523" 
d="M162 14.5q-48 23.5 -75 65t-27 93.5v148q0 53 28.5 96t77 67.5t105.5 24.5t104.5 -24t75 -66t27.5 -95v-64q0 -16 -12 -27t-29 -11h-292v-45q0 -51 32.5 -82t93.5 -31t93 27t32 73q30 2 50.5 -11.5t20.5 -39.5q0 -32 -27.5 -60t-72.5 -45t-96 -17q-61 0 -109 23.5z
M397 290v34q0 50 -34.5 81.5t-91.5 31.5t-91.5 -31.5t-34.5 -81.5v-34h252zM349 732q14 17 41 17q15 0 29 -6.5t23 -18.5l-141 -147q-11 -13 -29 -13t-29 13l-141 147q9 12 23 18.5t29 6.5q27 0 41 -17l77 -92z" />
    <glyph glyph-name="ecircumflex" unicode="&#xea;" horiz-adv-x="523" 
d="M162 14.5q-48 23.5 -75 65t-27 93.5v148q0 53 28.5 96t77 67.5t105.5 24.5t104.5 -24t75 -66t27.5 -95v-64q0 -16 -12 -27t-29 -11h-292v-45q0 -51 32.5 -82t93.5 -31t93 27t32 73q30 2 50.5 -11.5t20.5 -39.5q0 -32 -27.5 -60t-72.5 -45t-96 -17q-61 0 -109 23.5z
M397 290v34q0 50 -34.5 81.5t-91.5 31.5t-91.5 -31.5t-34.5 -81.5v-34h252zM178 568.5q-11 -4.5 -23 -4.5q-16 0 -29.5 6.5t-22.5 18.5l141 147q11 13 29 13t29 -13l141 -147q-9 -12 -22.5 -18.5t-29.5 -6.5q-12 0 -23 4.5t-18 12.5l-77 92l-77 -92q-7 -8 -18 -12.5z" />
    <glyph glyph-name="uni1EBF" unicode="&#x1ebf;" horiz-adv-x="523" 
d="M162 14.5q-48 23.5 -75 65t-27 93.5v148q0 53 28.5 96t77 67.5t105.5 24.5t104.5 -24t75 -66t27.5 -95v-64q0 -16 -12 -27t-29 -11h-292v-45q0 -51 32.5 -82t93.5 -31t93 27t32 73q30 2 50.5 -11.5t20.5 -39.5q0 -32 -27.5 -60t-72.5 -45t-96 -17q-61 0 -109 23.5z
M397 290v34q0 50 -34.5 81.5t-91.5 31.5t-91.5 -31.5t-34.5 -81.5v-34h252zM407 827q7 16 24 23t45 7h41l-85 -118q-8 -11 -18.5 -15.5t-31.5 -4.5q-16 0 -26 1zM194 581q-14 -17 -41 -17q-16 0 -30 6.5t-22 18.5l141 147q11 13 29 13t29 -13l141 -147q-9 -12 -23 -18.5
t-29 -6.5q-27 0 -41 17l-77 92z" />
    <glyph glyph-name="uni1EC7" unicode="&#x1ec7;" horiz-adv-x="523" 
d="M162 14.5q-48 23.5 -75 65t-27 93.5v148q0 53 28.5 96t77 67.5t105.5 24.5t104.5 -24t75 -66t27.5 -95v-64q0 -16 -12 -27t-29 -11h-292v-45q0 -51 32.5 -82t93.5 -31t93 27t32 73q30 2 50.5 -11.5t20.5 -39.5q0 -32 -27.5 -60t-72.5 -45t-96 -17q-61 0 -109 23.5z
M397 290v34q0 50 -34.5 81.5t-91.5 31.5t-91.5 -31.5t-34.5 -81.5v-34h252zM230.5 -159.5q-15.5 15.5 -15.5 38.5q0 24 15.5 39.5t40.5 15.5q24 0 39.5 -15.5t15.5 -39.5t-15.5 -39t-39.5 -15q-25 0 -40.5 15.5zM178 568.5q-11 -4.5 -23 -4.5q-16 0 -29.5 6.5t-22.5 18.5
l141 147q11 13 29 13t29 -13l141 -147q-9 -12 -22.5 -18.5t-29.5 -6.5q-12 0 -23 4.5t-18 12.5l-77 92l-77 -92q-7 -8 -18 -12.5z" />
    <glyph glyph-name="uni1EC1" unicode="&#x1ec1;" horiz-adv-x="523" 
d="M162 14.5q-48 23.5 -75 65t-27 93.5v148q0 53 28.5 96t77 67.5t105.5 24.5t104.5 -24t75 -66t27.5 -95v-64q0 -16 -12 -27t-29 -11h-292v-45q0 -51 32.5 -82t93.5 -31t93 27t32 73q30 2 50.5 -11.5t20.5 -39.5q0 -32 -27.5 -60t-72.5 -45t-96 -17q-61 0 -109 23.5z
M397 290v34q0 50 -34.5 81.5t-91.5 31.5t-91.5 -31.5t-34.5 -81.5v-34h252zM421 719q-19 0 -29.5 4.5t-18.5 15.5l-78 118h42q28 0 44.5 -7t23.5 -23l44 -107q-11 -1 -28 -1zM194 581q-14 -17 -41 -17q-16 0 -30 6.5t-22 18.5l141 147q11 13 29 13t29 -13l141 -147
q-9 -12 -23 -18.5t-29 -6.5q-27 0 -41 17l-77 92z" />
    <glyph glyph-name="uni1EC3" unicode="&#x1ec3;" horiz-adv-x="523" 
d="M162 14.5q-48 23.5 -75 65t-27 93.5v148q0 53 28.5 96t77 67.5t105.5 24.5t104.5 -24t75 -66t27.5 -95v-64q0 -16 -12 -27t-29 -11h-292v-45q0 -51 32.5 -82t93.5 -31t93 27t32 73q30 2 50.5 -11.5t20.5 -39.5q0 -32 -27.5 -60t-72.5 -45t-96 -17q-61 0 -109 23.5z
M397 290v34q0 50 -34.5 81.5t-91.5 31.5t-91.5 -31.5t-34.5 -81.5v-34h252zM375 719q0 15 7 25.5t21 23.5q2 2 8.5 9t10 14t3.5 14q0 10 -8.5 16t-23.5 6q-31 0 -31 -30q0 -12 2 -17q-28 0 -44 9t-16 28q0 26 26.5 44.5t65.5 18.5q42 0 68 -18.5t26 -50.5q0 -17 -7 -28
t-20 -23q-11 -10 -17 -19t-6 -20q0 -14 -12 -21.5t-30 -7.5q-11 0 -23 3v24zM194 581q-14 -17 -41 -17q-16 0 -30 6.5t-22 18.5l141 147q11 13 29 13t29 -13l141 -147q-9 -12 -23 -18.5t-29 -6.5q-27 0 -41 17l-77 92z" />
    <glyph glyph-name="uni1EC5" unicode="&#x1ec5;" horiz-adv-x="523" 
d="M162 14.5q-48 23.5 -75 65t-27 93.5v148q0 53 28.5 96t77 67.5t105.5 24.5t104.5 -24t75 -66t27.5 -95v-64q0 -16 -12 -27t-29 -11h-292v-45q0 -51 32.5 -82t93.5 -31t93 27t32 73q30 2 50.5 -11.5t20.5 -39.5q0 -32 -27.5 -60t-72.5 -45t-96 -17q-61 0 -109 23.5z
M397 290v34q0 50 -34.5 81.5t-91.5 31.5t-91.5 -31.5t-34.5 -81.5v-34h252zM146.5 781q-12.5 15 -12.5 38q0 32 22 51.5t56 19.5q24 0 41.5 -8.5t40.5 -25.5q27 -22 45 -22q27 0 27 23q0 12 -8 28q10 5 20 5q19 0 32 -16t13 -38q0 -32 -21 -50t-54 -18q-21 0 -37.5 8.5
t-39.5 25.5q-18 13 -29 19t-22 6q-13 0 -20.5 -8t-7.5 -21q0 -14 6 -28q-12 -4 -19 -4q-20 0 -32.5 15zM153 564q-16 0 -30 6.5t-22 18.5l141 147q11 13 29 13t29 -13l141 -147q-9 -12 -23 -18.5t-29 -6.5q-27 0 -41 17l-77 92l-77 -92q-14 -17 -41 -17z" />
    <glyph glyph-name="edieresis" unicode="&#xeb;" horiz-adv-x="523" 
d="M162 14.5q-48 23.5 -75 65t-27 93.5v148q0 53 28.5 96t77 67.5t105.5 24.5t104.5 -24t75 -66t27.5 -95v-64q0 -16 -12 -27t-29 -11h-292v-45q0 -51 32.5 -82t93.5 -31t93 27t32 73q30 2 50.5 -11.5t20.5 -39.5q0 -32 -27.5 -60t-72.5 -45t-96 -17q-61 0 -109 23.5z
M397 290v34q0 50 -34.5 81.5t-91.5 31.5t-91.5 -31.5t-34.5 -81.5v-34h252zM136.5 590q-15.5 15 -15.5 39t15.5 39.5t40.5 15.5q24 0 39 -15.5t15 -39.5q0 -23 -15 -38.5t-39 -15.5q-25 0 -40.5 15zM329.5 590.5q-15.5 15.5 -15.5 38.5q0 24 15 39.5t40 15.5t40 -15.5
t15 -39.5q0 -23 -15 -38.5t-40 -15.5q-24 0 -39.5 15.5z" />
    <glyph glyph-name="edotaccent" unicode="&#x117;" horiz-adv-x="523" 
d="M162 14.5q-48 23.5 -75 65t-27 93.5v148q0 53 28.5 96t77 67.5t105.5 24.5t104.5 -24t75 -66t27.5 -95v-64q0 -16 -12 -27t-29 -11h-292v-45q0 -51 32.5 -82t93.5 -31t93 27t32 73q30 2 50.5 -11.5t20.5 -39.5q0 -32 -27.5 -60t-72.5 -45t-96 -17q-61 0 -109 23.5z
M397 290v34q0 50 -34.5 81.5t-91.5 31.5t-91.5 -31.5t-34.5 -81.5v-34h252zM232.5 590.5q-15.5 15.5 -15.5 38.5q0 24 15.5 39.5t40.5 15.5q24 0 39.5 -15.5t15.5 -39.5q0 -23 -15 -38.5t-40 -15.5t-40.5 15.5z" />
    <glyph glyph-name="uni1EB9" unicode="&#x1eb9;" horiz-adv-x="523" 
d="M162 14.5q-48 23.5 -75 65t-27 93.5v148q0 53 28.5 96t77 67.5t105.5 24.5t104.5 -24t75 -66t27.5 -95v-64q0 -16 -12 -27t-29 -11h-292v-45q0 -51 32.5 -82t93.5 -31t93 27t32 73q30 2 50.5 -11.5t20.5 -39.5q0 -32 -27.5 -60t-72.5 -45t-96 -17q-61 0 -109 23.5z
M397 290v34q0 50 -34.5 81.5t-91.5 31.5t-91.5 -31.5t-34.5 -81.5v-34h252zM230.5 -159.5q-15.5 15.5 -15.5 38.5q0 24 15.5 39.5t40.5 15.5q24 0 39.5 -15.5t15.5 -39.5t-15.5 -39t-39.5 -15q-25 0 -40.5 15.5z" />
    <glyph glyph-name="egrave" unicode="&#xe8;" horiz-adv-x="523" 
d="M162 14.5q-48 23.5 -75 65t-27 93.5v148q0 53 28.5 96t77 67.5t105.5 24.5t104.5 -24t75 -66t27.5 -95v-64q0 -16 -12 -27t-29 -11h-292v-45q0 -51 32.5 -82t93.5 -31t93 27t32 73q30 2 50.5 -11.5t20.5 -39.5q0 -32 -27.5 -60t-72.5 -45t-96 -17q-61 0 -109 23.5z
M397 290v34q0 50 -34.5 81.5t-91.5 31.5t-91.5 -31.5t-34.5 -81.5v-34h252zM261 564q-17 4 -28 18l-123 148h59q58 0 77 -34l76 -134q-44 -2 -61 2z" />
    <glyph glyph-name="uni1EBB" unicode="&#x1ebb;" horiz-adv-x="523" 
d="M162 14.5q-48 23.5 -75 65t-27 93.5v148q0 53 28.5 96t77 67.5t105.5 24.5t104.5 -24t75 -66t27.5 -95v-64q0 -16 -12 -27t-29 -11h-292v-45q0 -51 32.5 -82t93.5 -31t93 27t32 73q30 2 50.5 -11.5t20.5 -39.5q0 -32 -27.5 -60t-72.5 -45t-96 -17q-61 0 -109 23.5z
M397 290v34q0 50 -34.5 81.5t-91.5 31.5t-91.5 -31.5t-34.5 -81.5v-34h252zM245 593q0 17 8 29.5t23 26.5q13 11 19.5 20t6.5 21q0 27 -34 27t-34 -35q0 -12 3 -21q-31 0 -49 10.5t-18 32.5q0 30 28.5 50.5t72.5 20.5q48 0 76 -20t28 -57q0 -20 -8 -32.5t-24 -26.5
q-13 -12 -19.5 -21.5t-6.5 -22.5q0 -15 -13.5 -23.5t-33.5 -8.5q-11 0 -25 3v27z" />
    <glyph glyph-name="emacron" unicode="&#x113;" horiz-adv-x="523" 
d="M162 14.5q-48 23.5 -75 65t-27 93.5v148q0 53 28.5 96t77 67.5t105.5 24.5t104.5 -24t75 -66t27.5 -95v-64q0 -16 -12 -27t-29 -11h-292v-45q0 -51 32.5 -82t93.5 -31t93 27t32 73q30 2 50.5 -11.5t20.5 -39.5q0 -32 -27.5 -60t-72.5 -45t-96 -17q-61 0 -109 23.5z
M397 290v34q0 50 -34.5 81.5t-91.5 31.5t-91.5 -31.5t-34.5 -81.5v-34h252zM178 656h256q0 -71 -68 -71h-256q0 71 68 71z" />
    <glyph glyph-name="eogonek" unicode="&#x119;" horiz-adv-x="523" 
d="M375.5 485q47.5 -24 75 -66t27.5 -95v-64q0 -16 -12 -27t-29 -11h-292v-45q0 -51 32.5 -82t93.5 -31t93 27t32 73q30 2 50.5 -11.5t20.5 -39.5q0 -41 -42.5 -74t-105.5 -44q-29 -25 -44.5 -49.5t-15.5 -53.5q0 -20 11 -31.5t30 -11.5q25 0 40 19q5 -13 5 -22
q0 -22 -21.5 -37.5t-54.5 -15.5q-41 0 -65.5 23.5t-24.5 62.5q0 34 20 63.5t57 48.5q-57 3 -101.5 27t-69.5 64.5t-25 90.5v148q0 53 28.5 96t77 67.5t105.5 24.5t104.5 -24zM397 324q0 50 -34.5 81.5t-91.5 31.5t-91.5 -31.5t-34.5 -81.5v-34h252v34z" />
    <glyph glyph-name="uni1EBD" unicode="&#x1ebd;" horiz-adv-x="523" 
d="M162 14.5q-48 23.5 -75 65t-27 93.5v148q0 53 28.5 96t77 67.5t105.5 24.5t104.5 -24t75 -66t27.5 -95v-64q0 -16 -12 -27t-29 -11h-292v-45q0 -51 32.5 -82t93.5 -31t93 27t32 73q30 2 50.5 -11.5t20.5 -39.5q0 -32 -27.5 -60t-72.5 -45t-96 -17q-61 0 -109 23.5z
M397 290v34q0 50 -34.5 81.5t-91.5 31.5t-91.5 -31.5t-34.5 -81.5v-34h252zM127.5 580.5q-13.5 16.5 -13.5 41.5q0 34 24 55t61 21q26 0 45 -9.5t44 -28.5q17 -13 27.5 -19t21.5 -6q15 0 22.5 7t7.5 19q0 14 -8 32q10 5 22 5q20 0 34 -17t14 -41q0 -35 -23 -55.5t-59 -20.5
q-23 0 -41 9.5t-43 28.5q-17 14 -30 21t-25 7q-15 0 -23.5 -8t-8.5 -22q0 -17 8 -31q-12 -5 -22 -5q-21 0 -34.5 16.5z" />
    <glyph glyph-name="uni0259" unicode="&#x259;" horiz-adv-x="513" 
d="M138 15q-47 24 -75 66t-28 95v64q0 16 12.5 27t29.5 11h291v45q0 51 -32 82t-94 31q-61 0 -93 -27t-32 -73q-30 -2 -50.5 11.5t-20.5 39.5q0 32 27.5 60t73 45t95.5 17q61 0 109 -23.5t75 -65t27 -93.5v-148q0 -53 -28.5 -96t-77 -67.5t-105.5 -24.5t-104 24zM333.5 94.5
q34.5 31.5 34.5 81.5v34h-252v-34q0 -50 35 -81.5t91 -31.5q57 0 91.5 31.5z" />
    <glyph glyph-name="f" unicode="f" horiz-adv-x="389" 
d="M118 430h-83q0 70 52 70h31v61q0 65 37 106.5t111 41.5q42 0 65 -18.5t23 -42.5q0 -21 -13 -34q-31 18 -67 18q-37 0 -53 -18t-16 -57v-57h125q0 -36 -15.5 -53t-47.5 -17h-62v-375q0 -33 -21.5 -48.5t-65.5 -15.5v439z" />
    <glyph glyph-name="g" unicode="g" horiz-adv-x="555" 
d="M172 -192q-45 17 -71 45.5t-26 61.5q0 26 17.5 38t47.5 12q2 -47 36.5 -74.5t92.5 -27.5q128 0 128 124v58q14 12 21 22l-3 5q-29 -31 -72.5 -51t-87.5 -20q-86 0 -140.5 47.5t-54.5 125.5v161q0 51 25.5 90.5t70 61.5t98.5 22q98 0 164 -86l4 4l-20 25q0 28 19.5 42.5
t63.5 14.5v-513q0 -60 -27.5 -106.5t-76.5 -72.5t-112 -26q-52 0 -97 17zM361 105.5q37 28.5 37 67.5v163q0 41 -36.5 69t-88.5 28q-60 0 -93 -26.5t-33 -75.5v-153q0 -47 32.5 -74t91.5 -27q53 0 90 28.5z" />
    <glyph glyph-name="gbreve" unicode="&#x11f;" horiz-adv-x="555" 
d="M172 -192q-45 17 -71 45.5t-26 61.5q0 26 17.5 38t47.5 12q2 -47 36.5 -74.5t92.5 -27.5q128 0 128 124v58q14 12 21 22l-3 5q-29 -31 -72.5 -51t-87.5 -20q-86 0 -140.5 47.5t-54.5 125.5v161q0 51 25.5 90.5t70 61.5t98.5 22q98 0 164 -86l4 4l-20 25q0 28 19.5 42.5
t63.5 14.5v-513q0 -60 -27.5 -106.5t-76.5 -72.5t-112 -26q-52 0 -97 17zM361 105.5q37 28.5 37 67.5v163q0 41 -36.5 69t-88.5 28q-60 0 -93 -26.5t-33 -75.5v-153q0 -47 32.5 -74t91.5 -27q53 0 90 28.5zM196 577q-39 16 -63 45.5t-24 67.5q0 62 76 62q0 -60 22 -89.5
t69 -29.5t69 29.5t22 89.5q76 0 76 -62q0 -38 -24 -67.5t-63 -45.5t-80 -16t-80 16z" />
    <glyph glyph-name="gcaron" unicode="&#x1e7;" horiz-adv-x="555" 
d="M172 -192q-45 17 -71 45.5t-26 61.5q0 26 17.5 38t47.5 12q2 -47 36.5 -74.5t92.5 -27.5q128 0 128 124v58q14 12 21 22l-3 5q-29 -31 -72.5 -51t-87.5 -20q-86 0 -140.5 47.5t-54.5 125.5v161q0 51 25.5 90.5t70 61.5t98.5 22q98 0 164 -86l4 4l-20 25q0 28 19.5 42.5
t63.5 14.5v-513q0 -60 -27.5 -106.5t-76.5 -72.5t-112 -26q-52 0 -97 17zM361 105.5q37 28.5 37 67.5v163q0 41 -36.5 69t-88.5 28q-60 0 -93 -26.5t-33 -75.5v-153q0 -47 32.5 -74t91.5 -27q53 0 90 28.5zM353 732q14 17 41 17q15 0 29 -6.5t23 -18.5l-141 -147
q-11 -13 -29 -13t-29 13l-141 147q9 12 23 18.5t29 6.5q27 0 41 -17l77 -92z" />
    <glyph glyph-name="gcircumflex" unicode="&#x11d;" horiz-adv-x="555" 
d="M172 -192q-45 17 -71 45.5t-26 61.5q0 26 17.5 38t47.5 12q2 -47 36.5 -74.5t92.5 -27.5q128 0 128 124v58q14 12 21 22l-3 5q-29 -31 -72.5 -51t-87.5 -20q-86 0 -140.5 47.5t-54.5 125.5v161q0 51 25.5 90.5t70 61.5t98.5 22q98 0 164 -86l4 4l-20 25q0 28 19.5 42.5
t63.5 14.5v-513q0 -60 -27.5 -106.5t-76.5 -72.5t-112 -26q-52 0 -97 17zM361 105.5q37 28.5 37 67.5v163q0 41 -36.5 69t-88.5 28q-60 0 -93 -26.5t-33 -75.5v-153q0 -47 32.5 -74t91.5 -27q53 0 90 28.5zM182 568.5q-11 -4.5 -23 -4.5q-16 0 -29.5 6.5t-22.5 18.5l141 147
q11 13 29 13t29 -13l141 -147q-9 -12 -22.5 -18.5t-29.5 -6.5q-12 0 -23 4.5t-18 12.5l-77 92l-77 -92q-7 -8 -18 -12.5z" />
    <glyph glyph-name="uni0123" unicode="&#x123;" horiz-adv-x="555" 
d="M172 -192q-45 17 -71 45.5t-26 61.5q0 26 17.5 38t47.5 12q2 -47 36.5 -74.5t92.5 -27.5q128 0 128 124v58q14 12 21 22l-3 5q-29 -31 -72.5 -51t-87.5 -20q-86 0 -140.5 47.5t-54.5 125.5v161q0 51 25.5 90.5t70 61.5t98.5 22q98 0 164 -86l4 4l-20 25q0 28 19.5 42.5
t63.5 14.5v-513q0 -60 -27.5 -106.5t-76.5 -72.5t-112 -26q-52 0 -97 17zM361 105.5q37 28.5 37 67.5v163q0 41 -36.5 69t-88.5 28q-60 0 -93 -26.5t-33 -75.5v-153q0 -47 32.5 -74t91.5 -27q53 0 90 28.5zM269 675q4 2 10 3.5t12 1.5q29 0 46.5 -17.5t17.5 -47.5
q0 -31 -20 -50t-52 -19q-33 0 -53.5 20.5t-20.5 51.5q0 63 19 103t56 74q10 8 27 8q14 0 23 -7q-65 -65 -65 -121z" />
    <glyph glyph-name="gdotaccent" unicode="&#x121;" horiz-adv-x="555" 
d="M172 -192q-45 17 -71 45.5t-26 61.5q0 26 17.5 38t47.5 12q2 -47 36.5 -74.5t92.5 -27.5q128 0 128 124v58q14 12 21 22l-3 5q-29 -31 -72.5 -51t-87.5 -20q-86 0 -140.5 47.5t-54.5 125.5v161q0 51 25.5 90.5t70 61.5t98.5 22q98 0 164 -86l4 4l-20 25q0 28 19.5 42.5
t63.5 14.5v-513q0 -60 -27.5 -106.5t-76.5 -72.5t-112 -26q-52 0 -97 17zM361 105.5q37 28.5 37 67.5v163q0 41 -36.5 69t-88.5 28q-60 0 -93 -26.5t-33 -75.5v-153q0 -47 32.5 -74t91.5 -27q53 0 90 28.5zM236.5 590.5q-15.5 15.5 -15.5 38.5q0 24 15.5 39.5t40.5 15.5
q24 0 39.5 -15.5t15.5 -39.5q0 -23 -15 -38.5t-40 -15.5t-40.5 15.5z" />
    <glyph glyph-name="uni1E21" unicode="&#x1e21;" horiz-adv-x="555" 
d="M172 -192q-45 17 -71 45.5t-26 61.5q0 26 17.5 38t47.5 12q2 -47 36.5 -74.5t92.5 -27.5q128 0 128 124v58q14 12 21 22l-3 5q-29 -31 -72.5 -51t-87.5 -20q-86 0 -140.5 47.5t-54.5 125.5v161q0 51 25.5 90.5t70 61.5t98.5 22q98 0 164 -86l4 4l-20 25q0 28 19.5 42.5
t63.5 14.5v-513q0 -60 -27.5 -106.5t-76.5 -72.5t-112 -26q-52 0 -97 17zM361 105.5q37 28.5 37 67.5v163q0 41 -36.5 69t-88.5 28q-60 0 -93 -26.5t-33 -75.5v-153q0 -47 32.5 -74t91.5 -27q53 0 90 28.5zM182 656h256q0 -71 -68 -71h-256q0 71 68 71z" />
    <glyph glyph-name="h" unicode="h" horiz-adv-x="554" 
d="M70 635q0 36 22 55t65 19v-263q-14 -16 -22 -28l4 -4q31 42 78 68.5t102 26.5q81 0 128 -48t47 -124v-282q0 -33 -21.5 -48.5t-65.5 -15.5v337q0 48 -27 76t-82 28q-37 0 -69.5 -15.5t-52 -42t-19.5 -57.5v-262q0 -33 -21.5 -48.5t-65.5 -15.5v644z" />
    <glyph glyph-name="hbar" unicode="&#x127;" horiz-adv-x="584" 
d="M477 461q47 -48 47 -124v-282q0 -33 -21.5 -48.5t-65.5 -15.5v337q0 48 -27 76t-82 28q-37 0 -69.5 -15.5t-52 -42t-19.5 -57.5v-262q0 -33 -21.5 -48.5t-65.5 -15.5v556h-70q0 61 54 61h16v27q0 36 22 55t65 19v-101h149q0 -61 -54 -61h-95v-101q-14 -16 -22 -28l4 -4
q31 42 78 68.5t102 26.5q81 0 128 -48z" />
    <glyph glyph-name="uni1E2B" unicode="&#x1e2b;" horiz-adv-x="554" 
d="M70 635q0 36 22 55t65 19v-263q-14 -16 -22 -28l4 -4q31 42 78 68.5t102 26.5q81 0 128 -48t47 -124v-282q0 -33 -21.5 -48.5t-65.5 -15.5v337q0 48 -27 76t-82 28q-37 0 -69.5 -15.5t-52 -42t-19.5 -57.5v-262q0 -33 -21.5 -48.5t-65.5 -15.5v644zM160 -187.5
q-50 31.5 -50 87.5q0 28 18 43t58 15q0 -56 21.5 -80.5t69.5 -24.5t69.5 24t21.5 81q40 0 58 -15t18 -43q0 -56 -50 -87.5t-117 -31.5t-117 31.5z" />
    <glyph glyph-name="hcircumflex" unicode="&#x125;" horiz-adv-x="554" 
d="M70 635q0 36 22 55t65 19v-263q-14 -16 -22 -28l4 -4q31 42 78 68.5t102 26.5q81 0 128 -48t47 -124v-282q0 -33 -21.5 -48.5t-65.5 -15.5v337q0 48 -27 76t-82 28q-37 0 -69.5 -15.5t-52 -42t-19.5 -57.5v-262q0 -33 -21.5 -48.5t-65.5 -15.5v644zM179 768.5
q-11 -4.5 -23 -4.5q-16 0 -29.5 6.5t-22.5 18.5l141 147q11 13 29 13t29 -13l141 -147q-9 -12 -22.5 -18.5t-29.5 -6.5q-12 0 -23 4.5t-18 12.5l-77 92l-77 -92q-7 -8 -18 -12.5z" />
    <glyph glyph-name="uni1E25" unicode="&#x1e25;" horiz-adv-x="554" 
d="M70 635q0 36 22 55t65 19v-263q-14 -16 -22 -28l4 -4q31 42 78 68.5t102 26.5q81 0 128 -48t47 -124v-282q0 -33 -21.5 -48.5t-65.5 -15.5v337q0 48 -27 76t-82 28q-37 0 -69.5 -15.5t-52 -42t-19.5 -57.5v-262q0 -33 -21.5 -48.5t-65.5 -15.5v644zM235.5 -159.5
q-15.5 15.5 -15.5 38.5q0 24 15.5 39.5t40.5 15.5q24 0 39.5 -15.5t15.5 -39.5t-15.5 -39t-39.5 -15q-25 0 -40.5 15.5z" />
    <glyph glyph-name="i" unicode="i" horiz-adv-x="271" 
d="M89 602q-19 18 -19 45t19 44.5t47 17.5q27 0 46 -17.5t19 -44.5t-19 -45t-46 -18q-28 0 -47 18zM92 445q0 33 21.5 48.5t65.5 15.5v-454q0 -33 -21.5 -48.5t-65.5 -15.5v454z" />
    <glyph glyph-name="dotlessi" unicode="&#x131;" horiz-adv-x="227" 
d="M70 445q0 33 21.5 48.5t65.5 15.5v-454q0 -33 -21.5 -48.5t-65.5 -15.5v454z" />
    <glyph glyph-name="iacute" unicode="&#xed;" horiz-adv-x="227" 
d="M70 445q0 33 21.5 48.5t65.5 15.5v-454q0 -33 -21.5 -48.5t-65.5 -15.5v454zM124 705q14 34 77 34h59l-102 -148q-8 -13 -20 -17t-38 -4l-32 1z" />
    <glyph glyph-name="ibreve" unicode="&#x12d;" horiz-adv-x="227" 
d="M70 445q0 33 21.5 48.5t65.5 15.5v-454q0 -33 -21.5 -48.5t-65.5 -15.5v454zM35 586q-39 16 -63 45.5t-24 67.5q0 62 76 62q0 -60 22 -89.5t69 -29.5t69 29.5t22 89.5q76 0 76 -62q0 -38 -24 -67.5t-63 -45.5t-80 -16t-80 16z" />
    <glyph glyph-name="uni01D0" unicode="&#x1d0;" horiz-adv-x="227" 
d="M70 445q0 33 21.5 48.5t65.5 15.5v-454q0 -33 -21.5 -48.5t-65.5 -15.5v454zM192 741q14 17 41 17q15 0 29 -6.5t23 -18.5l-141 -147q-11 -13 -29 -13t-29 13l-141 147q9 12 23 18.5t29 6.5q27 0 41 -17l77 -92z" />
    <glyph glyph-name="icircumflex" unicode="&#xee;" horiz-adv-x="227" 
d="M70 445q0 33 21.5 48.5t65.5 15.5v-454q0 -33 -21.5 -48.5t-65.5 -15.5v454zM21 577.5q-11 -4.5 -23 -4.5q-16 0 -29.5 6.5t-22.5 18.5l141 147q11 13 29 13t29 -13l141 -147q-9 -12 -22.5 -18.5t-29.5 -6.5q-12 0 -23 4.5t-18 12.5l-77 92l-77 -92q-7 -8 -18 -12.5z" />
    <glyph glyph-name="idieresis" unicode="&#xef;" horiz-adv-x="227" 
d="M70 445q0 33 21.5 48.5t65.5 15.5v-454q0 -33 -21.5 -48.5t-65.5 -15.5v454zM-20.5 599q-15.5 15 -15.5 39t15.5 39.5t40.5 15.5q24 0 39 -15.5t15 -39.5q0 -23 -15 -38.5t-39 -15.5q-25 0 -40.5 15zM172.5 599.5q-15.5 15.5 -15.5 38.5q0 24 15 39.5t40 15.5t40 -15.5
t15 -39.5q0 -23 -15 -38.5t-40 -15.5q-24 0 -39.5 15.5z" />
    <glyph glyph-name="uni1ECB" unicode="&#x1ecb;" horiz-adv-x="271" 
d="M89 602q-19 18 -19 45t19 44.5t47 17.5q27 0 46 -17.5t19 -44.5t-19 -45t-46 -18q-28 0 -47 18zM92 445q0 33 21.5 48.5t65.5 15.5v-454q0 -33 -21.5 -48.5t-65.5 -15.5v454zM89.5 -159.5q-15.5 15.5 -15.5 38.5q0 24 15.5 39.5t40.5 15.5q24 0 39.5 -15.5t15.5 -39.5
t-15.5 -39t-39.5 -15q-25 0 -40.5 15.5z" />
    <glyph glyph-name="igrave" unicode="&#xec;" horiz-adv-x="227" 
d="M70 445q0 33 21.5 48.5t65.5 15.5v-454q0 -33 -21.5 -48.5t-65.5 -15.5v454zM104 573q-17 4 -28 18l-123 148h59q58 0 77 -34l76 -134q-44 -2 -61 2z" />
    <glyph glyph-name="uni1EC9" unicode="&#x1ec9;" horiz-adv-x="227" 
d="M70 445q0 33 21.5 48.5t65.5 15.5v-454q0 -33 -21.5 -48.5t-65.5 -15.5v454zM88 602q0 17 8 29.5t23 26.5q13 11 19.5 20t6.5 21q0 27 -34 27t-34 -35q0 -12 3 -21q-31 0 -49 10.5t-18 32.5q0 30 28.5 50.5t72.5 20.5q48 0 76 -20t28 -57q0 -20 -8 -32.5t-24 -26.5
q-13 -12 -19.5 -21.5t-6.5 -22.5q0 -15 -13.5 -23.5t-33.5 -8.5q-11 0 -25 3v27z" />
    <glyph glyph-name="ij" unicode="&#x133;" horiz-adv-x="534" 
d="M89 602q-19 18 -19 45t19 44.5t47 17.5q27 0 46 -17.5t19 -44.5t-19 -45t-46 -18q-28 0 -47 18zM352 602q-19 18 -19 45t19 44.5t47 17.5q27 0 46 -17.5t19 -44.5t-19 -45t-46 -18q-28 0 -47 18zM92 445q0 33 21.5 48.5t65.5 15.5v-454q0 -33 -21.5 -48.5t-65.5 -15.5
v454zM219 -189q-26 20 -26 48q0 21 16 34q13 -12 32 -18.5t40 -6.5q38 0 56 20t18 60v497q0 33 21.5 48.5t65.5 15.5v-564q0 -67 -41 -110.5t-113 -43.5q-43 0 -69 20z" />
    <glyph glyph-name="imacron" unicode="&#x12b;" horiz-adv-x="227" 
d="M70 445q0 33 21.5 48.5t65.5 15.5v-454q0 -33 -21.5 -48.5t-65.5 -15.5v454zM21 665h256q0 -71 -68 -71h-256q0 71 68 71z" />
    <glyph glyph-name="iogonek" unicode="&#x12f;" horiz-adv-x="271" 
d="M182 691.5q19 -17.5 19 -44.5t-19 -45t-46 -18q-28 0 -47 18t-19 45t19 44.5t47 17.5q27 0 46 -17.5zM113.5 493.5q21.5 15.5 65.5 15.5v-454q0 -37 -27 -52q-65 -52 -65 -107q0 -20 11 -31.5t30 -11.5q25 0 40 19q5 -13 5 -22q0 -22 -21.5 -37.5t-54.5 -15.5
q-41 0 -65.5 23.5t-24.5 62.5q0 35 22.5 66.5t62.5 49.5v446q0 33 21.5 48.5z" />
    <glyph glyph-name="itilde" unicode="&#x129;" horiz-adv-x="227" 
d="M70 445q0 33 21.5 48.5t65.5 15.5v-454q0 -33 -21.5 -48.5t-65.5 -15.5v454zM-29.5 589.5q-13.5 16.5 -13.5 41.5q0 34 24 55t61 21q26 0 45 -9.5t44 -28.5q17 -13 27.5 -19t21.5 -6q15 0 22.5 7t7.5 19q0 14 -8 32q10 5 22 5q20 0 34 -17t14 -41q0 -35 -23 -55.5
t-59 -20.5q-23 0 -41 9.5t-43 28.5q-17 14 -30 21t-25 7q-15 0 -23.5 -8t-8.5 -22q0 -17 8 -31q-12 -5 -22 -5q-21 0 -34.5 16.5z" />
    <glyph glyph-name="j" unicode="j" horiz-adv-x="376" 
d="M194 602q-19 18 -19 45t19 44.5t46 17.5q28 0 47 -17.5t19 -44.5t-19 -45t-47 -18q-27 0 -46 18zM61 -189q-26 20 -26 48q0 21 16 34q12 -11 31.5 -18t40.5 -7q38 0 56 20t18 60v497q0 33 21.5 48.5t65.5 15.5v-564q0 -67 -41 -110.5t-113 -43.5q-43 0 -69 20z" />
    <glyph glyph-name="uni0237" unicode="&#x237;" horiz-adv-x="354" 
d="M61 -189q-26 20 -26 48q0 21 16 34q12 -11 31.5 -18t40.5 -7q38 0 56 20t18 60v497q0 33 21.5 48.5t65.5 15.5v-564q0 -67 -41 -110.5t-113 -43.5q-43 0 -69 20z" />
    <glyph glyph-name="jcircumflex" unicode="&#x135;" horiz-adv-x="354" 
d="M61 -189q-26 20 -26 48q0 21 16 34q12 -11 31.5 -18t40.5 -7q38 0 56 20t18 60v497q0 33 21.5 48.5t65.5 15.5v-564q0 -67 -41 -110.5t-113 -43.5q-43 0 -69 20zM142 554.5q-11 -4.5 -23 -4.5q-16 0 -29.5 6.5t-22.5 18.5l141 147q11 13 29 13t29 -13l141 -147
q-9 -12 -22.5 -18.5t-29.5 -6.5q-12 0 -23 4.5t-18 12.5l-77 92l-77 -92q-7 -8 -18 -12.5z" />
    <glyph glyph-name="k" unicode="k" horiz-adv-x="536" 
d="M486 13q-8 -10 -20 -16t-27 -6q-16 0 -28 6t-22 22l-159 249l-74 -66v-148q0 -63 -86 -63v646q0 72 87 72l-1 -418l242 217q29 -27 29 -46q0 -14 -6.5 -22.5t-24.5 -24.5l-112 -99z" />
    <glyph glyph-name="uni0137" unicode="&#x137;" horiz-adv-x="536" 
d="M486 13q-8 -10 -20 -16t-27 -6q-16 0 -28 6t-22 22l-159 249l-74 -66v-148q0 -63 -86 -63v646q0 72 87 72l-1 -418l242 217q29 -27 29 -46q0 -14 -6.5 -22.5t-24.5 -24.5l-112 -99zM270 -177q-3 -2 -9.5 -3.5t-12.5 -1.5q-29 0 -46.5 17.5t-17.5 47.5q0 31 20.5 50
t51.5 19q33 0 53.5 -20.5t20.5 -51.5q0 -63 -19 -103t-56 -74q-10 -8 -27 -8q-14 0 -23 7q65 64 65 121z" />
    <glyph glyph-name="kgreenlandic" unicode="&#x138;" horiz-adv-x="540" 
d="M70 436q0 35 21.5 53.5t64.5 18.5v-236l296 236q20 -25 20 -48q0 -13 -7.5 -23t-23.5 -24l-171 -136l225 -264q-17 -22 -46 -22q-33 0 -55 28l-181 213l-58 -47v-131q0 -63 -85 -63v445z" />
    <glyph glyph-name="l" unicode="l" horiz-adv-x="342" 
d="M106 31.5q-36 40.5 -36 106.5v507q0 33 21.5 48.5t65.5 15.5v-568q0 -39 16 -56t53 -17t68 18q13 -15 13 -35q0 -24 -25 -42t-67 -18q-73 0 -109 40.5z" />
    <glyph glyph-name="lacute" unicode="&#x13a;" horiz-adv-x="342" 
d="M106 31.5q-36 40.5 -36 106.5v507q0 33 21.5 48.5t65.5 15.5v-568q0 -39 16 -56t53 -17t68 18q13 -15 13 -35q0 -24 -25 -42t-67 -18q-73 0 -109 40.5zM132 896q14 34 77 34h59l-102 -148q-8 -13 -20 -17t-38 -4l-32 1z" />
    <glyph glyph-name="lcaron" unicode="&#x13e;" horiz-adv-x="427" 
d="M106 31.5q-36 40.5 -36 106.5v507q0 33 21.5 48.5t65.5 15.5v-568q0 -39 16 -56t53 -17t68 18q13 -15 13 -35q0 -24 -25 -42t-67 -18q-73 0 -109 40.5zM332.5 585.5q16.5 31.5 16.5 58.5q-4 -2 -10 -3.5t-12 -1.5q-29 0 -46.5 17.5t-17.5 46.5q0 31 20 50.5t52 19.5
q33 0 53.5 -21t20.5 -52q0 -62 -19 -102t-56 -74q-10 -8 -28 -8q-15 0 -22 6q32 32 48.5 63.5z" />
    <glyph glyph-name="uni013C" unicode="&#x13c;" horiz-adv-x="342" 
d="M106 31.5q-36 40.5 -36 106.5v507q0 33 21.5 48.5t65.5 15.5v-568q0 -39 16 -56t53 -17t68 18q13 -15 13 -35q0 -24 -25 -42t-67 -18q-73 0 -109 40.5zM209 -177q-3 -2 -9.5 -3.5t-12.5 -1.5q-29 0 -46.5 17.5t-17.5 47.5q0 31 20.5 50t51.5 19q33 0 53.5 -20.5
t20.5 -51.5q0 -63 -19 -103t-56 -74q-10 -8 -27 -8q-14 0 -23 7q65 64 65 121z" />
    <glyph glyph-name="ldot" unicode="&#x140;" horiz-adv-x="416" 
d="M106 31.5q-36 40.5 -36 106.5v507q0 33 21.5 48.5t65.5 15.5v-568q0 -39 16 -56t53 -17t68 18q13 -15 13 -35q0 -24 -25 -42t-67 -18q-73 0 -109 40.5zM258 245.5q-19 18.5 -19 46.5t19 47t47 19q27 0 47 -19.5t20 -46.5t-20 -46t-47 -19q-28 0 -47 18.5z" />
    <glyph glyph-name="uni1E37" unicode="&#x1e37;" horiz-adv-x="342" 
d="M106 31.5q-36 40.5 -36 106.5v507q0 33 21.5 48.5t65.5 15.5v-568q0 -39 16 -56t53 -17t68 18q13 -15 13 -35q0 -24 -25 -42t-67 -18q-73 0 -109 40.5zM155.5 -159.5q-15.5 15.5 -15.5 38.5q0 24 15.5 39.5t40.5 15.5q24 0 39.5 -15.5t15.5 -39.5t-15.5 -39t-39.5 -15
q-25 0 -40.5 15.5z" />
    <glyph glyph-name="uni1E39" unicode="&#x1e39;" horiz-adv-x="342" 
d="M106 31.5q-36 40.5 -36 106.5v507q0 33 21.5 48.5t65.5 15.5v-568q0 -39 16 -56t53 -17t68 18q13 -15 13 -35q0 -24 -25 -42t-67 -18q-73 0 -109 40.5zM155.5 -159.5q-15.5 15.5 -15.5 38.5q0 24 15.5 39.5t40.5 15.5q24 0 39.5 -15.5t15.5 -39.5t-15.5 -39t-39.5 -15
q-25 0 -40.5 15.5zM29 856h256q0 -71 -68 -71h-256q0 71 68 71z" />
    <glyph glyph-name="uni1E3B" unicode="&#x1e3b;" horiz-adv-x="342" 
d="M106 31.5q-36 40.5 -36 106.5v507q0 33 21.5 48.5t65.5 15.5v-568q0 -39 16 -56t53 -17t68 18q13 -15 13 -35q0 -24 -25 -42t-67 -18q-73 0 -109 40.5zM102 -57h256q0 -71 -68 -71h-256q0 71 68 71z" />
    <glyph glyph-name="lslash" unicode="&#x142;" horiz-adv-x="389" 
d="M354 51q0 -24 -25 -42t-67 -18q-73 0 -109 40.5t-36 106.5v148l-69 -42q-13 19 -13 39q0 30 24 44l58 36v282q0 33 21.5 48.5t65.5 15.5v-293l89 55q13 -20 13 -41q0 -28 -24 -43l-78 -48v-198q0 -39 16 -56t53 -17t68 18q13 -15 13 -35z" />
    <glyph glyph-name="m" unicode="m" horiz-adv-x="772" 
d="M70 435q0 74 83 74v-64q-13 -14 -21 -27l4 -4q32 45 68 70t83 25q91 0 125 -87q57 87 152 87q71 0 109.5 -47.5t38.5 -124.5v-282q0 -33 -21.5 -48.5t-64.5 -15.5v341q0 48 -20 75t-63 27q-45 0 -77 -30.5t-32 -81.5v-267q0 -33 -21 -48.5t-64 -15.5v341q0 48 -20 75
t-63 27q-46 0 -78 -33t-32 -81v-265q0 -33 -21.5 -48.5t-64.5 -15.5v444z" />
    <glyph glyph-name="uni1E43" unicode="&#x1e43;" horiz-adv-x="772" 
d="M70 435q0 74 83 74v-64q-13 -14 -21 -27l4 -4q32 45 68 70t83 25q91 0 125 -87q57 87 152 87q71 0 109.5 -47.5t38.5 -124.5v-282q0 -33 -21.5 -48.5t-64.5 -15.5v341q0 48 -20 75t-63 27q-45 0 -77 -30.5t-32 -81.5v-267q0 -33 -21 -48.5t-64 -15.5v341q0 48 -20 75
t-63 27q-46 0 -78 -33t-32 -81v-265q0 -33 -21.5 -48.5t-64.5 -15.5v444zM324.5 -159.5q-15.5 15.5 -15.5 38.5q0 24 15.5 39.5t40.5 15.5q24 0 39.5 -15.5t15.5 -39.5t-15.5 -39t-39.5 -15q-25 0 -40.5 15.5z" />
    <glyph glyph-name="n" unicode="n" horiz-adv-x="554" 
d="M70 435q0 74 84 74v-64q-9 -9 -21 -27l4 -4q30 42 78 68.5t104 26.5q81 0 128 -48t47 -124v-282q0 -33 -21.5 -48.5t-65.5 -15.5v337q0 48 -27 76t-82 28q-37 0 -69.5 -15.5t-52 -42t-19.5 -57.5v-262q0 -33 -21.5 -48.5t-65.5 -15.5v444z" />
    <glyph glyph-name="nacute" unicode="&#x144;" horiz-adv-x="554" 
d="M70 435q0 74 84 74v-64q-9 -9 -21 -27l4 -4q30 42 78 68.5t104 26.5q81 0 128 -48t47 -124v-282q0 -33 -21.5 -48.5t-65.5 -15.5v337q0 48 -27 76t-82 28q-37 0 -69.5 -15.5t-52 -42t-19.5 -57.5v-262q0 -33 -21.5 -48.5t-65.5 -15.5v444zM294 696q14 34 77 34h59
l-102 -148q-8 -13 -20 -17t-38 -4l-32 1z" />
    <glyph glyph-name="napostrophe" unicode="&#x149;" horiz-adv-x="620" 
d="M136 435q0 74 84 74v-64q-9 -9 -21 -27l4 -4q30 42 78 68.5t104 26.5q81 0 128 -48t47 -124v-282q0 -33 -21.5 -48.5t-65.5 -15.5v337q0 48 -27 76t-82 28q-37 0 -69.5 -15.5t-52 -42t-19.5 -57.5v-262q0 -33 -21.5 -48.5t-65.5 -15.5v444zM54.5 502.5
q16.5 31.5 16.5 58.5q-4 -2 -10 -3.5t-12 -1.5q-29 0 -46.5 17.5t-17.5 46.5q0 31 20 50.5t52 19.5q33 0 53.5 -21t20.5 -52q0 -62 -19 -102t-56 -74q-10 -8 -28 -8q-15 0 -22 6q32 32 48.5 63.5z" />
    <glyph glyph-name="ncaron" unicode="&#x148;" horiz-adv-x="554" 
d="M70 435q0 74 84 74v-64q-9 -9 -21 -27l4 -4q30 42 78 68.5t104 26.5q81 0 128 -48t47 -124v-282q0 -33 -21.5 -48.5t-65.5 -15.5v337q0 48 -27 76t-82 28q-37 0 -69.5 -15.5t-52 -42t-19.5 -57.5v-262q0 -33 -21.5 -48.5t-65.5 -15.5v444zM362 732q14 17 41 17
q15 0 29 -6.5t23 -18.5l-141 -147q-11 -13 -29 -13t-29 13l-141 147q9 12 23 18.5t29 6.5q27 0 41 -17l77 -92z" />
    <glyph glyph-name="uni0146" unicode="&#x146;" horiz-adv-x="554" 
d="M70 435q0 74 84 74v-64q-9 -9 -21 -27l4 -4q30 42 78 68.5t104 26.5q81 0 128 -48t47 -124v-282q0 -33 -21.5 -48.5t-65.5 -15.5v337q0 48 -27 76t-82 28q-37 0 -69.5 -15.5t-52 -42t-19.5 -57.5v-262q0 -33 -21.5 -48.5t-65.5 -15.5v444zM292 -177q-3 -2 -9.5 -3.5
t-12.5 -1.5q-29 0 -46.5 17.5t-17.5 47.5q0 31 20.5 50t51.5 19q33 0 53.5 -20.5t20.5 -51.5q0 -63 -19 -103t-56 -74q-10 -8 -27 -8q-14 0 -23 7q65 64 65 121z" />
    <glyph glyph-name="uni1E45" unicode="&#x1e45;" horiz-adv-x="554" 
d="M70 435q0 74 84 74v-64q-9 -9 -21 -27l4 -4q30 42 78 68.5t104 26.5q81 0 128 -48t47 -124v-282q0 -33 -21.5 -48.5t-65.5 -15.5v337q0 48 -27 76t-82 28q-37 0 -69.5 -15.5t-52 -42t-19.5 -57.5v-262q0 -33 -21.5 -48.5t-65.5 -15.5v444zM245.5 590.5
q-15.5 15.5 -15.5 38.5q0 24 15.5 39.5t40.5 15.5q24 0 39.5 -15.5t15.5 -39.5q0 -23 -15 -38.5t-40 -15.5t-40.5 15.5z" />
    <glyph glyph-name="uni1E47" unicode="&#x1e47;" horiz-adv-x="554" 
d="M70 435q0 74 84 74v-64q-9 -9 -21 -27l4 -4q30 42 78 68.5t104 26.5q81 0 128 -48t47 -124v-282q0 -33 -21.5 -48.5t-65.5 -15.5v337q0 48 -27 76t-82 28q-37 0 -69.5 -15.5t-52 -42t-19.5 -57.5v-262q0 -33 -21.5 -48.5t-65.5 -15.5v444zM238.5 -159.5
q-15.5 15.5 -15.5 38.5q0 24 15.5 39.5t40.5 15.5q24 0 39.5 -15.5t15.5 -39.5t-15.5 -39t-39.5 -15q-25 0 -40.5 15.5z" />
    <glyph glyph-name="eng" unicode="&#x14b;" horiz-adv-x="554" 
d="M70 435q0 74 84 74v-64q-9 -9 -21 -27l4 -4q31 44 80 69.5t102 25.5q79 0 127 -47t48 -125v-392q0 -70 -42 -112t-112 -42q-40 0 -67 19.5t-27 48.5q0 21 15 34q28 -25 72 -25q38 0 56 19.5t18 60.5v380q0 50 -28 77t-81 27q-37 0 -69.5 -16t-52 -42.5t-19.5 -56.5v-262
q0 -33 -21 -48.5t-66 -15.5v444z" />
    <glyph glyph-name="uni1E49" unicode="&#x1e49;" horiz-adv-x="554" 
d="M70 435q0 74 84 74v-64q-9 -9 -21 -27l4 -4q30 42 78 68.5t104 26.5q81 0 128 -48t47 -124v-282q0 -33 -21.5 -48.5t-65.5 -15.5v337q0 48 -27 76t-82 28q-37 0 -69.5 -15.5t-52 -42t-19.5 -57.5v-262q0 -33 -21.5 -48.5t-65.5 -15.5v444zM185 -57h256q0 -71 -68 -71
h-256q0 71 68 71z" />
    <glyph glyph-name="ntilde" unicode="&#xf1;" horiz-adv-x="554" 
d="M70 435q0 74 84 74v-64q-9 -9 -21 -27l4 -4q30 42 78 68.5t104 26.5q81 0 128 -48t47 -124v-282q0 -33 -21.5 -48.5t-65.5 -15.5v337q0 48 -27 76t-82 28q-37 0 -69.5 -15.5t-52 -42t-19.5 -57.5v-262q0 -33 -21.5 -48.5t-65.5 -15.5v444zM140.5 580.5
q-13.5 16.5 -13.5 41.5q0 34 24 55t61 21q26 0 45 -9.5t44 -28.5q17 -13 27.5 -19t21.5 -6q15 0 22.5 7t7.5 19q0 14 -8 32q10 5 22 5q20 0 34 -17t14 -41q0 -35 -23 -55.5t-59 -20.5q-23 0 -41 9.5t-43 28.5q-17 14 -30 21t-25 7q-15 0 -23.5 -8t-8.5 -22q0 -17 8 -31
q-12 -5 -22 -5q-21 0 -34.5 16.5z" />
    <glyph glyph-name="o" unicode="o" horiz-adv-x="521" 
d="M149.5 14q-49.5 23 -77 62.5t-27.5 88.5v164q0 50 27.5 91t76.5 65t111 24t111.5 -24t77 -65t27.5 -91v-164q0 -49 -28 -88.5t-77 -62.5t-111 -23q-61 0 -110.5 23zM355.5 94.5q35.5 28.5 35.5 74.5v157q0 48 -35.5 78t-95.5 30q-59 0 -95 -30t-36 -78v-157
q0 -46 35.5 -74.5t95.5 -28.5t95.5 28.5z" />
    <glyph glyph-name="oacute" unicode="&#xf3;" horiz-adv-x="521" 
d="M149.5 14q-49.5 23 -77 62.5t-27.5 88.5v164q0 50 27.5 91t76.5 65t111 24t111.5 -24t77 -65t27.5 -91v-164q0 -49 -28 -88.5t-77 -62.5t-111 -23q-61 0 -110.5 23zM355.5 94.5q35.5 28.5 35.5 74.5v157q0 48 -35.5 78t-95.5 30q-59 0 -95 -30t-36 -78v-157
q0 -46 35.5 -74.5t95.5 -28.5t95.5 28.5zM269 696q14 34 77 34h59l-102 -148q-8 -13 -20 -17t-38 -4l-32 1z" />
    <glyph glyph-name="obreve" unicode="&#x14f;" horiz-adv-x="521" 
d="M149.5 14q-49.5 23 -77 62.5t-27.5 88.5v164q0 50 27.5 91t76.5 65t111 24t111.5 -24t77 -65t27.5 -91v-164q0 -49 -28 -88.5t-77 -62.5t-111 -23q-61 0 -110.5 23zM355.5 94.5q35.5 28.5 35.5 74.5v157q0 48 -35.5 78t-95.5 30q-59 0 -95 -30t-36 -78v-157
q0 -46 35.5 -74.5t95.5 -28.5t95.5 28.5zM180 577q-39 16 -63 45.5t-24 67.5q0 62 76 62q0 -60 22 -89.5t69 -29.5t69 29.5t22 89.5q76 0 76 -62q0 -38 -24 -67.5t-63 -45.5t-80 -16t-80 16z" />
    <glyph glyph-name="uni01D2" unicode="&#x1d2;" horiz-adv-x="521" 
d="M149.5 14q-49.5 23 -77 62.5t-27.5 88.5v164q0 50 27.5 91t76.5 65t111 24t111.5 -24t77 -65t27.5 -91v-164q0 -49 -28 -88.5t-77 -62.5t-111 -23q-61 0 -110.5 23zM355.5 94.5q35.5 28.5 35.5 74.5v157q0 48 -35.5 78t-95.5 30q-59 0 -95 -30t-36 -78v-157
q0 -46 35.5 -74.5t95.5 -28.5t95.5 28.5zM337 732q14 17 41 17q15 0 29 -6.5t23 -18.5l-141 -147q-11 -13 -29 -13t-29 13l-141 147q9 12 23 18.5t29 6.5q27 0 41 -17l77 -92z" />
    <glyph glyph-name="ocircumflex" unicode="&#xf4;" horiz-adv-x="521" 
d="M149.5 14q-49.5 23 -77 62.5t-27.5 88.5v164q0 50 27.5 91t76.5 65t111 24t111.5 -24t77 -65t27.5 -91v-164q0 -49 -28 -88.5t-77 -62.5t-111 -23q-61 0 -110.5 23zM355.5 94.5q35.5 28.5 35.5 74.5v157q0 48 -35.5 78t-95.5 30q-59 0 -95 -30t-36 -78v-157
q0 -46 35.5 -74.5t95.5 -28.5t95.5 28.5zM166 568.5q-11 -4.5 -23 -4.5q-16 0 -29.5 6.5t-22.5 18.5l141 147q11 13 29 13t29 -13l141 -147q-9 -12 -22.5 -18.5t-29.5 -6.5q-12 0 -23 4.5t-18 12.5l-77 92l-77 -92q-7 -8 -18 -12.5z" />
    <glyph glyph-name="uni1ED1" unicode="&#x1ed1;" horiz-adv-x="521" 
d="M149.5 14q-49.5 23 -77 62.5t-27.5 88.5v164q0 50 27.5 91t76.5 65t111 24t111.5 -24t77 -65t27.5 -91v-164q0 -49 -28 -88.5t-77 -62.5t-111 -23q-61 0 -110.5 23zM355.5 94.5q35.5 28.5 35.5 74.5v157q0 48 -35.5 78t-95.5 30q-59 0 -95 -30t-36 -78v-157
q0 -46 35.5 -74.5t95.5 -28.5t95.5 28.5zM395 827q7 16 24 23t45 7h41l-85 -118q-8 -11 -18.5 -15.5t-31.5 -4.5q-16 0 -26 1zM182 581q-14 -17 -41 -17q-16 0 -30 6.5t-22 18.5l141 147q11 13 29 13t29 -13l141 -147q-9 -12 -23 -18.5t-29 -6.5q-27 0 -41 17l-77 92z" />
    <glyph glyph-name="uni1ED9" unicode="&#x1ed9;" horiz-adv-x="521" 
d="M149.5 14q-49.5 23 -77 62.5t-27.5 88.5v164q0 50 27.5 91t76.5 65t111 24t111.5 -24t77 -65t27.5 -91v-164q0 -49 -28 -88.5t-77 -62.5t-111 -23q-61 0 -110.5 23zM355.5 94.5q35.5 28.5 35.5 74.5v157q0 48 -35.5 78t-95.5 30q-59 0 -95 -30t-36 -78v-157
q0 -46 35.5 -74.5t95.5 -28.5t95.5 28.5zM219.5 -159.5q-15.5 15.5 -15.5 38.5q0 24 15.5 39.5t40.5 15.5q24 0 39.5 -15.5t15.5 -39.5t-15.5 -39t-39.5 -15q-25 0 -40.5 15.5zM166 568.5q-11 -4.5 -23 -4.5q-16 0 -29.5 6.5t-22.5 18.5l141 147q11 13 29 13t29 -13
l141 -147q-9 -12 -22.5 -18.5t-29.5 -6.5q-12 0 -23 4.5t-18 12.5l-77 92l-77 -92q-7 -8 -18 -12.5z" />
    <glyph glyph-name="uni1ED3" unicode="&#x1ed3;" horiz-adv-x="521" 
d="M149.5 14q-49.5 23 -77 62.5t-27.5 88.5v164q0 50 27.5 91t76.5 65t111 24t111.5 -24t77 -65t27.5 -91v-164q0 -49 -28 -88.5t-77 -62.5t-111 -23q-61 0 -110.5 23zM355.5 94.5q35.5 28.5 35.5 74.5v157q0 48 -35.5 78t-95.5 30q-59 0 -95 -30t-36 -78v-157
q0 -46 35.5 -74.5t95.5 -28.5t95.5 28.5zM409 719q-19 0 -29.5 4.5t-18.5 15.5l-78 118h42q28 0 44.5 -7t23.5 -23l44 -107q-11 -1 -28 -1zM182 581q-14 -17 -41 -17q-16 0 -30 6.5t-22 18.5l141 147q11 13 29 13t29 -13l141 -147q-9 -12 -23 -18.5t-29 -6.5q-27 0 -41 17
l-77 92z" />
    <glyph glyph-name="uni1ED5" unicode="&#x1ed5;" horiz-adv-x="521" 
d="M149.5 14q-49.5 23 -77 62.5t-27.5 88.5v164q0 50 27.5 91t76.5 65t111 24t111.5 -24t77 -65t27.5 -91v-164q0 -49 -28 -88.5t-77 -62.5t-111 -23q-61 0 -110.5 23zM355.5 94.5q35.5 28.5 35.5 74.5v157q0 48 -35.5 78t-95.5 30q-59 0 -95 -30t-36 -78v-157
q0 -46 35.5 -74.5t95.5 -28.5t95.5 28.5zM363 719q0 15 7 25.5t21 23.5q2 2 8.5 9t10 14t3.5 14q0 10 -8.5 16t-23.5 6q-31 0 -31 -30q0 -12 2 -17q-28 0 -44 9t-16 28q0 26 26.5 44.5t65.5 18.5q42 0 68 -18.5t26 -50.5q0 -17 -7 -28t-20 -23q-11 -10 -17 -19t-6 -20
q0 -14 -12 -21.5t-30 -7.5q-11 0 -23 3v24zM182 581q-14 -17 -41 -17q-16 0 -30 6.5t-22 18.5l141 147q11 13 29 13t29 -13l141 -147q-9 -12 -23 -18.5t-29 -6.5q-27 0 -41 17l-77 92z" />
    <glyph glyph-name="uni1ED7" unicode="&#x1ed7;" horiz-adv-x="521" 
d="M149.5 14q-49.5 23 -77 62.5t-27.5 88.5v164q0 50 27.5 91t76.5 65t111 24t111.5 -24t77 -65t27.5 -91v-164q0 -49 -28 -88.5t-77 -62.5t-111 -23q-61 0 -110.5 23zM355.5 94.5q35.5 28.5 35.5 74.5v157q0 48 -35.5 78t-95.5 30q-59 0 -95 -30t-36 -78v-157
q0 -46 35.5 -74.5t95.5 -28.5t95.5 28.5zM134.5 781q-12.5 15 -12.5 38q0 32 22 51.5t56 19.5q24 0 41.5 -8.5t40.5 -25.5q27 -22 45 -22q27 0 27 23q0 12 -8 28q10 5 20 5q19 0 32 -16t13 -38q0 -32 -21 -50t-54 -18q-21 0 -37.5 8.5t-39.5 25.5q-18 13 -29 19t-22 6
q-13 0 -20.5 -8t-7.5 -21q0 -14 6 -28q-12 -4 -19 -4q-20 0 -32.5 15zM141 564q-16 0 -30 6.5t-22 18.5l141 147q11 13 29 13t29 -13l141 -147q-9 -12 -23 -18.5t-29 -6.5q-27 0 -41 17l-77 92l-77 -92q-14 -17 -41 -17z" />
    <glyph glyph-name="odieresis" unicode="&#xf6;" horiz-adv-x="521" 
d="M149.5 14q-49.5 23 -77 62.5t-27.5 88.5v164q0 50 27.5 91t76.5 65t111 24t111.5 -24t77 -65t27.5 -91v-164q0 -49 -28 -88.5t-77 -62.5t-111 -23q-61 0 -110.5 23zM355.5 94.5q35.5 28.5 35.5 74.5v157q0 48 -35.5 78t-95.5 30q-59 0 -95 -30t-36 -78v-157
q0 -46 35.5 -74.5t95.5 -28.5t95.5 28.5zM124.5 590q-15.5 15 -15.5 39t15.5 39.5t40.5 15.5q24 0 39 -15.5t15 -39.5q0 -23 -15 -38.5t-39 -15.5q-25 0 -40.5 15zM317.5 590.5q-15.5 15.5 -15.5 38.5q0 24 15 39.5t40 15.5t40 -15.5t15 -39.5q0 -23 -15 -38.5t-40 -15.5
q-24 0 -39.5 15.5z" />
    <glyph glyph-name="uni1ECD" unicode="&#x1ecd;" horiz-adv-x="521" 
d="M149.5 14q-49.5 23 -77 62.5t-27.5 88.5v164q0 50 27.5 91t76.5 65t111 24t111.5 -24t77 -65t27.5 -91v-164q0 -49 -28 -88.5t-77 -62.5t-111 -23q-61 0 -110.5 23zM355.5 94.5q35.5 28.5 35.5 74.5v157q0 48 -35.5 78t-95.5 30q-59 0 -95 -30t-36 -78v-157
q0 -46 35.5 -74.5t95.5 -28.5t95.5 28.5zM219.5 -159.5q-15.5 15.5 -15.5 38.5q0 24 15.5 39.5t40.5 15.5q24 0 39.5 -15.5t15.5 -39.5t-15.5 -39t-39.5 -15q-25 0 -40.5 15.5z" />
    <glyph glyph-name="ograve" unicode="&#xf2;" horiz-adv-x="521" 
d="M149.5 14q-49.5 23 -77 62.5t-27.5 88.5v164q0 50 27.5 91t76.5 65t111 24t111.5 -24t77 -65t27.5 -91v-164q0 -49 -28 -88.5t-77 -62.5t-111 -23q-61 0 -110.5 23zM355.5 94.5q35.5 28.5 35.5 74.5v157q0 48 -35.5 78t-95.5 30q-59 0 -95 -30t-36 -78v-157
q0 -46 35.5 -74.5t95.5 -28.5t95.5 28.5zM249 564q-17 4 -28 18l-123 148h59q58 0 77 -34l76 -134q-44 -2 -61 2z" />
    <glyph glyph-name="uni1ECF" unicode="&#x1ecf;" horiz-adv-x="521" 
d="M149.5 14q-49.5 23 -77 62.5t-27.5 88.5v164q0 50 27.5 91t76.5 65t111 24t111.5 -24t77 -65t27.5 -91v-164q0 -49 -28 -88.5t-77 -62.5t-111 -23q-61 0 -110.5 23zM355.5 94.5q35.5 28.5 35.5 74.5v157q0 48 -35.5 78t-95.5 30q-59 0 -95 -30t-36 -78v-157
q0 -46 35.5 -74.5t95.5 -28.5t95.5 28.5zM233 593q0 17 8 29.5t23 26.5q13 11 19.5 20t6.5 21q0 27 -34 27t-34 -35q0 -12 3 -21q-31 0 -49 10.5t-18 32.5q0 30 28.5 50.5t72.5 20.5q48 0 76 -20t28 -57q0 -20 -8 -32.5t-24 -26.5q-13 -12 -19.5 -21.5t-6.5 -22.5
q0 -15 -13.5 -23.5t-33.5 -8.5q-11 0 -25 3v27z" />
    <glyph glyph-name="ohorn" unicode="&#x1a1;" horiz-adv-x="561" 
d="M566.5 402.5q-28.5 -37.5 -91.5 -55.5q1 -6 1 -18v-164q0 -49 -28 -88.5t-77 -62.5t-111 -23q-61 0 -110.5 23t-77 62.5t-27.5 88.5v164q0 50 27.5 91t76.5 65t111 24q68 0 120.5 -29t77.5 -77q25 12 37 30t16 45t4 76q80 2 80 -65q0 -49 -28.5 -86.5zM391 326
q0 48 -35.5 78t-95.5 30q-59 0 -95 -30t-36 -78v-157q0 -46 35.5 -74.5t95.5 -28.5t95.5 28.5t35.5 74.5v157z" />
    <glyph glyph-name="uni1EDB" unicode="&#x1edb;" horiz-adv-x="561" 
d="M566.5 402.5q-28.5 -37.5 -91.5 -55.5q1 -6 1 -18v-164q0 -49 -28 -88.5t-77 -62.5t-111 -23q-61 0 -110.5 23t-77 62.5t-27.5 88.5v164q0 50 27.5 91t76.5 65t111 24q68 0 120.5 -29t77.5 -77q25 12 37 30t16 45t4 76q80 2 80 -65q0 -49 -28.5 -86.5zM391 326
q0 48 -35.5 78t-95.5 30q-59 0 -95 -30t-36 -78v-157q0 -46 35.5 -74.5t95.5 -28.5t95.5 28.5t35.5 74.5v157zM327 705q14 34 77 34h59l-102 -148q-8 -13 -20 -17t-38 -4l-32 1z" />
    <glyph glyph-name="uni1EE3" unicode="&#x1ee3;" horiz-adv-x="561" 
d="M566.5 402.5q-28.5 -37.5 -91.5 -55.5q1 -6 1 -18v-164q0 -49 -28 -88.5t-77 -62.5t-111 -23q-61 0 -110.5 23t-77 62.5t-27.5 88.5v164q0 50 27.5 91t76.5 65t111 24q68 0 120.5 -29t77.5 -77q25 12 37 30t16 45t4 76q80 2 80 -65q0 -49 -28.5 -86.5zM391 326
q0 48 -35.5 78t-95.5 30q-59 0 -95 -30t-36 -78v-157q0 -46 35.5 -74.5t95.5 -28.5t95.5 28.5t35.5 74.5v157zM277.5 -159.5q-15.5 15.5 -15.5 38.5q0 24 15.5 39.5t40.5 15.5q24 0 39.5 -15.5t15.5 -39.5t-15.5 -39t-39.5 -15q-25 0 -40.5 15.5z" />
    <glyph glyph-name="uni1EDD" unicode="&#x1edd;" horiz-adv-x="561" 
d="M566.5 402.5q-28.5 -37.5 -91.5 -55.5q1 -6 1 -18v-164q0 -49 -28 -88.5t-77 -62.5t-111 -23q-61 0 -110.5 23t-77 62.5t-27.5 88.5v164q0 50 27.5 91t76.5 65t111 24q68 0 120.5 -29t77.5 -77q25 12 37 30t16 45t4 76q80 2 80 -65q0 -49 -28.5 -86.5zM391 326
q0 48 -35.5 78t-95.5 30q-59 0 -95 -30t-36 -78v-157q0 -46 35.5 -74.5t95.5 -28.5t95.5 28.5t35.5 74.5v157zM307 573q-17 4 -28 18l-123 148h59q58 0 77 -34l76 -134q-44 -2 -61 2z" />
    <glyph glyph-name="uni1EDF" unicode="&#x1edf;" horiz-adv-x="561" 
d="M566.5 402.5q-28.5 -37.5 -91.5 -55.5q1 -6 1 -18v-164q0 -49 -28 -88.5t-77 -62.5t-111 -23q-61 0 -110.5 23t-77 62.5t-27.5 88.5v164q0 50 27.5 91t76.5 65t111 24q68 0 120.5 -29t77.5 -77q25 12 37 30t16 45t4 76q80 2 80 -65q0 -49 -28.5 -86.5zM391 326
q0 48 -35.5 78t-95.5 30q-59 0 -95 -30t-36 -78v-157q0 -46 35.5 -74.5t95.5 -28.5t95.5 28.5t35.5 74.5v157zM291 602q0 17 8 29.5t23 26.5q13 11 19.5 20t6.5 21q0 27 -34 27t-34 -35q0 -12 3 -21q-31 0 -49 10.5t-18 32.5q0 30 28.5 50.5t72.5 20.5q48 0 76 -20t28 -57
q0 -20 -8 -32.5t-24 -26.5q-13 -12 -19.5 -21.5t-6.5 -22.5q0 -15 -13.5 -23.5t-33.5 -8.5q-11 0 -25 3v27z" />
    <glyph glyph-name="uni1EE1" unicode="&#x1ee1;" horiz-adv-x="561" 
d="M566.5 402.5q-28.5 -37.5 -91.5 -55.5q1 -6 1 -18v-164q0 -49 -28 -88.5t-77 -62.5t-111 -23q-61 0 -110.5 23t-77 62.5t-27.5 88.5v164q0 50 27.5 91t76.5 65t111 24q68 0 120.5 -29t77.5 -77q25 12 37 30t16 45t4 76q80 2 80 -65q0 -49 -28.5 -86.5zM391 326
q0 48 -35.5 78t-95.5 30q-59 0 -95 -30t-36 -78v-157q0 -46 35.5 -74.5t95.5 -28.5t95.5 28.5t35.5 74.5v157zM173.5 589.5q-13.5 16.5 -13.5 41.5q0 34 24 55t61 21q26 0 45 -9.5t44 -28.5q17 -13 27.5 -19t21.5 -6q15 0 22.5 7t7.5 19q0 14 -8 32q10 5 22 5q20 0 34 -17
t14 -41q0 -35 -23 -55.5t-59 -20.5q-23 0 -41 9.5t-43 28.5q-17 14 -30 21t-25 7q-15 0 -23.5 -8t-8.5 -22q0 -17 8 -31q-12 -5 -22 -5q-21 0 -34.5 16.5z" />
    <glyph glyph-name="ohungarumlaut" unicode="&#x151;" horiz-adv-x="521" 
d="M149.5 14q-49.5 23 -77 62.5t-27.5 88.5v164q0 50 27.5 91t76.5 65t111 24t111.5 -24t77 -65t27.5 -91v-164q0 -49 -28 -88.5t-77 -62.5t-111 -23q-61 0 -110.5 23zM355.5 94.5q35.5 28.5 35.5 74.5v157q0 48 -35.5 78t-95.5 30q-59 0 -95 -30t-36 -78v-157
q0 -46 35.5 -74.5t95.5 -28.5t95.5 28.5zM201 696q19 34 77 34h55l-125 -148q-12 -14 -28 -18t-58 -2zM379 696q19 34 77 34h54l-120 -148q-10 -12 -22 -16.5t-37 -4.5l-27 1z" />
    <glyph glyph-name="omacron" unicode="&#x14d;" horiz-adv-x="521" 
d="M149.5 14q-49.5 23 -77 62.5t-27.5 88.5v164q0 50 27.5 91t76.5 65t111 24t111.5 -24t77 -65t27.5 -91v-164q0 -49 -28 -88.5t-77 -62.5t-111 -23q-61 0 -110.5 23zM355.5 94.5q35.5 28.5 35.5 74.5v157q0 48 -35.5 78t-95.5 30q-59 0 -95 -30t-36 -78v-157
q0 -46 35.5 -74.5t95.5 -28.5t95.5 28.5zM166 656h256q0 -71 -68 -71h-256q0 71 68 71z" />
    <glyph glyph-name="oslash" unicode="&#xf8;" horiz-adv-x="521" 
d="M458 404q18 -35 18 -75v-164q0 -49 -28 -88.5t-77 -62.5t-111 -23q-44 0 -85 13l-16 -31q-8 -15 -22.5 -23.5t-32.5 -8.5q-17 0 -34 9l43 85q-33 24 -50.5 57.5t-17.5 72.5v164q0 50 27.5 91t76.5 65t111 24q44 0 86 -13l19 38q7 15 22 23t33 8q16 0 34 -8l-47 -93
q33 -25 51 -60zM150 109l161 318q-21 7 -51 7q-59 0 -95 -30t-36 -78v-157q0 -36 21 -60zM391 326q0 36 -22 64l-160 -318q23 -6 51 -6q60 0 95.5 28.5t35.5 74.5v157z" />
    <glyph glyph-name="oslashacute" unicode="&#x1ff;" horiz-adv-x="521" 
d="M458 404q18 -35 18 -75v-164q0 -49 -28 -88.5t-77 -62.5t-111 -23q-44 0 -85 13l-16 -31q-8 -15 -22.5 -23.5t-32.5 -8.5q-17 0 -34 9l43 85q-33 24 -50.5 57.5t-17.5 72.5v164q0 50 27.5 91t76.5 65t111 24q44 0 86 -13l19 38q7 15 22 23t33 8q16 0 34 -8l-47 -93
q33 -25 51 -60zM150 109l161 318q-21 7 -51 7q-59 0 -95 -30t-36 -78v-157q0 -36 21 -60zM391 326q0 36 -22 64l-160 -318q23 -6 51 -6q60 0 95.5 28.5t35.5 74.5v157zM269 705q14 34 77 34h59l-102 -148q-8 -13 -20 -17t-38 -4l-32 1z" />
    <glyph glyph-name="otilde" unicode="&#xf5;" horiz-adv-x="521" 
d="M149.5 14q-49.5 23 -77 62.5t-27.5 88.5v164q0 50 27.5 91t76.5 65t111 24t111.5 -24t77 -65t27.5 -91v-164q0 -49 -28 -88.5t-77 -62.5t-111 -23q-61 0 -110.5 23zM355.5 94.5q35.5 28.5 35.5 74.5v157q0 48 -35.5 78t-95.5 30q-59 0 -95 -30t-36 -78v-157
q0 -46 35.5 -74.5t95.5 -28.5t95.5 28.5zM115.5 580.5q-13.5 16.5 -13.5 41.5q0 34 24 55t61 21q26 0 45 -9.5t44 -28.5q17 -13 27.5 -19t21.5 -6q15 0 22.5 7t7.5 19q0 14 -8 32q10 5 22 5q20 0 34 -17t14 -41q0 -35 -23 -55.5t-59 -20.5q-23 0 -41 9.5t-43 28.5
q-17 14 -30 21t-25 7q-15 0 -23.5 -8t-8.5 -22q0 -17 8 -31q-12 -5 -22 -5q-21 0 -34.5 16.5z" />
    <glyph glyph-name="oe" unicode="&#x153;" horiz-adv-x="848" 
d="M149 14q-49 23 -76.5 62.5t-27.5 88.5v164q0 50 27 91t76 65t111 24q56 0 100.5 -22t71.5 -60q26 38 70 60t96 22q57 0 104 -24t74.5 -66.5t27.5 -94.5v-64q0 -15 -12 -26t-28 -11h-293v-47q0 -53 33 -83.5t94 -30.5t93.5 27.5t32.5 74.5q30 2 50 -12.5t20 -38.5
q0 -30 -26.5 -58.5t-71.5 -46t-98 -17.5q-54 0 -97.5 21t-69.5 58q-28 -37 -71.5 -58t-99.5 -21q-61 0 -110 23zM724 290v34q0 51 -36 82.5t-92 31.5t-91 -31.5t-35 -82.5v-34h254zM354 94.5q35 28.5 35 74.5v157q0 48 -35 78t-95 30t-95 -30t-35 -78v-157q0 -46 35 -74.5
t95 -28.5t95 28.5z" />
    <glyph glyph-name="p" unicode="p" horiz-adv-x="554" 
d="M70 438q0 33 20.5 52t62.5 19v-56l-20 -26l3 -4q31 40 71 63t95 23q86 0 139 -47.5t53 -126.5v-171q0 -79 -55 -126t-143 -47q-47 0 -86.5 19.5t-69.5 51.5l-3 -5q7 -10 21 -22v-176q0 -68 -88 -68v647zM375 94.5q33 26.5 33 73.5v163q0 49 -33 75t-93 26
q-53 0 -89 -27.5t-36 -68.5v-173q0 -40 34 -67.5t92 -27.5q59 0 92 26.5z" />
    <glyph glyph-name="thorn" unicode="&#xfe;" horiz-adv-x="544" 
d="M70 638q0 34 21.5 52.5t61.5 18.5v-256q-15 -18 -20 -26l3 -4q68 86 166 86q86 0 139 -47.5t53 -126.5v-171q0 -78 -54.5 -125.5t-143.5 -47.5q-44 0 -84.5 18.5t-71.5 52.5l-3 -5q6 -9 21 -22v-176q0 -68 -88 -68v847zM375 94.5q33 26.5 33 73.5v163q0 49 -32.5 75
t-93.5 26q-53 0 -89 -27.5t-36 -68.5v-173q0 -42 35 -68.5t91 -26.5q59 0 92 26.5z" />
    <glyph glyph-name="q" unicode="q" horiz-adv-x="555" 
d="M485 -141q0 -68 -88 -68v244q14 12 21 22l-3 5q-29 -31 -72.5 -51t-87.5 -20q-88 0 -141.5 47t-53.5 126v171q0 52 25.5 91.5t70 61t98.5 21.5q98 0 164 -86l4 4l-20 25q0 28 19.5 42.5t63.5 14.5v-650zM180 406q-33 -26 -33 -75v-163q0 -47 33 -73.5t91 -26.5
q53 0 90 28t37 67v173q0 40 -36 68t-89 28q-60 0 -93 -26z" />
    <glyph glyph-name="r" unicode="r" horiz-adv-x="405" 
d="M194 398.5q-37 -33.5 -37 -81.5v-262q0 -33 -21.5 -48.5t-65.5 -15.5v444q0 74 84 74v-61q-16 -17 -22 -30l4 -4q64 95 160 95q36 0 55 -17.5t19 -42.5q0 -18 -9 -32q-28 15 -74 15q-56 0 -93 -33.5z" />
    <glyph glyph-name="racute" unicode="&#x155;" horiz-adv-x="405" 
d="M194 398.5q-37 -33.5 -37 -81.5v-262q0 -33 -21.5 -48.5t-65.5 -15.5v444q0 74 84 74v-61q-16 -17 -22 -30l4 -4q64 95 160 95q36 0 55 -17.5t19 -42.5q0 -18 -9 -32q-28 15 -74 15q-56 0 -93 -33.5zM224 696q14 34 77 34h59l-102 -148q-8 -13 -20 -17t-38 -4l-32 1z" />
    <glyph glyph-name="rcaron" unicode="&#x159;" horiz-adv-x="405" 
d="M194 398.5q-37 -33.5 -37 -81.5v-262q0 -33 -21.5 -48.5t-65.5 -15.5v444q0 74 84 74v-61q-16 -17 -22 -30l4 -4q64 95 160 95q36 0 55 -17.5t19 -42.5q0 -18 -9 -32q-28 15 -74 15q-56 0 -93 -33.5zM292 732q14 17 41 17q15 0 29 -6.5t23 -18.5l-141 -147
q-11 -13 -29 -13t-29 13l-141 147q9 12 23 18.5t29 6.5q27 0 41 -17l77 -92z" />
    <glyph glyph-name="uni0157" unicode="&#x157;" horiz-adv-x="405" 
d="M194 398.5q-37 -33.5 -37 -81.5v-262q0 -33 -21.5 -48.5t-65.5 -15.5v444q0 74 84 74v-61q-16 -17 -22 -30l4 -4q64 95 160 95q36 0 55 -17.5t19 -42.5q0 -18 -9 -32q-28 15 -74 15q-56 0 -93 -33.5zM124 -177q-3 -2 -9.5 -3.5t-12.5 -1.5q-29 0 -46.5 17.5t-17.5 47.5
q0 31 20.5 50t51.5 19q33 0 53.5 -20.5t20.5 -51.5q0 -63 -19 -103t-56 -74q-10 -8 -27 -8q-14 0 -23 7q65 64 65 121z" />
    <glyph glyph-name="uni1E5B" unicode="&#x1e5b;" horiz-adv-x="405" 
d="M194 398.5q-37 -33.5 -37 -81.5v-262q0 -33 -21.5 -48.5t-65.5 -15.5v444q0 74 84 74v-61q-16 -17 -22 -30l4 -4q64 95 160 95q36 0 55 -17.5t19 -42.5q0 -18 -9 -32q-28 15 -74 15q-56 0 -93 -33.5zM70.5 -159.5q-15.5 15.5 -15.5 38.5q0 24 15.5 39.5t40.5 15.5
q24 0 39.5 -15.5t15.5 -39.5t-15.5 -39t-39.5 -15q-25 0 -40.5 15.5z" />
    <glyph glyph-name="uni1E5D" unicode="&#x1e5d;" horiz-adv-x="405" 
d="M194 398.5q-37 -33.5 -37 -81.5v-262q0 -33 -21.5 -48.5t-65.5 -15.5v444q0 74 84 74v-61q-16 -17 -22 -30l4 -4q64 95 160 95q36 0 55 -17.5t19 -42.5q0 -18 -9 -32q-28 15 -74 15q-56 0 -93 -33.5zM70.5 -159.5q-15.5 15.5 -15.5 38.5q0 24 15.5 39.5t40.5 15.5
q24 0 39.5 -15.5t15.5 -39.5t-15.5 -39t-39.5 -15q-25 0 -40.5 15.5zM121 656h256q0 -71 -68 -71h-256q0 71 68 71z" />
    <glyph glyph-name="uni1E5F" unicode="&#x1e5f;" horiz-adv-x="405" 
d="M194 398.5q-37 -33.5 -37 -81.5v-262q0 -33 -21.5 -48.5t-65.5 -15.5v444q0 74 84 74v-61q-16 -17 -22 -30l4 -4q64 95 160 95q36 0 55 -17.5t19 -42.5q0 -18 -9 -32q-28 15 -74 15q-56 0 -93 -33.5zM17 -57h256q0 -71 -68 -71h-256q0 71 68 71z" />
    <glyph glyph-name="s" unicode="s" horiz-adv-x="506" 
d="M155 6.5q-45 15.5 -72.5 44.5t-27.5 68q0 48 58 52q10 -56 47.5 -82.5t95.5 -26.5t90 17t32 52q0 25 -13 40.5t-41.5 27t-81.5 22.5q-66 15 -105 32t-59.5 45t-20.5 74q0 39 24 70.5t66.5 49t96.5 17.5q50 0 94.5 -14t72 -40t27.5 -60q0 -23 -18 -36.5t-50 -15.5
q-3 44 -35.5 69.5t-90.5 25.5q-48 0 -76 -18t-28 -48q0 -32 26.5 -47.5t90.5 -29.5q105 -21 154.5 -57.5t49.5 -103.5q0 -68 -55 -105.5t-155 -37.5q-51 0 -96 15.5z" />
    <glyph glyph-name="sacute" unicode="&#x15b;" horiz-adv-x="506" 
d="M155 6.5q-45 15.5 -72.5 44.5t-27.5 68q0 48 58 52q10 -56 47.5 -82.5t95.5 -26.5t90 17t32 52q0 25 -13 40.5t-41.5 27t-81.5 22.5q-66 15 -105 32t-59.5 45t-20.5 74q0 39 24 70.5t66.5 49t96.5 17.5q50 0 94.5 -14t72 -40t27.5 -60q0 -23 -18 -36.5t-50 -15.5
q-3 44 -35.5 69.5t-90.5 25.5q-48 0 -76 -18t-28 -48q0 -32 26.5 -47.5t90.5 -29.5q105 -21 154.5 -57.5t49.5 -103.5q0 -68 -55 -105.5t-155 -37.5q-51 0 -96 15.5zM258 696q14 34 77 34h59l-102 -148q-8 -13 -20 -17t-38 -4l-32 1z" />
    <glyph glyph-name="scaron" unicode="&#x161;" horiz-adv-x="506" 
d="M155 6.5q-45 15.5 -72.5 44.5t-27.5 68q0 48 58 52q10 -56 47.5 -82.5t95.5 -26.5t90 17t32 52q0 25 -13 40.5t-41.5 27t-81.5 22.5q-66 15 -105 32t-59.5 45t-20.5 74q0 39 24 70.5t66.5 49t96.5 17.5q50 0 94.5 -14t72 -40t27.5 -60q0 -23 -18 -36.5t-50 -15.5
q-3 44 -35.5 69.5t-90.5 25.5q-48 0 -76 -18t-28 -48q0 -32 26.5 -47.5t90.5 -29.5q105 -21 154.5 -57.5t49.5 -103.5q0 -68 -55 -105.5t-155 -37.5q-51 0 -96 15.5zM326 732q14 17 41 17q15 0 29 -6.5t23 -18.5l-141 -147q-11 -13 -29 -13t-29 13l-141 147q9 12 23 18.5
t29 6.5q27 0 41 -17l77 -92z" />
    <glyph glyph-name="scedilla" unicode="&#x15f;" horiz-adv-x="506" 
d="M419 38q-42 -36 -121 -45l-26 -37q44 0 68.5 -23.5t24.5 -60.5q0 -43 -30.5 -68t-80.5 -25q-43 0 -72 18.5t-29 43.5q0 19 12 30q29 -36 78 -36q50 0 50 38q0 18 -12.5 28t-34.5 10q-20 2 -37 -6q-10 -3 -18.5 4t-8.5 18q0 7 4 14l35 51q-70 7 -118 41t-48 86q0 48 58 52
q10 -56 47.5 -82.5t95.5 -26.5t90 17t32 52q0 25 -13 40.5t-41.5 27t-81.5 22.5q-66 15 -105 32t-59.5 45t-20.5 74q0 39 24 70.5t66.5 49t96.5 17.5q50 0 94.5 -14t72 -40t27.5 -60q0 -23 -18 -36.5t-50 -15.5q-3 44 -35.5 69.5t-90.5 25.5q-48 0 -76 -18t-28 -48
q0 -32 26.5 -47.5t90.5 -29.5q105 -21 154.5 -57.5t49.5 -103.5q0 -60 -42 -96z" />
    <glyph glyph-name="scircumflex" unicode="&#x15d;" horiz-adv-x="506" 
d="M155 6.5q-45 15.5 -72.5 44.5t-27.5 68q0 48 58 52q10 -56 47.5 -82.5t95.5 -26.5t90 17t32 52q0 25 -13 40.5t-41.5 27t-81.5 22.5q-66 15 -105 32t-59.5 45t-20.5 74q0 39 24 70.5t66.5 49t96.5 17.5q50 0 94.5 -14t72 -40t27.5 -60q0 -23 -18 -36.5t-50 -15.5
q-3 44 -35.5 69.5t-90.5 25.5q-48 0 -76 -18t-28 -48q0 -32 26.5 -47.5t90.5 -29.5q105 -21 154.5 -57.5t49.5 -103.5q0 -68 -55 -105.5t-155 -37.5q-51 0 -96 15.5zM155 568.5q-11 -4.5 -23 -4.5q-16 0 -29.5 6.5t-22.5 18.5l141 147q11 13 29 13t29 -13l141 -147
q-9 -12 -22.5 -18.5t-29.5 -6.5q-12 0 -23 4.5t-18 12.5l-77 92l-77 -92q-7 -8 -18 -12.5z" />
    <glyph glyph-name="uni0219" unicode="&#x219;" horiz-adv-x="506" 
d="M155 6.5q-45 15.5 -72.5 44.5t-27.5 68q0 48 58 52q10 -56 47.5 -82.5t95.5 -26.5t90 17t32 52q0 25 -13 40.5t-41.5 27t-81.5 22.5q-66 15 -105 32t-59.5 45t-20.5 74q0 39 24 70.5t66.5 49t96.5 17.5q50 0 94.5 -14t72 -40t27.5 -60q0 -23 -18 -36.5t-50 -15.5
q-3 44 -35.5 69.5t-90.5 25.5q-48 0 -76 -18t-28 -48q0 -32 26.5 -47.5t90.5 -29.5q105 -21 154.5 -57.5t49.5 -103.5q0 -68 -55 -105.5t-155 -37.5q-51 0 -96 15.5zM268 -177q-3 -2 -9.5 -3.5t-12.5 -1.5q-29 0 -46.5 17.5t-17.5 47.5q0 31 20.5 50t51.5 19
q33 0 53.5 -20.5t20.5 -51.5q0 -63 -19 -103t-56 -74q-10 -8 -27 -8q-14 0 -23 7q65 64 65 121z" />
    <glyph glyph-name="uni1E61" unicode="&#x1e61;" horiz-adv-x="506" 
d="M155 6.5q-45 15.5 -72.5 44.5t-27.5 68q0 48 58 52q10 -56 47.5 -82.5t95.5 -26.5t90 17t32 52q0 25 -13 40.5t-41.5 27t-81.5 22.5q-66 15 -105 32t-59.5 45t-20.5 74q0 39 24 70.5t66.5 49t96.5 17.5q50 0 94.5 -14t72 -40t27.5 -60q0 -23 -18 -36.5t-50 -15.5
q-3 44 -35.5 69.5t-90.5 25.5q-48 0 -76 -18t-28 -48q0 -32 26.5 -47.5t90.5 -29.5q105 -21 154.5 -57.5t49.5 -103.5q0 -68 -55 -105.5t-155 -37.5q-51 0 -96 15.5zM209.5 590.5q-15.5 15.5 -15.5 38.5q0 24 15.5 39.5t40.5 15.5q24 0 39.5 -15.5t15.5 -39.5
q0 -23 -15 -38.5t-40 -15.5t-40.5 15.5z" />
    <glyph glyph-name="uni1E63" unicode="&#x1e63;" horiz-adv-x="506" 
d="M155 6.5q-45 15.5 -72.5 44.5t-27.5 68q0 48 58 52q10 -56 47.5 -82.5t95.5 -26.5t90 17t32 52q0 25 -13 40.5t-41.5 27t-81.5 22.5q-66 15 -105 32t-59.5 45t-20.5 74q0 39 24 70.5t66.5 49t96.5 17.5q50 0 94.5 -14t72 -40t27.5 -60q0 -23 -18 -36.5t-50 -15.5
q-3 44 -35.5 69.5t-90.5 25.5q-48 0 -76 -18t-28 -48q0 -32 26.5 -47.5t90.5 -29.5q105 -21 154.5 -57.5t49.5 -103.5q0 -68 -55 -105.5t-155 -37.5q-51 0 -96 15.5zM214.5 -159.5q-15.5 15.5 -15.5 38.5q0 24 15.5 39.5t40.5 15.5q24 0 39.5 -15.5t15.5 -39.5t-15.5 -39
t-39.5 -15q-25 0 -40.5 15.5z" />
    <glyph glyph-name="germandbls" unicode="&#xdf;" horiz-adv-x="569" 
d="M65 499q0 98 55.5 154t153.5 56t153.5 -49t55.5 -136q0 -51 -26 -91.5t-73 -59.5q140 -35 140 -178q0 -96 -49 -150t-136 -54q-48 0 -82 19t-34 45q0 21 12 37q38 -24 96 -24q48 0 73.5 33.5t25.5 95.5q0 70 -40.5 102t-131.5 33v67q66 2 97.5 33t31.5 92
q0 53 -29.5 80.5t-84.5 27.5q-56 0 -86 -33.5t-30 -96.5v-564q0 -36 -23.5 -55t-68.5 -19v635z" />
    <glyph glyph-name="t" unicode="t" horiz-adv-x="397" 
d="M163 31.5q-35 40.5 -35 106.5v292h-93q0 34 15 52t41 18h38v95q0 33 21.5 48.5t64.5 15.5v-159h133q0 -70 -63 -70h-69v-289q0 -40 14.5 -56.5t52.5 -16.5q35 0 66 18q13 -13 13 -35q0 -24 -25 -42t-68 -18q-71 0 -106 40.5z" />
    <glyph glyph-name="tbar" unicode="&#x167;" horiz-adv-x="397" 
d="M362 51q0 -24 -25 -42t-68 -18q-71 0 -106 40.5t-35 106.5v96h-87q0 32 14 48.5t40 16.5h33v131h-93q0 34 15 52t41 18h38v95q0 33 21.5 48.5t64.5 15.5v-159h133q0 -70 -63 -70h-69v-131h129q0 -30 -14 -47.5t-40 -17.5h-75v-93q0 -40 14.5 -56.5t52.5 -16.5q35 0 66 18
q13 -13 13 -35z" />
    <glyph glyph-name="tcaron" unicode="&#x165;" horiz-adv-x="494" 
d="M163 31.5q-35 40.5 -35 106.5v292h-93q0 34 15 52t41 18h38v95q0 33 21.5 48.5t64.5 15.5v-159h133q0 -70 -63 -70h-69v-289q0 -40 14.5 -56.5t52.5 -16.5q35 0 66 18q13 -13 13 -35q0 -24 -25 -42t-68 -18q-71 0 -106 40.5zM449.5 585.5q16.5 31.5 16.5 58.5
q-4 -2 -10 -3.5t-12 -1.5q-29 0 -46.5 17.5t-17.5 46.5q0 31 20 50.5t52 19.5q33 0 53.5 -21t20.5 -52q0 -62 -19 -102t-56 -74q-10 -8 -28 -8q-15 0 -22 6q32 32 48.5 63.5z" />
    <glyph glyph-name="uni0163" unicode="&#x163;" horiz-adv-x="397" 
d="M331.5 -67.5q24.5 -23.5 24.5 -60.5q0 -43 -30.5 -68t-80.5 -25q-43 0 -72 18.5t-29 43.5q0 19 12 30q29 -36 78 -36q50 0 50 38q0 18 -12.5 28t-34.5 10q-20 2 -37 -6q-10 -3 -18.5 4t-8.5 18q0 7 4 14l39 57q-45 14 -66.5 51t-21.5 89v292h-93q0 34 15 52t41 18h38v95
q0 33 21.5 48.5t64.5 15.5v-159h133q0 -70 -63 -70h-69v-289q0 -40 14.5 -56.5t52.5 -16.5q35 0 66 18q13 -13 13 -35q0 -21 -19.5 -38t-54.5 -21l-25 -36q44 0 68.5 -23.5z" />
    <glyph glyph-name="uni021B" unicode="&#x21b;" horiz-adv-x="397" 
d="M163 31.5q-35 40.5 -35 106.5v292h-93q0 34 15 52t41 18h38v95q0 33 21.5 48.5t64.5 15.5v-159h133q0 -70 -63 -70h-69v-289q0 -40 14.5 -56.5t52.5 -16.5q35 0 66 18q13 -13 13 -35q0 -24 -25 -42t-68 -18q-71 0 -106 40.5zM259 -177q-3 -2 -9.5 -3.5t-12.5 -1.5
q-29 0 -46.5 17.5t-17.5 47.5q0 31 20.5 50t51.5 19q33 0 53.5 -20.5t20.5 -51.5q0 -63 -19 -103t-56 -74q-10 -8 -27 -8q-14 0 -23 7q65 64 65 121z" />
    <glyph glyph-name="uni1E97" unicode="&#x1e97;" horiz-adv-x="397" 
d="M163 31.5q-35 40.5 -35 106.5v292h-93q0 34 15 52t41 18h38v95q0 33 21.5 48.5t64.5 15.5v-159h133q0 -70 -63 -70h-69v-289q0 -40 14.5 -56.5t52.5 -16.5q35 0 66 18q13 -13 13 -35q0 -24 -25 -42t-68 -18q-71 0 -106 40.5zM44.5 748q-15.5 15 -15.5 39t15.5 39.5
t40.5 15.5q24 0 39 -15.5t15 -39.5q0 -23 -15 -38.5t-39 -15.5q-25 0 -40.5 15zM237.5 748.5q-15.5 15.5 -15.5 38.5q0 24 15 39.5t40 15.5t40 -15.5t15 -39.5q0 -23 -15 -38.5t-40 -15.5q-24 0 -39.5 15.5z" />
    <glyph glyph-name="uni1E6D" unicode="&#x1e6d;" horiz-adv-x="397" 
d="M163 31.5q-35 40.5 -35 106.5v292h-93q0 34 15 52t41 18h38v95q0 33 21.5 48.5t64.5 15.5v-159h133q0 -70 -63 -70h-69v-289q0 -40 14.5 -56.5t52.5 -16.5q35 0 66 18q13 -13 13 -35q0 -24 -25 -42t-68 -18q-71 0 -106 40.5zM205.5 -159.5q-15.5 15.5 -15.5 38.5
q0 24 15.5 39.5t40.5 15.5q24 0 39.5 -15.5t15.5 -39.5t-15.5 -39t-39.5 -15q-25 0 -40.5 15.5z" />
    <glyph glyph-name="uni1E6F" unicode="&#x1e6f;" horiz-adv-x="397" 
d="M163 31.5q-35 40.5 -35 106.5v292h-93q0 34 15 52t41 18h38v95q0 33 21.5 48.5t64.5 15.5v-159h133q0 -70 -63 -70h-69v-289q0 -40 14.5 -56.5t52.5 -16.5q35 0 66 18q13 -13 13 -35q0 -24 -25 -42t-68 -18q-71 0 -106 40.5zM152 -57h256q0 -71 -68 -71h-256q0 71 68 71z
" />
    <glyph glyph-name="u" unicode="u" horiz-adv-x="554" 
d="M484 65q0 -74 -84 -74v64q9 9 21 27l-4 4q-30 -43 -75.5 -69t-99.5 -26t-95.5 23t-64 64t-22.5 92v275q0 33 22 48.5t66 15.5v-335q0 -48 28.5 -77t84.5 -29q37 0 68 15.5t49.5 42t18.5 57.5v262q0 33 21.5 48.5t65.5 15.5v-444z" />
    <glyph glyph-name="uacute" unicode="&#xfa;" horiz-adv-x="554" 
d="M484 65q0 -74 -84 -74v64q9 9 21 27l-4 4q-30 -43 -75.5 -69t-99.5 -26t-95.5 23t-64 64t-22.5 92v275q0 33 22 48.5t66 15.5v-335q0 -48 28.5 -77t84.5 -29q37 0 68 15.5t49.5 42t18.5 57.5v262q0 33 21.5 48.5t65.5 15.5v-444zM288 696q14 34 77 34h59l-102 -148
q-8 -13 -20 -17t-38 -4l-32 1z" />
    <glyph glyph-name="ubreve" unicode="&#x16d;" horiz-adv-x="554" 
d="M484 65q0 -74 -84 -74v64q9 9 21 27l-4 4q-30 -43 -75.5 -69t-99.5 -26t-95.5 23t-64 64t-22.5 92v275q0 33 22 48.5t66 15.5v-335q0 -48 28.5 -77t84.5 -29q37 0 68 15.5t49.5 42t18.5 57.5v262q0 33 21.5 48.5t65.5 15.5v-444zM199 577q-39 16 -63 45.5t-24 67.5
q0 62 76 62q0 -60 22 -89.5t69 -29.5t69 29.5t22 89.5q76 0 76 -62q0 -38 -24 -67.5t-63 -45.5t-80 -16t-80 16z" />
    <glyph glyph-name="uni01D4" unicode="&#x1d4;" horiz-adv-x="554" 
d="M484 65q0 -74 -84 -74v64q9 9 21 27l-4 4q-30 -43 -75.5 -69t-99.5 -26t-95.5 23t-64 64t-22.5 92v275q0 33 22 48.5t66 15.5v-335q0 -48 28.5 -77t84.5 -29q37 0 68 15.5t49.5 42t18.5 57.5v262q0 33 21.5 48.5t65.5 15.5v-444zM356 732q14 17 41 17q15 0 29 -6.5
t23 -18.5l-141 -147q-11 -13 -29 -13t-29 13l-141 147q9 12 23 18.5t29 6.5q27 0 41 -17l77 -92z" />
    <glyph glyph-name="ucircumflex" unicode="&#xfb;" horiz-adv-x="554" 
d="M484 65q0 -74 -84 -74v64q9 9 21 27l-4 4q-30 -43 -75.5 -69t-99.5 -26t-95.5 23t-64 64t-22.5 92v275q0 33 22 48.5t66 15.5v-335q0 -48 28.5 -77t84.5 -29q37 0 68 15.5t49.5 42t18.5 57.5v262q0 33 21.5 48.5t65.5 15.5v-444zM185 568.5q-11 -4.5 -23 -4.5
q-16 0 -29.5 6.5t-22.5 18.5l141 147q11 13 29 13t29 -13l141 -147q-9 -12 -22.5 -18.5t-29.5 -6.5q-12 0 -23 4.5t-18 12.5l-77 92l-77 -92q-7 -8 -18 -12.5z" />
    <glyph glyph-name="udieresis" unicode="&#xfc;" horiz-adv-x="554" 
d="M484 65q0 -74 -84 -74v64q9 9 21 27l-4 4q-30 -43 -75.5 -69t-99.5 -26t-95.5 23t-64 64t-22.5 92v275q0 33 22 48.5t66 15.5v-335q0 -48 28.5 -77t84.5 -29q37 0 68 15.5t49.5 42t18.5 57.5v262q0 33 21.5 48.5t65.5 15.5v-444zM143.5 590q-15.5 15 -15.5 39t15.5 39.5
t40.5 15.5q24 0 39 -15.5t15 -39.5q0 -23 -15 -38.5t-39 -15.5q-25 0 -40.5 15zM336.5 590.5q-15.5 15.5 -15.5 38.5q0 24 15 39.5t40 15.5t40 -15.5t15 -39.5q0 -23 -15 -38.5t-40 -15.5q-24 0 -39.5 15.5z" />
    <glyph glyph-name="uni01D8" unicode="&#x1d8;" horiz-adv-x="554" 
d="M484 65q0 -74 -84 -74v64q9 9 21 27l-4 4q-30 -43 -75.5 -69t-99.5 -26t-95.5 23t-64 64t-22.5 92v275q0 33 22 48.5t66 15.5v-335q0 -48 28.5 -77t84.5 -29q37 0 68 15.5t49.5 42t18.5 57.5v262q0 33 21.5 48.5t65.5 15.5v-444zM298 827q14 30 68 30h42l-86 -118
q-8 -11 -19 -15.5t-31 -4.5q-16 0 -26 1zM142.5 590q-15.5 15 -15.5 39t15.5 39.5t40.5 15.5q24 0 39 -15.5t15 -39.5q0 -23 -15 -38.5t-39 -15.5q-25 0 -40.5 15zM335.5 590.5q-15.5 15.5 -15.5 38.5q0 24 15 39.5t40 15.5t40 -15.5t15 -39.5q0 -23 -15 -38.5t-40 -15.5
q-24 0 -39.5 15.5z" />
    <glyph glyph-name="uni01DA" unicode="&#x1da;" horiz-adv-x="554" 
d="M484 65q0 -74 -84 -74v64q9 9 21 27l-4 4q-30 -43 -75.5 -69t-99.5 -26t-95.5 23t-64 64t-22.5 92v275q0 33 22 48.5t66 15.5v-335q0 -48 28.5 -77t84.5 -29q37 0 68 15.5t49.5 42t18.5 57.5v262q0 33 21.5 48.5t65.5 15.5v-444zM350 843q14 16 40 16q14 0 27 -6t21 -18
l-132 -134q-13 -13 -27 -13q-15 0 -28 13l-132 134q8 12 21 18t27 6q26 0 40 -16l72 -82zM142.5 590q-15.5 15 -15.5 39t15.5 39.5t40.5 15.5q24 0 39 -15.5t15 -39.5q0 -23 -15 -38.5t-39 -15.5q-25 0 -40.5 15zM335.5 590.5q-15.5 15.5 -15.5 38.5q0 24 15 39.5t40 15.5
t40 -15.5t15 -39.5q0 -23 -15 -38.5t-40 -15.5q-24 0 -39.5 15.5z" />
    <glyph glyph-name="uni01DC" unicode="&#x1dc;" horiz-adv-x="554" 
d="M484 65q0 -74 -84 -74v64q9 9 21 27l-4 4q-30 -43 -75.5 -69t-99.5 -26t-95.5 23t-64 64t-22.5 92v275q0 33 22 48.5t66 15.5v-335q0 -48 28.5 -77t84.5 -29q37 0 68 15.5t49.5 42t18.5 57.5v262q0 33 21.5 48.5t65.5 15.5v-444zM284 719q-20 0 -31 4.5t-19 15.5l-88 119
h42q27 0 43.5 -7t24.5 -23l54 -108q-10 -1 -26 -1zM141.5 590.5q-15.5 15.5 -15.5 38.5q0 24 15 39.5t40 15.5t40 -15.5t15 -39.5q0 -23 -15 -38.5t-40 -15.5q-24 0 -39.5 15.5zM334 590.5q-15 15.5 -15 38.5q0 24 15 39.5t39 15.5q25 0 40.5 -15.5t15.5 -39.5t-15.5 -39
t-40.5 -15q-24 0 -39 15.5z" />
    <glyph glyph-name="uni01D6" unicode="&#x1d6;" horiz-adv-x="554" 
d="M484 65q0 -74 -84 -74v64q9 9 21 27l-4 4q-30 -43 -75.5 -69t-99.5 -26t-95.5 23t-64 64t-22.5 92v275q0 33 22 48.5t66 15.5v-335q0 -48 28.5 -77t84.5 -29q37 0 68 15.5t49.5 42t18.5 57.5v262q0 33 21.5 48.5t65.5 15.5v-444zM143.5 590q-15.5 15 -15.5 39t15.5 39.5
t40.5 15.5q24 0 39 -15.5t15 -39.5q0 -23 -15 -38.5t-39 -15.5q-25 0 -40.5 15zM336.5 590.5q-15.5 15.5 -15.5 38.5q0 24 15 39.5t40 15.5t40 -15.5t15 -39.5q0 -23 -15 -38.5t-40 -15.5q-24 0 -39.5 15.5zM185 812h256q0 -71 -68 -71h-256q0 71 68 71z" />
    <glyph glyph-name="uni1EE5" unicode="&#x1ee5;" horiz-adv-x="554" 
d="M484 65q0 -74 -84 -74v64q9 9 21 27l-4 4q-30 -43 -75.5 -69t-99.5 -26t-95.5 23t-64 64t-22.5 92v275q0 33 22 48.5t66 15.5v-335q0 -48 28.5 -77t84.5 -29q37 0 68 15.5t49.5 42t18.5 57.5v262q0 33 21.5 48.5t65.5 15.5v-444zM238.5 -159.5q-15.5 15.5 -15.5 38.5
q0 24 15.5 39.5t40.5 15.5q24 0 39.5 -15.5t15.5 -39.5t-15.5 -39t-39.5 -15q-25 0 -40.5 15.5z" />
    <glyph glyph-name="ugrave" unicode="&#xf9;" horiz-adv-x="554" 
d="M484 65q0 -74 -84 -74v64q9 9 21 27l-4 4q-30 -43 -75.5 -69t-99.5 -26t-95.5 23t-64 64t-22.5 92v275q0 33 22 48.5t66 15.5v-335q0 -48 28.5 -77t84.5 -29q37 0 68 15.5t49.5 42t18.5 57.5v262q0 33 21.5 48.5t65.5 15.5v-444zM268 564q-17 4 -28 18l-123 148h59
q58 0 77 -34l76 -134q-44 -2 -61 2z" />
    <glyph glyph-name="uni1EE7" unicode="&#x1ee7;" horiz-adv-x="554" 
d="M484 65q0 -74 -84 -74v64q9 9 21 27l-4 4q-30 -43 -75.5 -69t-99.5 -26t-95.5 23t-64 64t-22.5 92v275q0 33 22 48.5t66 15.5v-335q0 -48 28.5 -77t84.5 -29q37 0 68 15.5t49.5 42t18.5 57.5v262q0 33 21.5 48.5t65.5 15.5v-444zM252 593q0 17 8 29.5t23 26.5
q13 11 19.5 20t6.5 21q0 27 -34 27t-34 -35q0 -12 3 -21q-31 0 -49 10.5t-18 32.5q0 30 28.5 50.5t72.5 20.5q48 0 76 -20t28 -57q0 -20 -8 -32.5t-24 -26.5q-13 -12 -19.5 -21.5t-6.5 -22.5q0 -15 -13.5 -23.5t-33.5 -8.5q-11 0 -25 3v27z" />
    <glyph glyph-name="uhorn" unicode="&#x1b0;" horiz-adv-x="585" 
d="M576.5 428.5q-28.5 -37.5 -92.5 -56.5v-307q0 -74 -84 -74v64q9 9 21 27l-4 4q-30 -43 -75.5 -69t-99.5 -26t-95.5 23t-64 64t-22.5 92v275q0 33 22 48.5t66 15.5v-335q0 -48 28.5 -77t84.5 -29q37 0 68 15.5t49.5 42t18.5 57.5v262q0 33 21.5 48.5t65.5 15.5v-71
q26 18 33.5 48t7.5 94q80 2 80 -65q0 -49 -28.5 -86.5z" />
    <glyph glyph-name="uni1EE9" unicode="&#x1ee9;" horiz-adv-x="585" 
d="M576.5 428.5q-28.5 -37.5 -92.5 -56.5v-307q0 -74 -84 -74v64q9 9 21 27l-4 4q-30 -43 -75.5 -69t-99.5 -26t-95.5 23t-64 64t-22.5 92v275q0 33 22 48.5t66 15.5v-335q0 -48 28.5 -77t84.5 -29q37 0 68 15.5t49.5 42t18.5 57.5v262q0 33 21.5 48.5t65.5 15.5v-71
q26 18 33.5 48t7.5 94q80 2 80 -65q0 -49 -28.5 -86.5zM283 696q14 34 77 34h59l-102 -148q-8 -13 -20 -17t-38 -4l-32 1z" />
    <glyph glyph-name="uni1EF1" unicode="&#x1ef1;" horiz-adv-x="585" 
d="M576.5 428.5q-28.5 -37.5 -92.5 -56.5v-307q0 -74 -84 -74v64q9 9 21 27l-4 4q-30 -43 -75.5 -69t-99.5 -26t-95.5 23t-64 64t-22.5 92v275q0 33 22 48.5t66 15.5v-335q0 -48 28.5 -77t84.5 -29q37 0 68 15.5t49.5 42t18.5 57.5v262q0 33 21.5 48.5t65.5 15.5v-71
q26 18 33.5 48t7.5 94q80 2 80 -65q0 -49 -28.5 -86.5zM233.5 -159.5q-15.5 15.5 -15.5 38.5q0 24 15.5 39.5t40.5 15.5q24 0 39.5 -15.5t15.5 -39.5t-15.5 -39t-39.5 -15q-25 0 -40.5 15.5z" />
    <glyph glyph-name="uni1EEB" unicode="&#x1eeb;" horiz-adv-x="585" 
d="M576.5 428.5q-28.5 -37.5 -92.5 -56.5v-307q0 -74 -84 -74v64q9 9 21 27l-4 4q-30 -43 -75.5 -69t-99.5 -26t-95.5 23t-64 64t-22.5 92v275q0 33 22 48.5t66 15.5v-335q0 -48 28.5 -77t84.5 -29q37 0 68 15.5t49.5 42t18.5 57.5v262q0 33 21.5 48.5t65.5 15.5v-71
q26 18 33.5 48t7.5 94q80 2 80 -65q0 -49 -28.5 -86.5zM263 564q-17 4 -28 18l-123 148h59q58 0 77 -34l76 -134q-44 -2 -61 2z" />
    <glyph glyph-name="uni1EED" unicode="&#x1eed;" horiz-adv-x="585" 
d="M576.5 428.5q-28.5 -37.5 -92.5 -56.5v-307q0 -74 -84 -74v64q9 9 21 27l-4 4q-30 -43 -75.5 -69t-99.5 -26t-95.5 23t-64 64t-22.5 92v275q0 33 22 48.5t66 15.5v-335q0 -48 28.5 -77t84.5 -29q37 0 68 15.5t49.5 42t18.5 57.5v262q0 33 21.5 48.5t65.5 15.5v-71
q26 18 33.5 48t7.5 94q80 2 80 -65q0 -49 -28.5 -86.5zM247 593q0 17 8 29.5t23 26.5q13 11 19.5 20t6.5 21q0 27 -34 27t-34 -35q0 -12 3 -21q-31 0 -49 10.5t-18 32.5q0 30 28.5 50.5t72.5 20.5q48 0 76 -20t28 -57q0 -20 -8 -32.5t-24 -26.5q-13 -12 -19.5 -21.5
t-6.5 -22.5q0 -15 -13.5 -23.5t-33.5 -8.5q-11 0 -25 3v27z" />
    <glyph glyph-name="uni1EEF" unicode="&#x1eef;" horiz-adv-x="585" 
d="M576.5 428.5q-28.5 -37.5 -92.5 -56.5v-307q0 -74 -84 -74v64q9 9 21 27l-4 4q-30 -43 -75.5 -69t-99.5 -26t-95.5 23t-64 64t-22.5 92v275q0 33 22 48.5t66 15.5v-335q0 -48 28.5 -77t84.5 -29q37 0 68 15.5t49.5 42t18.5 57.5v262q0 33 21.5 48.5t65.5 15.5v-71
q26 18 33.5 48t7.5 94q80 2 80 -65q0 -49 -28.5 -86.5zM129.5 580.5q-13.5 16.5 -13.5 41.5q0 34 24 55t61 21q26 0 45 -9.5t44 -28.5q17 -13 27.5 -19t21.5 -6q15 0 22.5 7t7.5 19q0 14 -8 32q10 5 22 5q20 0 34 -17t14 -41q0 -35 -23 -55.5t-59 -20.5q-23 0 -41 9.5
t-43 28.5q-17 14 -30 21t-25 7q-15 0 -23.5 -8t-8.5 -22q0 -17 8 -31q-12 -5 -22 -5q-21 0 -34.5 16.5z" />
    <glyph glyph-name="uhungarumlaut" unicode="&#x171;" horiz-adv-x="554" 
d="M484 65q0 -74 -84 -74v64q9 9 21 27l-4 4q-30 -43 -75.5 -69t-99.5 -26t-95.5 23t-64 64t-22.5 92v275q0 33 22 48.5t66 15.5v-335q0 -48 28.5 -77t84.5 -29q37 0 68 15.5t49.5 42t18.5 57.5v262q0 33 21.5 48.5t65.5 15.5v-444zM220 696q19 34 77 34h55l-125 -148
q-12 -14 -28 -18t-58 -2zM398 696q19 34 77 34h54l-120 -148q-10 -12 -22 -16.5t-37 -4.5l-27 1z" />
    <glyph glyph-name="umacron" unicode="&#x16b;" horiz-adv-x="554" 
d="M484 65q0 -74 -84 -74v64q9 9 21 27l-4 4q-30 -43 -75.5 -69t-99.5 -26t-95.5 23t-64 64t-22.5 92v275q0 33 22 48.5t66 15.5v-335q0 -48 28.5 -77t84.5 -29q37 0 68 15.5t49.5 42t18.5 57.5v262q0 33 21.5 48.5t65.5 15.5v-444zM185 656h256q0 -71 -68 -71h-256
q0 71 68 71z" />
    <glyph glyph-name="uogonek" unicode="&#x173;" horiz-adv-x="554" 
d="M389 -104q0 -20 11 -31.5t30 -11.5q25 0 40 19q5 -13 5 -22q0 -22 -21.5 -37.5t-54.5 -15.5q-41 0 -65.5 23.5t-24.5 62.5q0 36 24 68.5t67 50.5v53q9 9 21 27l-4 4q-30 -43 -75.5 -69t-99.5 -26t-95.5 23t-64 64t-22.5 92v275q0 33 22 48.5t66 15.5v-335q0 -48 28.5 -77
t84.5 -29q37 0 68 15.5t49.5 42t18.5 57.5v262q0 33 21.5 48.5t65.5 15.5v-444q0 -45 -31 -63q-64 -50 -64 -106z" />
    <glyph glyph-name="uring" unicode="&#x16f;" horiz-adv-x="554" 
d="M484 65q0 -74 -84 -74v64q9 9 21 27l-4 4q-30 -43 -75.5 -69t-99.5 -26t-95.5 23t-64 64t-22.5 92v275q0 33 22 48.5t66 15.5v-335q0 -48 28.5 -77t84.5 -29q37 0 68 15.5t49.5 42t18.5 57.5v262q0 33 21.5 48.5t65.5 15.5v-444zM197.5 575q-31.5 29 -31.5 75t31.5 74.5
t81.5 28.5q49 0 80 -28.5t31 -74.5t-31 -75t-80 -29q-50 0 -81.5 29zM315.5 613q14.5 14 14.5 37t-14.5 37t-36.5 14q-23 0 -37 -14t-14 -37t14 -37t37 -14q22 0 36.5 14z" />
    <glyph glyph-name="utilde" unicode="&#x169;" horiz-adv-x="554" 
d="M484 65q0 -74 -84 -74v64q9 9 21 27l-4 4q-30 -43 -75.5 -69t-99.5 -26t-95.5 23t-64 64t-22.5 92v275q0 33 22 48.5t66 15.5v-335q0 -48 28.5 -77t84.5 -29q37 0 68 15.5t49.5 42t18.5 57.5v262q0 33 21.5 48.5t65.5 15.5v-444zM134.5 580.5q-13.5 16.5 -13.5 41.5
q0 34 24 55t61 21q26 0 45 -9.5t44 -28.5q17 -13 27.5 -19t21.5 -6q15 0 22.5 7t7.5 19q0 14 -8 32q10 5 22 5q20 0 34 -17t14 -41q0 -35 -23 -55.5t-59 -20.5q-23 0 -41 9.5t-43 28.5q-17 14 -30 21t-25 7q-15 0 -23.5 -8t-8.5 -22q0 -17 8 -31q-12 -5 -22 -5
q-21 0 -34.5 16.5z" />
    <glyph glyph-name="v" unicode="v" horiz-adv-x="561" 
d="M254 -1q-12 8 -17 20l-192 483q6 3 17 5t20 2q22 0 39 -10t23 -29l132 -359l-14 -40l5 -2l150 401q6 19 23 29t38 10q9 0 20 -2t18 -5l-192 -483q-5 -12 -16.5 -20t-26.5 -8t-27 8z" />
    <glyph glyph-name="w" unicode="w" horiz-adv-x="737" 
d="M201 5.5q-21 14.5 -29 40.5l-127 455q14 8 38 8q22 0 37 -10t19 -29l84 -332l-10 -43l5 -2l109 387q4 13 15 21t27 8t27 -8t15 -21l95 -346l-12 -43l6 -2l98 381q4 19 19 29t37 10q24 0 38 -8l-127 -455q-7 -26 -30 -40.5t-55 -14.5l-120 432l-4 -1l10 -37l-112 -394
q-32 0 -53 14.5z" />
    <glyph glyph-name="wacute" unicode="&#x1e83;" horiz-adv-x="737" 
d="M201 5.5q-21 14.5 -29 40.5l-127 455q14 8 38 8q22 0 37 -10t19 -29l84 -332l-10 -43l5 -2l109 387q4 13 15 21t27 8t27 -8t15 -21l95 -346l-12 -43l6 -2l98 381q4 19 19 29t37 10q24 0 38 -8l-127 -455q-7 -26 -30 -40.5t-55 -14.5l-120 432l-4 -1l10 -37l-112 -394
q-32 0 -53 14.5zM378 696q14 34 77 34h59l-102 -148q-8 -13 -20 -17t-38 -4l-32 1z" />
    <glyph glyph-name="wcircumflex" unicode="&#x175;" horiz-adv-x="737" 
d="M201 5.5q-21 14.5 -29 40.5l-127 455q14 8 38 8q22 0 37 -10t19 -29l84 -332l-10 -43l5 -2l109 387q4 13 15 21t27 8t27 -8t15 -21l95 -346l-12 -43l6 -2l98 381q4 19 19 29t37 10q24 0 38 -8l-127 -455q-7 -26 -30 -40.5t-55 -14.5l-120 432l-4 -1l10 -37l-112 -394
q-32 0 -53 14.5zM275 568.5q-11 -4.5 -23 -4.5q-16 0 -29.5 6.5t-22.5 18.5l141 147q11 13 29 13t29 -13l141 -147q-9 -12 -22.5 -18.5t-29.5 -6.5q-12 0 -23 4.5t-18 12.5l-77 92l-77 -92q-7 -8 -18 -12.5z" />
    <glyph glyph-name="wdieresis" unicode="&#x1e85;" horiz-adv-x="737" 
d="M201 5.5q-21 14.5 -29 40.5l-127 455q14 8 38 8q22 0 37 -10t19 -29l84 -332l-10 -43l5 -2l109 387q4 13 15 21t27 8t27 -8t15 -21l95 -346l-12 -43l6 -2l98 381q4 19 19 29t37 10q24 0 38 -8l-127 -455q-7 -26 -30 -40.5t-55 -14.5l-120 432l-4 -1l10 -37l-112 -394
q-32 0 -53 14.5zM233.5 590q-15.5 15 -15.5 39t15.5 39.5t40.5 15.5q24 0 39 -15.5t15 -39.5q0 -23 -15 -38.5t-39 -15.5q-25 0 -40.5 15zM426.5 590.5q-15.5 15.5 -15.5 38.5q0 24 15 39.5t40 15.5t40 -15.5t15 -39.5q0 -23 -15 -38.5t-40 -15.5q-24 0 -39.5 15.5z" />
    <glyph glyph-name="wgrave" unicode="&#x1e81;" horiz-adv-x="737" 
d="M201 5.5q-21 14.5 -29 40.5l-127 455q14 8 38 8q22 0 37 -10t19 -29l84 -332l-10 -43l5 -2l109 387q4 13 15 21t27 8t27 -8t15 -21l95 -346l-12 -43l6 -2l98 381q4 19 19 29t37 10q24 0 38 -8l-127 -455q-7 -26 -30 -40.5t-55 -14.5l-120 432l-4 -1l10 -37l-112 -394
q-32 0 -53 14.5zM358 564q-17 4 -28 18l-123 148h59q58 0 77 -34l76 -134q-44 -2 -61 2z" />
    <glyph glyph-name="x" unicode="x" horiz-adv-x="558" 
d="M70 -4.5q-15 4.5 -25 14.5l184 253l-163 231q8 7 22.5 11t26.5 4q38 0 56 -27l104 -155l-19 -27l5 -4l127 186q9 13 24.5 20t33.5 7q12 0 26 -4t22 -11l-164 -231l183 -253q-9 -10 -22.5 -14.5t-25.5 -4.5q-16 0 -32 6.5t-23 17.5l-131 191l-130 -191q-8 -12 -22 -18
t-29 -6q-13 0 -28 4.5z" />
    <glyph glyph-name="y" unicode="y" horiz-adv-x="567" 
d="M54 -136q30 -4 43 -4q44 0 70.5 26t54.5 90l20 45l-197 481q7 3 18.5 5t19.5 2q21 -1 38 -11.5t24 -27.5l134 -342l-14 -40l6 -3l152 385q7 18 23.5 28.5t37.5 10.5q9 0 20.5 -2t17.5 -5l-225 -551q-33 -80 -74 -119.5t-104 -39.5q-62 0 -65 72z" />
    <glyph glyph-name="yacute" unicode="&#xfd;" horiz-adv-x="567" 
d="M54 -136q30 -4 43 -4q44 0 70.5 26t54.5 90l20 45l-197 481q7 3 18.5 5t19.5 2q21 -1 38 -11.5t24 -27.5l134 -342l-14 -40l6 -3l152 385q7 18 23.5 28.5t37.5 10.5q9 0 20.5 -2t17.5 -5l-225 -551q-33 -80 -74 -119.5t-104 -39.5q-62 0 -65 72zM293 696q14 34 77 34h59
l-102 -148q-8 -13 -20 -17t-38 -4l-32 1z" />
    <glyph glyph-name="ycircumflex" unicode="&#x177;" horiz-adv-x="567" 
d="M54 -136q30 -4 43 -4q44 0 70.5 26t54.5 90l20 45l-197 481q7 3 18.5 5t19.5 2q21 -1 38 -11.5t24 -27.5l134 -342l-14 -40l6 -3l152 385q7 18 23.5 28.5t37.5 10.5q9 0 20.5 -2t17.5 -5l-225 -551q-33 -80 -74 -119.5t-104 -39.5q-62 0 -65 72zM190 568.5
q-11 -4.5 -23 -4.5q-16 0 -29.5 6.5t-22.5 18.5l141 147q11 13 29 13t29 -13l141 -147q-9 -12 -22.5 -18.5t-29.5 -6.5q-12 0 -23 4.5t-18 12.5l-77 92l-77 -92q-7 -8 -18 -12.5z" />
    <glyph glyph-name="ydieresis" unicode="&#xff;" horiz-adv-x="567" 
d="M54 -136q30 -4 43 -4q44 0 70.5 26t54.5 90l20 45l-197 481q7 3 18.5 5t19.5 2q21 -1 38 -11.5t24 -27.5l134 -342l-14 -40l6 -3l152 385q7 18 23.5 28.5t37.5 10.5q9 0 20.5 -2t17.5 -5l-225 -551q-33 -80 -74 -119.5t-104 -39.5q-62 0 -65 72zM148.5 590
q-15.5 15 -15.5 39t15.5 39.5t40.5 15.5q24 0 39 -15.5t15 -39.5q0 -23 -15 -38.5t-39 -15.5q-25 0 -40.5 15zM341.5 590.5q-15.5 15.5 -15.5 38.5q0 24 15 39.5t40 15.5t40 -15.5t15 -39.5q0 -23 -15 -38.5t-40 -15.5q-24 0 -39.5 15.5z" />
    <glyph glyph-name="uni1E8F" unicode="&#x1e8f;" horiz-adv-x="567" 
d="M54 -136q30 -4 43 -4q44 0 70.5 26t54.5 90l20 45l-197 481q7 3 18.5 5t19.5 2q21 -1 38 -11.5t24 -27.5l134 -342l-14 -40l6 -3l152 385q7 18 23.5 28.5t37.5 10.5q9 0 20.5 -2t17.5 -5l-225 -551q-33 -80 -74 -119.5t-104 -39.5q-62 0 -65 72zM244.5 590.5
q-15.5 15.5 -15.5 38.5q0 24 15.5 39.5t40.5 15.5q24 0 39.5 -15.5t15.5 -39.5q0 -23 -15 -38.5t-40 -15.5t-40.5 15.5z" />
    <glyph glyph-name="uni1EF5" unicode="&#x1ef5;" horiz-adv-x="567" 
d="M54 -136q30 -4 43 -4q44 0 70.5 26t54.5 90l20 45l-197 481q7 3 18.5 5t19.5 2q21 -1 38 -11.5t24 -27.5l134 -342l-14 -40l6 -3l152 385q7 18 23.5 28.5t37.5 10.5q9 0 20.5 -2t17.5 -5l-225 -551q-33 -80 -74 -119.5t-104 -39.5q-62 0 -65 72zM376.5 -159.5
q-15.5 15.5 -15.5 38.5q0 24 15.5 39.5t40.5 15.5q24 0 39.5 -15.5t15.5 -39.5t-15.5 -39t-39.5 -15q-25 0 -40.5 15.5z" />
    <glyph glyph-name="ygrave" unicode="&#x1ef3;" horiz-adv-x="567" 
d="M54 -136q30 -4 43 -4q44 0 70.5 26t54.5 90l20 45l-197 481q7 3 18.5 5t19.5 2q21 -1 38 -11.5t24 -27.5l134 -342l-14 -40l6 -3l152 385q7 18 23.5 28.5t37.5 10.5q9 0 20.5 -2t17.5 -5l-225 -551q-33 -80 -74 -119.5t-104 -39.5q-62 0 -65 72zM273 564q-17 4 -28 18
l-123 148h59q58 0 77 -34l76 -134q-44 -2 -61 2z" />
    <glyph glyph-name="uni1EF7" unicode="&#x1ef7;" horiz-adv-x="567" 
d="M54 -136q30 -4 43 -4q44 0 70.5 26t54.5 90l20 45l-197 481q7 3 18.5 5t19.5 2q21 -1 38 -11.5t24 -27.5l134 -342l-14 -40l6 -3l152 385q7 18 23.5 28.5t37.5 10.5q9 0 20.5 -2t17.5 -5l-225 -551q-33 -80 -74 -119.5t-104 -39.5q-62 0 -65 72zM257 593q0 17 8 29.5
t23 26.5q13 11 19.5 20t6.5 21q0 27 -34 27t-34 -35q0 -12 3 -21q-31 0 -49 10.5t-18 32.5q0 30 28.5 50.5t72.5 20.5q48 0 76 -20t28 -57q0 -20 -8 -32.5t-24 -26.5q-13 -12 -19.5 -21.5t-6.5 -22.5q0 -15 -13.5 -23.5t-33.5 -8.5q-11 0 -25 3v27z" />
    <glyph glyph-name="uni1EF9" unicode="&#x1ef9;" horiz-adv-x="567" 
d="M54 -136q30 -4 43 -4q44 0 70.5 26t54.5 90l20 45l-197 481q7 3 18.5 5t19.5 2q21 -1 38 -11.5t24 -27.5l134 -342l-14 -40l6 -3l152 385q7 18 23.5 28.5t37.5 10.5q9 0 20.5 -2t17.5 -5l-225 -551q-33 -80 -74 -119.5t-104 -39.5q-62 0 -65 72zM139.5 580.5
q-13.5 16.5 -13.5 41.5q0 34 24 55t61 21q26 0 45 -9.5t44 -28.5q17 -13 27.5 -19t21.5 -6q15 0 22.5 7t7.5 19q0 14 -8 32q10 5 22 5q20 0 34 -17t14 -41q0 -35 -23 -55.5t-59 -20.5q-23 0 -41 9.5t-43 28.5q-17 14 -30 21t-25 7q-15 0 -23.5 -8t-8.5 -22q0 -17 8 -31
q-12 -5 -22 -5q-21 0 -34.5 16.5z" />
    <glyph glyph-name="z" unicode="z" horiz-adv-x="518" 
d="M55 11.5q-10 11.5 -10 26.5q0 12 8 22l325 395l-4 3l-24 -27h-232q-29 0 -44.5 19t-15.5 50h376q17 0 26.5 -10t9.5 -25q0 -14 -9 -26l-323 -392l5 -4l22 26h248q29 0 44.5 -19t15.5 -50h-392q-16 0 -26 11.5z" />
    <glyph glyph-name="zacute" unicode="&#x17a;" horiz-adv-x="518" 
d="M55 11.5q-10 11.5 -10 26.5q0 12 8 22l325 395l-4 3l-24 -27h-232q-29 0 -44.5 19t-15.5 50h376q17 0 26.5 -10t9.5 -25q0 -14 -9 -26l-323 -392l5 -4l22 26h248q29 0 44.5 -19t15.5 -50h-392q-16 0 -26 11.5zM265 696q14 34 77 34h59l-102 -148q-8 -13 -20 -17t-38 -4
l-32 1z" />
    <glyph glyph-name="zcaron" unicode="&#x17e;" horiz-adv-x="518" 
d="M55 11.5q-10 11.5 -10 26.5q0 12 8 22l325 395l-4 3l-24 -27h-232q-29 0 -44.5 19t-15.5 50h376q17 0 26.5 -10t9.5 -25q0 -14 -9 -26l-323 -392l5 -4l22 26h248q29 0 44.5 -19t15.5 -50h-392q-16 0 -26 11.5zM333 732q14 17 41 17q15 0 29 -6.5t23 -18.5l-141 -147
q-11 -13 -29 -13t-29 13l-141 147q9 12 23 18.5t29 6.5q27 0 41 -17l77 -92z" />
    <glyph glyph-name="zdotaccent" unicode="&#x17c;" horiz-adv-x="518" 
d="M55 11.5q-10 11.5 -10 26.5q0 12 8 22l325 395l-4 3l-24 -27h-232q-29 0 -44.5 19t-15.5 50h376q17 0 26.5 -10t9.5 -25q0 -14 -9 -26l-323 -392l5 -4l22 26h248q29 0 44.5 -19t15.5 -50h-392q-16 0 -26 11.5zM216.5 590.5q-15.5 15.5 -15.5 38.5q0 24 15.5 39.5
t40.5 15.5q24 0 39.5 -15.5t15.5 -39.5q0 -23 -15 -38.5t-40 -15.5t-40.5 15.5z" />
    <glyph glyph-name="uni1E93" unicode="&#x1e93;" horiz-adv-x="518" 
d="M55 11.5q-10 11.5 -10 26.5q0 12 8 22l325 395l-4 3l-24 -27h-232q-29 0 -44.5 19t-15.5 50h376q17 0 26.5 -10t9.5 -25q0 -14 -9 -26l-323 -392l5 -4l22 26h248q29 0 44.5 -19t15.5 -50h-392q-16 0 -26 11.5zM215.5 -159.5q-15.5 15.5 -15.5 38.5q0 24 15.5 39.5
t40.5 15.5q24 0 39.5 -15.5t15.5 -39.5t-15.5 -39t-39.5 -15q-25 0 -40.5 15.5z" />
    <glyph glyph-name="ordfeminine" unicode="&#xaa;" horiz-adv-x="440" 
d="M77 334.5q-42 36.5 -42 96.5q0 61 44.5 98t116.5 37q38 0 68.5 -13.5t57.5 -41.5l3 4q-9 11 -21 21v28q0 40 -26.5 62.5t-73.5 22.5q-41 0 -72 -18t-48 -53q-14 6 -22.5 17.5t-8.5 23.5q0 23 21.5 44t57.5 33.5t76 12.5q77 0 122 -38.5t45 -105.5v-210q0 -29 -16.5 -43
t-51.5 -14v41l19 21l-4 3q-30 -35 -61.5 -50t-73.5 -15q-68 0 -110 36.5zM277 376q29 21 29 56q0 38 -26.5 57.5t-77.5 19.5q-46 0 -71 -20t-25 -58q0 -34 25.5 -55t67.5 -21q49 0 78 21z" />
    <glyph glyph-name="ordmasculine" unicode="&#xba;" horiz-adv-x="441" 
d="M129.5 317q-39.5 19 -62 51.5t-22.5 72.5v125q0 40 22.5 72.5t62 51.5t90.5 19t91 -18.5t62.5 -51.5t22.5 -73v-125q0 -40 -22.5 -73t-62.5 -51.5t-91 -18.5t-90.5 19zM295.5 383q29.5 22 29.5 61v119q0 39 -29.5 61t-75.5 22t-75.5 -22t-29.5 -61v-119q0 -39 29.5 -61
t75.5 -22t75.5 22z" />
    <glyph glyph-name="uni207F" unicode="&#x207f;" horiz-adv-x="476" 
d="M70 650q0 59 69 59v-51q-10 -11 -17 -21l3 -3q26 35 64.5 55t79.5 20q64 0 103 -37.5t39 -99.5v-227q0 -51 -72 -51v268q0 40 -22.5 61.5t-63.5 21.5q-45 0 -78 -27.5t-33 -64.5v-208q0 -51 -72 -51v356z" />
    <glyph glyph-name="uni0394" unicode="&#x394;" horiz-adv-x="687" 
d="M35 71l276 629h65l276 -629v-71h-617v71zM553 81l-209 494l-210 -494h419z" />
    <glyph glyph-name="uni03A9" unicode="&#x3a9;" horiz-adv-x="774" 
d="M216 565.5q-63 -58.5 -63 -158.5q0 -98 49 -156t146 -74v-177h-303q0 39 19 61t53 22h139v41q-96 28 -147.5 101t-51.5 182q0 89 41.5 157.5t116.5 106.5t172 38t172.5 -38t117 -106.5t41.5 -157.5q0 -108 -52 -181.5t-147 -101.5v-41h139q33 0 52 -22.5t19 -60.5h-302
v177q96 16 145.5 74t49.5 156q0 100 -63.5 158.5t-171.5 58.5t-171 -58.5z" />
    <glyph glyph-name="uni03BC" unicode="&#x3bc;" horiz-adv-x="564" 
d="M70 445q0 33 21 48.5t66 15.5v-335q0 -50 30 -78t84 -28q36 0 67 15.5t49.5 42t18.5 57.5v262q0 33 21.5 48.5t66.5 15.5v-444q0 -74 -84 -74v64q14 16 21 27l-4 4q-32 -45 -78.5 -70t-97.5 -25q-73 0 -122 52l-5 -4q18 -18 33 -27v-157q0 -33 -21 -48.5t-66 -15.5v654z
" />
    <glyph glyph-name="pi" unicode="&#x3c0;" horiz-adv-x="653" 
d="M424.5 29q-33.5 38 -33.5 103v303h-163v-434h-87v434h-106q0 38 18 56t57 18h489q0 -38 -18.5 -56t-56.5 -18h-46v-300q0 -38 14 -52.5t50 -14.5q33 0 64 18q12 -15 12 -34q0 -23 -27 -42t-68 -19q-65 0 -98.5 38z" />
    <glyph glyph-name="uni0E01" unicode="&#xe01;" horiz-adv-x="593" 
d="M125.5 11q-23.5 20 -23.5 54v215l-56 100q-6 12 -6 21q0 3 2 11q29 83 97.5 132t156.5 49q70 0 123.5 -27t83.5 -75.5t30 -111.5v-314q0 -34 -24 -54t-65 -20v389q0 65 -38.5 100t-109.5 35q-58 0 -105 -32.5t-62 -83.5l53 -94q8 -13 8 -33v-281q-41 0 -64.5 20z" />
    <glyph glyph-name="uni0E02" unicode="&#xe02;" horiz-adv-x="602" 
d="M269.5 9.5q-41.5 18.5 -65.5 51.5t-24 75v25q0 36 16.5 65.5t49.5 73.5q32 41 47.5 69t15.5 60q0 47 -26 72t-74 25q-39 0 -66 -18t-42 -47l3 -2q10 11 25.5 17.5t31.5 6.5q40 0 63.5 -24.5t23.5 -65.5q0 -40 -29.5 -68t-70.5 -28q-49 0 -78.5 35.5t-29.5 89.5
q0 48 23.5 87t65 61.5t92.5 22.5q76 0 123 -44t47 -114q0 -39 -17 -71.5t-49 -75.5q-30 -40 -44.5 -66.5t-14.5 -57.5v-21q0 -35 26 -57t69 -22q41 0 68.5 22.5t27.5 56.5v376q0 35 22.5 54.5t62.5 19.5v-446q0 -43 -24 -79t-65.5 -56.5t-92.5 -20.5q-49 0 -90.5 18.5z
M181 360q13 13 13 33q0 21 -13 34t-33 13q-21 0 -34 -13t-13 -34q0 -20 13 -33t34 -13q20 0 33 13z" />
    <glyph glyph-name="uni0E03" unicode="&#xe03;" horiz-adv-x="620" 
d="M288 9.5q-41 18.5 -65 51.5t-24 75v24q0 35 15 65.5t46 73.5q31 46 47 78t16 69q0 39 -12.5 60t-34.5 21l-36 -29q-11 -8 -17 -8q-9 0 -18 8l-36 29q-24 0 -43.5 -25t-23.5 -53l2 -1q29 25 66 25q41 0 64 -25t23 -62q0 -40 -29 -68t-72 -28q-53 0 -84.5 35.5t-31.5 95.5
q0 50 17 89t46.5 61t66.5 22l52 -42l53 42q58 0 93 -38.5t35 -105.5q0 -41 -16 -76t-47 -82q-28 -42 -41.5 -69.5t-13.5 -57.5v-21q0 -36 26 -57.5t69 -21.5q39 0 66.5 22t27.5 57v376q0 36 24 55t62 19v-446q0 -44 -24.5 -80t-66 -56t-91.5 -20q-49 0 -90 18.5zM188.5 351
q12.5 12 12.5 33q0 20 -12.5 32.5t-32.5 12.5t-32.5 -12.5t-12.5 -32.5q0 -21 12.5 -33t32.5 -12t32.5 12z" />
    <glyph glyph-name="uni0E04" unicode="&#xe04;" horiz-adv-x="611" 
d="M81.5 12.5q-21.5 21.5 -21.5 59.5v304q0 60 32.5 109.5t89 78.5t124.5 29t124 -28.5t88.5 -78.5t32.5 -110v-307q0 -36 -23 -57t-61 -21v386q0 61 -45.5 100t-115.5 39q-71 0 -117 -39t-46 -100v-196l-25 -69l6 -2l87 210q12 29 36.5 45.5t57.5 16.5q44 0 71 -26.5
t27 -70.5q0 -40 -27.5 -67t-68.5 -27q-29 0 -51 13t-35 38l-4 -2q6 -15 16 -28l-92 -221q-38 0 -59.5 21.5zM336.5 252.5q12.5 12.5 12.5 32.5t-13 33t-33 13q-19 0 -32 -13.5t-13 -32.5t13 -32t32 -13q21 0 33.5 12.5z" />
    <glyph glyph-name="uni0E05" unicode="&#xe05;" horiz-adv-x="611" 
d="M81.5 12.5q-21.5 21.5 -21.5 59.5v351q0 79 39 124.5t107 45.5q23 0 41 -15l57 -45l58 45q20 15 42 15q68 0 107.5 -45.5t39.5 -124.5v-354q0 -36 -22.5 -57t-61.5 -21v434q0 44 -18 68t-52 24l-69 -53q-11 -10 -23 -10q-10 0 -24 10l-68 53q-34 0 -52 -23.5t-18 -68.5
v-246l-25 -67l6 -2l87 210q12 29 36.5 45.5t57.5 16.5q44 0 71 -26.5t27 -70.5q0 -40 -28 -67t-69 -27q-28 0 -50 13t-35 38l-4 -2q6 -15 16 -28l-92 -221q-38 0 -59.5 21.5zM336.5 252.5q12.5 12.5 12.5 32.5t-13 33t-33 13q-19 0 -32 -13.5t-13 -32.5t13 -32t32 -13
q21 0 33.5 12.5z" />
    </font>
</defs>
</svg>
